<svg height="512" viewBox="0 0 448 512" width="448" xmlns="http://www.w3.org/2000/svg"><path d="m48 32c-26.5 0-48 21.5-48 48v352c0 26.5 21.5 48 48 48h352c26.5 0 48-21.5 48-48v-352c0-26.5-21.5-48-48-48zm228.37305 114.7832.65039 2.26368-50.81446 37.13281s13.57382 10.58696 20.51172 18.35547c3.13664 2.09191 5.95747 4.48865 8.45899 7.19922 9.44379-11.8759 26.65568-17.81446 51.63281-17.81446 22.8359 0 40.94969 5.02949 54.3418 15.08594 15.22393 11.25705 22.8397 27.85084 22.8457 49.7832v106.42774h-51.1582v-100.4961c0-21.00408-8.66416-31.50767-25.99219-31.51367-17.32806-.00619-26.00978 10.49722-26.04688 31.51367v100.4961h-51.19531v-100.4961c0-14.96432-4.3338-24.59423-12.99414-28.90039-11.10138 7.29102-23.55075 12.14784-36.74805 14.3125-1.2339 4.11453-1.85175 8.97259-1.84375 14.58789v100.4961h-51.20312v-106.42774c0-4.80728.36584-9.35764 1.09766-13.65234-.002-.00132-.00322-.00151-.00391-.00195a239.49838 239.49838 0 0 1 -1.55078-30.68946l-52.355471-.50195c-.566249 5.9689-1.594982 21.31322-.341797 44.65039 5.987455 21.24853 6.117462 42.59969 4.845704 62.09375-8.020409-18.74213-16.55992-35.9712-7.796875-61.33203-1.281042-23.49498-.278672-39.1178.296875-45.43945l-6.277344-.06446-.732422-2.08008c78.97876-45.78316 120.67673-53.74671 212.37305-64.98828z"/></svg>