<?xml version="1.0" encoding="UTF-8" standalone="no"?>
<svg
   width="267.564pt"
   height="176.279pt"
   viewBox="0 0 267.564 176.279"
   version="1.1"
   id="svg505"
   sodipodi:docname="AppStoreandGooglePlay.svg"
   inkscape:version="1.2.2 (b0a8486541, 2022-12-01)"
   xmlns:inkscape="http://www.inkscape.org/namespaces/inkscape"
   xmlns:sodipodi="http://sodipodi.sourceforge.net/DTD/sodipodi-0.dtd"
   xmlns="http://www.w3.org/2000/svg"
   xmlns:svg="http://www.w3.org/2000/svg">
  <sodipodi:namedview
     id="namedview507"
     pagecolor="#ffffff"
     bordercolor="#666666"
     borderopacity="1.0"
     inkscape:showpageshadow="2"
     inkscape:pageopacity="0.0"
     inkscape:pagecheckerboard="0"
     inkscape:deskcolor="#d1d1d1"
     inkscape:document-units="pt"
     showgrid="false"
     inkscape:zoom="1.0040901"
     inkscape:cx="178.27086"
     inkscape:cy="118.0173"
     inkscape:window-width="3378"
     inkscape:window-height="1360"
     inkscape:window-x="0"
     inkscape:window-y="0"
     inkscape:window-maximized="1"
     inkscape:current-layer="svg505" />
  <defs
     id="defs411">
    <clipPath
       id="clip-0">
      <path
         clip-rule="nonzero"
         d="M 62 119 L 79 119 L 79 134 L 62 134 Z M 62 119 "
         id="path2" />
    </clipPath>
    <clipPath
       id="clip-1">
      <path
         clip-rule="nonzero"
         d="M 62.457031 126.566406 L 62.457031 127.035156 L 69.09375 133.675781 L 69.246094 133.589844 L 77.109375 129.121094 C 79.355469 127.84375 79.355469 125.757812 77.109375 124.480469 L 69.246094 120.011719 L 69.097656 119.925781 Z M 62.457031 126.566406 "
         id="path5" />
    </clipPath>
    <linearGradient
       id="linear-pattern-0"
       gradientUnits="userSpaceOnUse"
       x1="-0.0952972"
       y1="0"
       x2="0.339234"
       y2="0"
       gradientTransform="matrix(-38.885571, 0, 0, -38.885571, 75.649315, 126.801156)">
      <stop
         offset="0"
         stop-color="rgb(97.564697%, 88.17749%, 2.368164%)"
         stop-opacity="1"
         id="stop8" />
      <stop
         offset="0.125"
         stop-color="rgb(97.564697%, 88.17749%, 2.368164%)"
         stop-opacity="1"
         id="stop10" />
      <stop
         offset="0.1875"
         stop-color="rgb(97.564697%, 88.17749%, 2.368164%)"
         stop-opacity="1"
         id="stop12" />
      <stop
         offset="0.21875"
         stop-color="rgb(97.564697%, 88.17749%, 2.368164%)"
         stop-opacity="1"
         id="stop14" />
      <stop
         offset="0.234375"
         stop-color="rgb(97.561646%, 88.038635%, 2.384949%)"
         stop-opacity="1"
         id="stop16" />
      <stop
         offset="0.25"
         stop-color="rgb(97.555542%, 87.756348%, 2.418518%)"
         stop-opacity="1"
         id="stop18" />
      <stop
         offset="0.265625"
         stop-color="rgb(97.550964%, 87.467957%, 2.453613%)"
         stop-opacity="1"
         id="stop20" />
      <stop
         offset="0.28125"
         stop-color="rgb(97.544861%, 87.181091%, 2.488708%)"
         stop-opacity="1"
         id="stop22" />
      <stop
         offset="0.296875"
         stop-color="rgb(97.540283%, 86.895752%, 2.522278%)"
         stop-opacity="1"
         id="stop24" />
      <stop
         offset="0.3125"
         stop-color="rgb(97.53418%, 86.608887%, 2.555847%)"
         stop-opacity="1"
         id="stop26" />
      <stop
         offset="0.328125"
         stop-color="rgb(97.528076%, 86.325073%, 2.590942%)"
         stop-opacity="1"
         id="stop28" />
      <stop
         offset="0.34375"
         stop-color="rgb(97.523499%, 86.04126%, 2.624512%)"
         stop-opacity="1"
         id="stop30" />
      <stop
         offset="0.359375"
         stop-color="rgb(97.517395%, 85.75592%, 2.659607%)"
         stop-opacity="1"
         id="stop32" />
      <stop
         offset="0.375"
         stop-color="rgb(97.512817%, 85.475159%, 2.693176%)"
         stop-opacity="1"
         id="stop34" />
      <stop
         offset="0.390625"
         stop-color="rgb(97.506714%, 85.192871%, 2.726746%)"
         stop-opacity="1"
         id="stop36" />
      <stop
         offset="0.40625"
         stop-color="rgb(97.502136%, 84.912109%, 2.760315%)"
         stop-opacity="1"
         id="stop38" />
      <stop
         offset="0.421875"
         stop-color="rgb(97.496033%, 84.629822%, 2.79541%)"
         stop-opacity="1"
         id="stop40" />
      <stop
         offset="0.4375"
         stop-color="rgb(97.489929%, 84.350586%, 2.828979%)"
         stop-opacity="1"
         id="stop42" />
      <stop
         offset="0.453125"
         stop-color="rgb(97.483826%, 84.07135%, 2.864075%)"
         stop-opacity="1"
         id="stop44" />
      <stop
         offset="0.46875"
         stop-color="rgb(97.479248%, 83.792114%, 2.897644%)"
         stop-opacity="1"
         id="stop46" />
      <stop
         offset="0.484375"
         stop-color="rgb(97.473145%, 83.51593%, 2.931213%)"
         stop-opacity="1"
         id="stop48" />
      <stop
         offset="0.5"
         stop-color="rgb(97.467041%, 83.23822%, 2.964783%)"
         stop-opacity="1"
         id="stop50" />
      <stop
         offset="0.515625"
         stop-color="rgb(97.460938%, 82.96051%, 2.999878%)"
         stop-opacity="1"
         id="stop52" />
      <stop
         offset="0.53125"
         stop-color="rgb(97.45636%, 82.685852%, 3.031921%)"
         stop-opacity="1"
         id="stop54" />
      <stop
         offset="0.546875"
         stop-color="rgb(97.450256%, 82.409668%, 3.067017%)"
         stop-opacity="1"
         id="stop56" />
      <stop
         offset="0.5625"
         stop-color="rgb(97.444153%, 82.13501%, 3.100586%)"
         stop-opacity="1"
         id="stop58" />
      <stop
         offset="0.578125"
         stop-color="rgb(97.439575%, 81.861877%, 3.134155%)"
         stop-opacity="1"
         id="stop60" />
      <stop
         offset="0.59375"
         stop-color="rgb(97.433472%, 81.590271%, 3.167725%)"
         stop-opacity="1"
         id="stop62" />
      <stop
         offset="0.609375"
         stop-color="rgb(97.427368%, 81.317139%, 3.201294%)"
         stop-opacity="1"
         id="stop64" />
      <stop
         offset="0.625"
         stop-color="rgb(97.421265%, 81.045532%, 3.234863%)"
         stop-opacity="1"
         id="stop66" />
      <stop
         offset="0.640625"
         stop-color="rgb(97.415161%, 80.775452%, 3.268433%)"
         stop-opacity="1"
         id="stop68" />
      <stop
         offset="0.65625"
         stop-color="rgb(97.409058%, 80.506897%, 3.302002%)"
         stop-opacity="1"
         id="stop70" />
      <stop
         offset="0.671875"
         stop-color="rgb(97.40448%, 80.236816%, 3.334045%)"
         stop-opacity="1"
         id="stop72" />
      <stop
         offset="0.6875"
         stop-color="rgb(97.398376%, 79.968262%, 3.369141%)"
         stop-opacity="1"
         id="stop74" />
      <stop
         offset="0.703125"
         stop-color="rgb(97.392273%, 79.701233%, 3.40271%)"
         stop-opacity="1"
         id="stop76" />
      <stop
         offset="0.71875"
         stop-color="rgb(97.386169%, 79.434204%, 3.434753%)"
         stop-opacity="1"
         id="stop78" />
      <stop
         offset="0.734375"
         stop-color="rgb(97.381592%, 79.168701%, 3.468323%)"
         stop-opacity="1"
         id="stop80" />
      <stop
         offset="0.75"
         stop-color="rgb(97.373962%, 78.903198%, 3.501892%)"
         stop-opacity="1"
         id="stop82" />
      <stop
         offset="0.765625"
         stop-color="rgb(97.369385%, 78.637695%, 3.533936%)"
         stop-opacity="1"
         id="stop84" />
      <stop
         offset="0.78125"
         stop-color="rgb(97.363281%, 78.375244%, 3.567505%)"
         stop-opacity="1"
         id="stop86" />
      <stop
         offset="0.796875"
         stop-color="rgb(97.355652%, 78.112793%, 3.601074%)"
         stop-opacity="1"
         id="stop88" />
      <stop
         offset="0.8125"
         stop-color="rgb(97.351074%, 77.850342%, 3.634644%)"
         stop-opacity="1"
         id="stop90" />
      <stop
         offset="0.828125"
         stop-color="rgb(97.344971%, 77.589417%, 3.665161%)"
         stop-opacity="1"
         id="stop92" />
      <stop
         offset="0.84375"
         stop-color="rgb(97.338867%, 77.328491%, 3.69873%)"
         stop-opacity="1"
         id="stop94" />
      <stop
         offset="0.859375"
         stop-color="rgb(97.332764%, 77.069092%, 3.7323%)"
         stop-opacity="1"
         id="stop96" />
      <stop
         offset="0.875"
         stop-color="rgb(97.32666%, 76.811218%, 3.764343%)"
         stop-opacity="1"
         id="stop98" />
      <stop
         offset="0.890625"
         stop-color="rgb(97.322083%, 76.553345%, 3.796387%)"
         stop-opacity="1"
         id="stop100" />
      <stop
         offset="0.90625"
         stop-color="rgb(97.314453%, 76.295471%, 3.829956%)"
         stop-opacity="1"
         id="stop102" />
      <stop
         offset="0.921875"
         stop-color="rgb(97.30835%, 76.039124%, 3.862%)"
         stop-opacity="1"
         id="stop104" />
      <stop
         offset="0.9375"
         stop-color="rgb(97.303772%, 75.784302%, 3.894043%)"
         stop-opacity="1"
         id="stop106" />
      <stop
         offset="0.953125"
         stop-color="rgb(97.296143%, 75.52948%, 3.927612%)"
         stop-opacity="1"
         id="stop108" />
      <stop
         offset="0.96875"
         stop-color="rgb(97.290039%, 75.276184%, 3.959656%)"
         stop-opacity="1"
         id="stop110" />
      <stop
         offset="0.984375"
         stop-color="rgb(97.283936%, 75.022888%, 3.991699%)"
         stop-opacity="1"
         id="stop112" />
      <stop
         offset="1"
         stop-color="rgb(97.279358%, 74.772644%, 4.023743%)"
         stop-opacity="1"
         id="stop114" />
    </linearGradient>
    <clipPath
       id="clip-2">
      <path
         clip-rule="nonzero"
         d="M 42 126 L 70 126 L 70 148 L 42 148 Z M 42 126 "
         id="path117" />
    </clipPath>
    <clipPath
       id="clip-3">
      <path
         clip-rule="nonzero"
         d="M 42.429688 146.828125 C 43.171875 147.613281 44.394531 147.710938 45.769531 146.925781 L 69.246094 133.589844 L 62.457031 126.800781 Z M 42.429688 146.828125 "
         id="path120" />
    </clipPath>
    <linearGradient
       id="linear-pattern-1"
       gradientUnits="userSpaceOnUse"
       x1="-0.100836"
       y1="0"
       x2="0.551601"
       y2="0"
       gradientTransform="matrix(-36.573635, 36.573635, -36.573635, -36.573635, 65.557999, 130.488858)">
      <stop
         offset="0"
         stop-color="rgb(93.67218%, 18.325806%, 25.512695%)"
         stop-opacity="1"
         id="stop123" />
      <stop
         offset="0.125"
         stop-color="rgb(93.67218%, 18.325806%, 25.512695%)"
         stop-opacity="1"
         id="stop125" />
      <stop
         offset="0.15625"
         stop-color="rgb(93.664551%, 18.319702%, 25.526428%)"
         stop-opacity="1"
         id="stop127" />
      <stop
         offset="0.164062"
         stop-color="rgb(93.615723%, 18.273926%, 25.596619%)"
         stop-opacity="1"
         id="stop129" />
      <stop
         offset="0.171875"
         stop-color="rgb(93.531799%, 18.202209%, 25.708008%)"
         stop-opacity="1"
         id="stop131" />
      <stop
         offset="0.179688"
         stop-color="rgb(93.450928%, 18.128967%, 25.820923%)"
         stop-opacity="1"
         id="stop133" />
      <stop
         offset="0.1875"
         stop-color="rgb(93.36853%, 18.055725%, 25.933838%)"
         stop-opacity="1"
         id="stop135" />
      <stop
         offset="0.195312"
         stop-color="rgb(93.286133%, 17.982483%, 26.046753%)"
         stop-opacity="1"
         id="stop137" />
      <stop
         offset="0.203125"
         stop-color="rgb(93.203735%, 17.909241%, 26.158142%)"
         stop-opacity="1"
         id="stop139" />
      <stop
         offset="0.210937"
         stop-color="rgb(93.121338%, 17.835999%, 26.271057%)"
         stop-opacity="1"
         id="stop141" />
      <stop
         offset="0.21875"
         stop-color="rgb(93.040466%, 17.762756%, 26.382446%)"
         stop-opacity="1"
         id="stop143" />
      <stop
         offset="0.226562"
         stop-color="rgb(92.958069%, 17.689514%, 26.493835%)"
         stop-opacity="1"
         id="stop145" />
      <stop
         offset="0.234375"
         stop-color="rgb(92.877197%, 17.617798%, 26.605225%)"
         stop-opacity="1"
         id="stop147" />
      <stop
         offset="0.242188"
         stop-color="rgb(92.7948%, 17.544556%, 26.715088%)"
         stop-opacity="1"
         id="stop149" />
      <stop
         offset="0.25"
         stop-color="rgb(92.712402%, 17.472839%, 26.824951%)"
         stop-opacity="1"
         id="stop151" />
      <stop
         offset="0.257812"
         stop-color="rgb(92.631531%, 17.399597%, 26.934814%)"
         stop-opacity="1"
         id="stop153" />
      <stop
         offset="0.265625"
         stop-color="rgb(92.549133%, 17.326355%, 27.044678%)"
         stop-opacity="1"
         id="stop155" />
      <stop
         offset="0.273438"
         stop-color="rgb(92.466736%, 17.254639%, 27.154541%)"
         stop-opacity="1"
         id="stop157" />
      <stop
         offset="0.28125"
         stop-color="rgb(92.385864%, 17.181396%, 27.262878%)"
         stop-opacity="1"
         id="stop159" />
      <stop
         offset="0.289062"
         stop-color="rgb(92.304993%, 17.108154%, 27.371216%)"
         stop-opacity="1"
         id="stop161" />
      <stop
         offset="0.296875"
         stop-color="rgb(92.222595%, 17.037964%, 27.479553%)"
         stop-opacity="1"
         id="stop163" />
      <stop
         offset="0.304688"
         stop-color="rgb(92.140198%, 16.964722%, 27.587891%)"
         stop-opacity="1"
         id="stop165" />
      <stop
         offset="0.3125"
         stop-color="rgb(92.059326%, 16.893005%, 27.694702%)"
         stop-opacity="1"
         id="stop167" />
      <stop
         offset="0.320312"
         stop-color="rgb(91.978455%, 16.821289%, 27.80304%)"
         stop-opacity="1"
         id="stop169" />
      <stop
         offset="0.328125"
         stop-color="rgb(91.897583%, 16.748047%, 27.909851%)"
         stop-opacity="1"
         id="stop171" />
      <stop
         offset="0.335938"
         stop-color="rgb(91.816711%, 16.676331%, 28.016663%)"
         stop-opacity="1"
         id="stop173" />
      <stop
         offset="0.34375"
         stop-color="rgb(91.734314%, 16.604614%, 28.123474%)"
         stop-opacity="1"
         id="stop175" />
      <stop
         offset="0.351562"
         stop-color="rgb(91.653442%, 16.531372%, 28.22876%)"
         stop-opacity="1"
         id="stop177" />
      <stop
         offset="0.359375"
         stop-color="rgb(91.572571%, 16.461182%, 28.335571%)"
         stop-opacity="1"
         id="stop179" />
      <stop
         offset="0.367187"
         stop-color="rgb(91.491699%, 16.387939%, 28.440857%)"
         stop-opacity="1"
         id="stop181" />
      <stop
         offset="0.375"
         stop-color="rgb(91.409302%, 16.317749%, 28.546143%)"
         stop-opacity="1"
         id="stop183" />
      <stop
         offset="0.382813"
         stop-color="rgb(91.32843%, 16.246033%, 28.651428%)"
         stop-opacity="1"
         id="stop185" />
      <stop
         offset="0.390625"
         stop-color="rgb(91.247559%, 16.172791%, 28.755188%)"
         stop-opacity="1"
         id="stop187" />
      <stop
         offset="0.398438"
         stop-color="rgb(91.166687%, 16.1026%, 28.860474%)"
         stop-opacity="1"
         id="stop189" />
      <stop
         offset="0.40625"
         stop-color="rgb(91.085815%, 16.030884%, 28.964233%)"
         stop-opacity="1"
         id="stop191" />
      <stop
         offset="0.414062"
         stop-color="rgb(91.004944%, 15.959167%, 29.067993%)"
         stop-opacity="1"
         id="stop193" />
      <stop
         offset="0.421875"
         stop-color="rgb(90.924072%, 15.887451%, 29.171753%)"
         stop-opacity="1"
         id="stop195" />
      <stop
         offset="0.429688"
         stop-color="rgb(90.843201%, 15.815735%, 29.273987%)"
         stop-opacity="1"
         id="stop197" />
      <stop
         offset="0.4375"
         stop-color="rgb(90.762329%, 15.745544%, 29.376221%)"
         stop-opacity="1"
         id="stop199" />
      <stop
         offset="0.445312"
         stop-color="rgb(90.681458%, 15.673828%, 29.478455%)"
         stop-opacity="1"
         id="stop201" />
      <stop
         offset="0.453125"
         stop-color="rgb(90.600586%, 15.602112%, 29.580688%)"
         stop-opacity="1"
         id="stop203" />
      <stop
         offset="0.460938"
         stop-color="rgb(90.52124%, 15.531921%, 29.682922%)"
         stop-opacity="1"
         id="stop205" />
      <stop
         offset="0.46875"
         stop-color="rgb(90.440369%, 15.461731%, 29.785156%)"
         stop-opacity="1"
         id="stop207" />
      <stop
         offset="0.476563"
         stop-color="rgb(90.357971%, 15.391541%, 29.885864%)"
         stop-opacity="1"
         id="stop209" />
      <stop
         offset="0.484375"
         stop-color="rgb(90.2771%, 15.319824%, 29.986572%)"
         stop-opacity="1"
         id="stop211" />
      <stop
         offset="0.492188"
         stop-color="rgb(90.197754%, 15.248108%, 30.08728%)"
         stop-opacity="1"
         id="stop213" />
      <stop
         offset="0.5"
         stop-color="rgb(90.116882%, 15.177917%, 30.187988%)"
         stop-opacity="1"
         id="stop215" />
      <stop
         offset="0.507812"
         stop-color="rgb(90.036011%, 15.107727%, 30.288696%)"
         stop-opacity="1"
         id="stop217" />
      <stop
         offset="0.515625"
         stop-color="rgb(89.955139%, 15.036011%, 30.387878%)"
         stop-opacity="1"
         id="stop219" />
      <stop
         offset="0.523438"
         stop-color="rgb(89.875793%, 14.96582%, 30.487061%)"
         stop-opacity="1"
         id="stop221" />
      <stop
         offset="0.53125"
         stop-color="rgb(89.796448%, 14.89563%, 30.586243%)"
         stop-opacity="1"
         id="stop223" />
      <stop
         offset="0.539062"
         stop-color="rgb(89.71405%, 14.825439%, 30.685425%)"
         stop-opacity="1"
         id="stop225" />
      <stop
         offset="0.546875"
         stop-color="rgb(89.634705%, 14.755249%, 30.784607%)"
         stop-opacity="1"
         id="stop227" />
      <stop
         offset="0.554688"
         stop-color="rgb(89.555359%, 14.683533%, 30.882263%)"
         stop-opacity="1"
         id="stop229" />
      <stop
         offset="0.5625"
         stop-color="rgb(89.476013%, 14.614868%, 30.979919%)"
         stop-opacity="1"
         id="stop231" />
      <stop
         offset="0.570312"
         stop-color="rgb(89.395142%, 14.544678%, 31.077576%)"
         stop-opacity="1"
         id="stop233" />
      <stop
         offset="0.578125"
         stop-color="rgb(89.31427%, 14.472961%, 31.175232%)"
         stop-opacity="1"
         id="stop235" />
      <stop
         offset="0.585938"
         stop-color="rgb(89.234924%, 14.404297%, 31.271362%)"
         stop-opacity="1"
         id="stop237" />
      <stop
         offset="0.59375"
         stop-color="rgb(89.155579%, 14.334106%, 31.369019%)"
         stop-opacity="1"
         id="stop239" />
      <stop
         offset="0.601562"
         stop-color="rgb(89.076233%, 14.263916%, 31.465149%)"
         stop-opacity="1"
         id="stop241" />
      <stop
         offset="0.609375"
         stop-color="rgb(88.995361%, 14.193726%, 31.561279%)"
         stop-opacity="1"
         id="stop243" />
      <stop
         offset="0.617188"
         stop-color="rgb(88.916016%, 14.123535%, 31.65741%)"
         stop-opacity="1"
         id="stop245" />
      <stop
         offset="0.625"
         stop-color="rgb(88.83667%, 14.054871%, 31.75354%)"
         stop-opacity="1"
         id="stop247" />
      <stop
         offset="0.632812"
         stop-color="rgb(88.757324%, 13.98468%, 31.848145%)"
         stop-opacity="1"
         id="stop249" />
      <stop
         offset="0.640625"
         stop-color="rgb(88.676453%, 13.91449%, 31.942749%)"
         stop-opacity="1"
         id="stop251" />
      <stop
         offset="0.648437"
         stop-color="rgb(88.597107%, 13.845825%, 32.037354%)"
         stop-opacity="1"
         id="stop253" />
      <stop
         offset="0.65625"
         stop-color="rgb(88.517761%, 13.775635%, 32.131958%)"
         stop-opacity="1"
         id="stop255" />
      <stop
         offset="0.664063"
         stop-color="rgb(88.438416%, 13.70697%, 32.226562%)"
         stop-opacity="1"
         id="stop257" />
      <stop
         offset="0.671875"
         stop-color="rgb(88.35907%, 13.63678%, 32.321167%)"
         stop-opacity="1"
         id="stop259" />
      <stop
         offset="0.679688"
         stop-color="rgb(88.278198%, 13.566589%, 32.41272%)"
         stop-opacity="1"
         id="stop261" />
      <stop
         offset="0.6875"
         stop-color="rgb(88.200378%, 13.499451%, 32.505798%)"
         stop-opacity="1"
         id="stop263" />
      <stop
         offset="0.695312"
         stop-color="rgb(88.121033%, 13.42926%, 32.598877%)"
         stop-opacity="1"
         id="stop265" />
      <stop
         offset="0.703125"
         stop-color="rgb(88.041687%, 13.35907%, 32.691956%)"
         stop-opacity="1"
         id="stop267" />
      <stop
         offset="0.710938"
         stop-color="rgb(87.962341%, 13.291931%, 32.783508%)"
         stop-opacity="1"
         id="stop269" />
      <stop
         offset="0.71875"
         stop-color="rgb(87.882996%, 13.221741%, 32.876587%)"
         stop-opacity="1"
         id="stop271" />
      <stop
         offset="0.726562"
         stop-color="rgb(87.80365%, 13.153076%, 32.96814%)"
         stop-opacity="1"
         id="stop273" />
      <stop
         offset="0.734375"
         stop-color="rgb(87.724304%, 13.084412%, 33.059692%)"
         stop-opacity="1"
         id="stop275" />
      <stop
         offset="0.742187"
         stop-color="rgb(87.644958%, 13.014221%, 33.149719%)"
         stop-opacity="1"
         id="stop277" />
      <stop
         offset="0.75"
         stop-color="rgb(87.565613%, 12.947083%, 33.241272%)"
         stop-opacity="1"
         id="stop279" />
      <stop
         offset="0.757813"
         stop-color="rgb(87.487793%, 12.878418%, 33.332825%)"
         stop-opacity="1"
         id="stop281" />
      <stop
         offset="0.765625"
         stop-color="rgb(87.408447%, 12.809753%, 33.422852%)"
         stop-opacity="1"
         id="stop283" />
      <stop
         offset="0.773438"
         stop-color="rgb(87.330627%, 12.741089%, 33.512878%)"
         stop-opacity="1"
         id="stop285" />
      <stop
         offset="0.78125"
         stop-color="rgb(87.251282%, 12.672424%, 33.601379%)"
         stop-opacity="1"
         id="stop287" />
      <stop
         offset="0.789062"
         stop-color="rgb(87.171936%, 12.60376%, 33.691406%)"
         stop-opacity="1"
         id="stop289" />
      <stop
         offset="0.796875"
         stop-color="rgb(87.094116%, 12.535095%, 33.781433%)"
         stop-opacity="1"
         id="stop291" />
      <stop
         offset="0.804688"
         stop-color="rgb(87.014771%, 12.466431%, 33.869934%)"
         stop-opacity="1"
         id="stop293" />
      <stop
         offset="0.8125"
         stop-color="rgb(86.935425%, 12.399292%, 33.956909%)"
         stop-opacity="1"
         id="stop295" />
      <stop
         offset="0.820312"
         stop-color="rgb(86.857605%, 12.330627%, 34.04541%)"
         stop-opacity="1"
         id="stop297" />
      <stop
         offset="0.828125"
         stop-color="rgb(86.778259%, 12.263489%, 34.133911%)"
         stop-opacity="1"
         id="stop299" />
      <stop
         offset="0.835937"
         stop-color="rgb(86.700439%, 12.194824%, 34.222412%)"
         stop-opacity="1"
         id="stop301" />
      <stop
         offset="0.84375"
         stop-color="rgb(86.621094%, 12.12616%, 34.309387%)"
         stop-opacity="1"
         id="stop303" />
      <stop
         offset="0.851563"
         stop-color="rgb(86.543274%, 12.059021%, 34.396362%)"
         stop-opacity="1"
         id="stop305" />
      <stop
         offset="0.859375"
         stop-color="rgb(86.465454%, 11.990356%, 34.483337%)"
         stop-opacity="1"
         id="stop307" />
      <stop
         offset="0.867188"
         stop-color="rgb(86.386108%, 11.921692%, 34.570312%)"
         stop-opacity="1"
         id="stop309" />
      <stop
         offset="0.875"
         stop-color="rgb(86.308289%, 11.856079%, 34.655762%)"
         stop-opacity="1"
         id="stop311" />
      <stop
         offset="0.882812"
         stop-color="rgb(86.228943%, 11.787415%, 34.741211%)"
         stop-opacity="1"
         id="stop313" />
      <stop
         offset="0.890625"
         stop-color="rgb(86.151123%, 11.720276%, 34.828186%)"
         stop-opacity="1"
         id="stop315" />
      <stop
         offset="0.898438"
         stop-color="rgb(86.073303%, 11.651611%, 34.913635%)"
         stop-opacity="1"
         id="stop317" />
      <stop
         offset="0.90625"
         stop-color="rgb(85.995483%, 11.584473%, 34.997559%)"
         stop-opacity="1"
         id="stop319" />
      <stop
         offset="0.914063"
         stop-color="rgb(85.916138%, 11.517334%, 35.083008%)"
         stop-opacity="1"
         id="stop321" />
      <stop
         offset="0.921875"
         stop-color="rgb(85.838318%, 11.450195%, 35.166931%)"
         stop-opacity="1"
         id="stop323" />
      <stop
         offset="0.929688"
         stop-color="rgb(85.760498%, 11.381531%, 35.25238%)"
         stop-opacity="1"
         id="stop325" />
      <stop
         offset="0.9375"
         stop-color="rgb(85.682678%, 11.315918%, 35.334778%)"
         stop-opacity="1"
         id="stop327" />
      <stop
         offset="0.945313"
         stop-color="rgb(85.604858%, 11.247253%, 35.418701%)"
         stop-opacity="1"
         id="stop329" />
      <stop
         offset="0.953125"
         stop-color="rgb(85.527039%, 11.181641%, 35.502625%)"
         stop-opacity="1"
         id="stop331" />
      <stop
         offset="0.960938"
         stop-color="rgb(85.449219%, 11.114502%, 35.585022%)"
         stop-opacity="1"
         id="stop333" />
      <stop
         offset="0.96875"
         stop-color="rgb(85.371399%, 11.047363%, 35.668945%)"
         stop-opacity="1"
         id="stop335" />
      <stop
         offset="0.976562"
         stop-color="rgb(85.293579%, 10.980225%, 35.751343%)"
         stop-opacity="1"
         id="stop337" />
      <stop
         offset="0.984375"
         stop-color="rgb(85.215759%, 10.913086%, 35.832214%)"
         stop-opacity="1"
         id="stop339" />
      <stop
         offset="0.992188"
         stop-color="rgb(85.137939%, 10.845947%, 35.914612%)"
         stop-opacity="1"
         id="stop341" />
      <stop
         offset="1"
         stop-color="rgb(85.06012%, 10.780334%, 35.997009%)"
         stop-opacity="1"
         id="stop343" />
    </linearGradient>
    <clipPath
       id="clip-4">
      <path
         clip-rule="nonzero"
         d="M 42 106 L 70 106 L 70 127 L 42 127 Z M 42 106 "
         id="path346" />
    </clipPath>
    <clipPath
       id="clip-5">
      <path
         clip-rule="nonzero"
         d="M 42.429688 106.773438 L 62.457031 126.800781 L 69.246094 120.011719 L 45.769531 106.675781 C 45.125 106.308594 44.511719 106.132812 43.96875 106.132812 C 43.351562 106.132812 42.824219 106.355469 42.429688 106.773438 "
         id="path349" />
    </clipPath>
    <linearGradient
       id="linear-pattern-2"
       gradientUnits="userSpaceOnUse"
       x1="0.558681"
       y1="0"
       x2="1.35377"
       y2="0"
       gradientTransform="matrix(29.861425, 29.861425, -29.861425, 29.861425, 28.821411, 86.375565)">
      <stop
         offset="0"
         stop-color="rgb(35.475159%, 73.379517%, 37.188721%)"
         stop-opacity="1"
         id="stop352" />
      <stop
         offset="0.015625"
         stop-color="rgb(35.603333%, 73.475647%, 37.141418%)"
         stop-opacity="1"
         id="stop354" />
      <stop
         offset="0.03125"
         stop-color="rgb(35.858154%, 73.66333%, 37.046814%)"
         stop-opacity="1"
         id="stop356" />
      <stop
         offset="0.046875"
         stop-color="rgb(36.109924%, 73.851013%, 36.953735%)"
         stop-opacity="1"
         id="stop358" />
      <stop
         offset="0.0625"
         stop-color="rgb(36.358643%, 74.035645%, 36.860657%)"
         stop-opacity="1"
         id="stop360" />
      <stop
         offset="0.078125"
         stop-color="rgb(36.605835%, 74.21875%, 36.767578%)"
         stop-opacity="1"
         id="stop362" />
      <stop
         offset="0.09375"
         stop-color="rgb(36.849976%, 74.40033%, 36.676025%)"
         stop-opacity="1"
         id="stop364" />
      <stop
         offset="0.109375"
         stop-color="rgb(37.094116%, 74.578857%, 36.584473%)"
         stop-opacity="1"
         id="stop366" />
      <stop
         offset="0.125"
         stop-color="rgb(37.332153%, 74.758911%, 36.494446%)"
         stop-opacity="1"
         id="stop368" />
      <stop
         offset="0.140625"
         stop-color="rgb(37.57019%, 74.934387%, 36.404419%)"
         stop-opacity="1"
         id="stop370" />
      <stop
         offset="0.15625"
         stop-color="rgb(37.80365%, 75.108337%, 36.315918%)"
         stop-opacity="1"
         id="stop372" />
      <stop
         offset="0.171875"
         stop-color="rgb(38.034058%, 75.282288%, 36.228943%)"
         stop-opacity="1"
         id="stop374" />
      <stop
         offset="0.1875"
         stop-color="rgb(38.261414%, 75.45166%, 36.140442%)"
         stop-opacity="1"
         id="stop376" />
      <stop
         offset="0.203125"
         stop-color="rgb(38.485718%, 75.617981%, 36.053467%)"
         stop-opacity="1"
         id="stop378" />
      <stop
         offset="0.21875"
         stop-color="rgb(38.70697%, 75.785828%, 35.969543%)"
         stop-opacity="1"
         id="stop380" />
      <stop
         offset="0.234375"
         stop-color="rgb(38.926697%, 75.947571%, 35.884094%)"
         stop-opacity="1"
         id="stop382" />
      <stop
         offset="0.25"
         stop-color="rgb(39.141846%, 76.109314%, 35.801697%)"
         stop-opacity="1"
         id="stop384" />
      <stop
         offset="0.265625"
         stop-color="rgb(39.352417%, 76.268005%, 35.720825%)"
         stop-opacity="1"
         id="stop386" />
      <stop
         offset="0.28125"
         stop-color="rgb(39.559937%, 76.422119%, 35.639954%)"
         stop-opacity="1"
         id="stop388" />
      <stop
         offset="0.296875"
         stop-color="rgb(39.761353%, 76.574707%, 35.560608%)"
         stop-opacity="1"
         id="stop390" />
      <stop
         offset="0.3125"
         stop-color="rgb(39.961243%, 76.725769%, 35.482788%)"
         stop-opacity="1"
         id="stop392" />
      <stop
         offset="0.328125"
         stop-color="rgb(40.156555%, 76.870728%, 35.406494%)"
         stop-opacity="1"
         id="stop394" />
      <stop
         offset="0.34375"
         stop-color="rgb(40.348816%, 77.015686%, 35.331726%)"
         stop-opacity="1"
         id="stop396" />
      <stop
         offset="0.375"
         stop-color="rgb(40.623474%, 77.223206%, 35.221863%)"
         stop-opacity="1"
         id="stop398" />
      <stop
         offset="0.40625"
         stop-color="rgb(40.975952%, 77.488708%, 35.083008%)"
         stop-opacity="1"
         id="stop400" />
      <stop
         offset="0.4375"
         stop-color="rgb(41.305542%, 77.737427%, 34.951782%)"
         stop-opacity="1"
         id="stop402" />
      <stop
         offset="0.46875"
         stop-color="rgb(41.609192%, 77.966309%, 34.832764%)"
         stop-opacity="1"
         id="stop404" />
      <stop
         offset="0.5"
         stop-color="rgb(41.879272%, 78.16925%, 34.724426%)"
         stop-opacity="1"
         id="stop406" />
      <stop
         offset="1"
         stop-color="rgb(42.156982%, 78.379822%, 34.613037%)"
         stop-opacity="1"
         id="stop408" />
    </linearGradient>
  </defs>
  <path
     fill-rule="nonzero"
     fill="rgb(5.239868%, 5.072021%, 4.968262%)"
     fill-opacity="1"
     d="M 234.886719 157.832031 L 33.648438 157.832031 C 29.570312 157.832031 26.265625 154.527344 26.265625 150.453125 L 26.265625 102.777344 C 26.265625 98.703125 29.570312 95.394531 33.648438 95.394531 L 234.886719 95.394531 C 238.960938 95.394531 242.265625 98.703125 242.265625 102.777344 L 242.265625 150.453125 C 242.265625 154.527344 238.960938 157.832031 234.886719 157.832031 "
     id="path413" />
  <path
     fill-rule="nonzero"
     fill="rgb(65.492249%, 64.863586%, 65.019226%)"
     fill-opacity="1"
     d="M 33.648438 96.203125 C 30.023438 96.203125 27.074219 99.152344 27.074219 102.777344 L 27.074219 150.453125 C 27.074219 154.078125 30.023438 157.027344 33.648438 157.027344 L 234.882812 157.027344 C 238.507812 157.027344 241.460938 154.078125 241.460938 150.453125 L 241.460938 102.777344 C 241.460938 99.152344 238.507812 96.203125 234.882812 96.203125 Z M 234.882812 158.640625 L 33.648438 158.640625 C 29.132812 158.640625 25.460938 154.96875 25.460938 150.453125 L 25.460938 102.777344 C 25.460938 98.261719 29.132812 94.589844 33.648438 94.589844 L 234.882812 94.589844 C 239.402344 94.589844 243.074219 98.261719 243.074219 102.777344 L 243.074219 150.453125 C 243.074219 154.96875 239.402344 158.640625 234.882812 158.640625 "
     id="path415" />
  <path
     fill-rule="nonzero"
     fill="rgb(100%, 100%, 100%)"
     fill-opacity="1"
     d="M 197.640625 142.886719 L 200.640625 142.886719 L 200.640625 122.777344 L 197.640625 122.777344 Z M 224.671875 130.019531 L 221.230469 138.738281 L 221.128906 138.738281 L 217.558594 130.019531 L 214.324219 130.019531 L 219.679688 142.203125 L 216.628906 148.980469 L 219.757812 148.980469 L 228.011719 130.019531 Z M 207.652344 140.601562 C 206.667969 140.601562 205.296875 140.109375 205.296875 138.894531 C 205.296875 137.34375 207.003906 136.746094 208.480469 136.746094 C 209.800781 136.746094 210.421875 137.03125 211.222656 137.417969 C 210.988281 139.28125 209.386719 140.601562 207.652344 140.601562 M 208.015625 129.582031 C 205.839844 129.582031 203.589844 130.539062 202.660156 132.660156 L 205.324219 133.769531 C 205.894531 132.660156 206.953125 132.296875 208.066406 132.296875 C 209.617188 132.296875 211.195312 133.226562 211.222656 134.882812 L 211.222656 135.089844 C 210.679688 134.78125 209.515625 134.3125 208.09375 134.3125 C 205.222656 134.3125 202.296875 135.890625 202.296875 138.84375 C 202.296875 141.53125 204.652344 143.265625 207.289062 143.265625 C 209.308594 143.265625 210.421875 142.359375 211.117188 141.300781 L 211.222656 141.300781 L 211.222656 142.851562 L 214.117188 142.851562 L 214.117188 135.140625 C 214.117188 131.574219 211.453125 129.582031 208.015625 129.582031 M 189.46875 132.46875 L 185.199219 132.46875 L 185.199219 125.574219 L 189.46875 125.574219 C 191.710938 125.574219 192.984375 127.433594 192.984375 129.023438 C 192.984375 130.582031 191.710938 132.46875 189.46875 132.46875 M 189.390625 122.777344 L 182.199219 122.777344 L 182.199219 142.886719 L 185.199219 142.886719 L 185.199219 135.265625 L 189.390625 135.265625 C 192.714844 135.265625 195.984375 132.859375 195.984375 129.023438 C 195.984375 125.1875 192.714844 122.777344 189.390625 122.777344 M 150.175781 140.605469 C 148.101562 140.605469 146.367188 138.867188 146.367188 136.484375 C 146.367188 134.074219 148.101562 132.3125 150.175781 132.3125 C 152.222656 132.3125 153.828125 134.074219 153.828125 136.484375 C 153.828125 138.867188 152.222656 140.605469 150.175781 140.605469 M 153.621094 131.144531 L 153.519531 131.144531 C 152.84375 130.34375 151.550781 129.617188 149.914062 129.617188 C 146.496094 129.617188 143.359375 132.625 143.359375 136.484375 C 143.359375 140.320312 146.496094 143.300781 149.914062 143.300781 C 151.550781 143.300781 152.84375 142.574219 153.519531 141.746094 L 153.621094 141.746094 L 153.621094 142.730469 C 153.621094 145.347656 152.222656 146.746094 149.96875 146.746094 C 148.128906 146.746094 146.988281 145.425781 146.519531 144.308594 L 143.902344 145.398438 C 144.65625 147.210938 146.652344 149.441406 149.96875 149.441406 C 153.492188 149.441406 156.472656 147.367188 156.472656 142.3125 L 156.472656 130.03125 L 153.621094 130.03125 Z M 158.546875 142.886719 L 161.550781 142.886719 L 161.550781 122.777344 L 158.546875 122.777344 Z M 165.980469 136.253906 C 165.902344 133.609375 168.027344 132.261719 169.558594 132.261719 C 170.75 132.261719 171.761719 132.855469 172.097656 133.710938 Z M 175.308594 133.972656 C 174.738281 132.441406 173.003906 129.617188 169.453125 129.617188 C 165.929688 129.617188 163.003906 132.390625 163.003906 136.460938 C 163.003906 140.292969 165.902344 143.300781 169.789062 143.300781 C 172.925781 143.300781 174.738281 141.382812 175.492188 140.265625 L 173.160156 138.714844 C 172.382812 139.851562 171.320312 140.605469 169.789062 140.605469 C 168.261719 140.605469 167.171875 139.90625 166.472656 138.53125 L 175.621094 134.75 Z M 102.4375 131.71875 L 102.4375 134.617188 L 109.382812 134.617188 C 109.175781 136.253906 108.628906 137.441406 107.800781 138.273438 C 106.789062 139.28125 105.210938 140.398438 102.4375 140.398438 C 98.160156 140.398438 94.820312 136.949219 94.820312 132.675781 C 94.820312 128.398438 98.160156 124.953125 102.4375 124.953125 C 104.742188 124.953125 106.425781 125.859375 107.671875 127.027344 L 109.71875 124.980469 C 107.980469 123.320312 105.675781 122.050781 102.4375 122.050781 C 96.582031 122.050781 91.65625 126.820312 91.65625 132.675781 C 91.65625 138.53125 96.582031 143.300781 102.4375 143.300781 C 105.597656 143.300781 107.980469 142.261719 109.847656 140.320312 C 111.765625 138.402344 112.359375 135.707031 112.359375 133.53125 C 112.359375 132.855469 112.308594 132.234375 112.203125 131.71875 Z M 120.253906 140.605469 C 118.183594 140.605469 116.394531 138.894531 116.394531 136.460938 C 116.394531 133.996094 118.183594 132.3125 120.253906 132.3125 C 122.328125 132.3125 124.117188 133.996094 124.117188 136.460938 C 124.117188 138.894531 122.328125 140.605469 120.253906 140.605469 M 120.253906 129.617188 C 116.472656 129.617188 113.390625 132.492188 113.390625 136.460938 C 113.390625 140.398438 116.472656 143.300781 120.253906 143.300781 C 124.039062 143.300781 127.121094 140.398438 127.121094 136.460938 C 127.121094 132.492188 124.039062 129.617188 120.253906 129.617188 M 135.234375 140.605469 C 133.160156 140.605469 131.375 138.894531 131.375 136.460938 C 131.375 133.996094 133.160156 132.3125 135.234375 132.3125 C 137.308594 132.3125 139.097656 133.996094 139.097656 136.460938 C 139.097656 138.894531 137.308594 140.605469 135.234375 140.605469 M 135.234375 129.617188 C 131.453125 129.617188 128.367188 132.492188 128.367188 136.460938 C 128.367188 140.398438 131.453125 143.300781 135.234375 143.300781 C 139.019531 143.300781 142.101562 140.398438 142.101562 136.460938 C 142.101562 132.492188 139.019531 129.617188 135.234375 129.617188 "
     id="path417" />
  <path
     fill-rule="nonzero"
     fill="rgb(44.65332%, 81.611633%, 96.203613%)"
     fill-opacity="1"
     d="M 42.429688 106.773438 C 41.960938 107.265625 41.6875 108.035156 41.6875 109.03125 L 41.6875 144.570312 C 41.6875 145.566406 41.960938 146.335938 42.429688 146.828125 L 42.550781 146.945312 L 62.457031 127.035156 L 62.457031 126.566406 L 42.550781 106.65625 Z M 42.429688 106.773438 "
     id="path419" />
  <g
     clip-path="url(#clip-0)"
     id="g425">
    <g
       clip-path="url(#clip-1)"
       id="g423">
      <path
         fill-rule="nonzero"
         fill="url(#linear-pattern-0)"
         d="M 79.355469 133.675781 L 79.355469 119.925781 L 62.457031 119.925781 L 62.457031 133.675781 Z M 79.355469 133.675781 "
         id="path421" />
    </g>
  </g>
  <g
     clip-path="url(#clip-2)"
     id="g431">
    <g
       clip-path="url(#clip-3)"
       id="g429">
      <path
         fill-rule="nonzero"
         fill="url(#linear-pattern-1)"
         d="M 79.699219 137.253906 L 55.839844 113.394531 L 31.976562 137.253906 L 55.839844 161.117188 Z M 79.699219 137.253906 "
         id="path427" />
    </g>
  </g>
  <g
     clip-path="url(#clip-4)"
     id="g437">
    <g
       clip-path="url(#clip-5)"
       id="g435">
      <path
         fill-rule="nonzero"
         fill="url(#linear-pattern-2)"
         d="M 55.839844 92.722656 L 32.097656 116.46875 L 55.839844 140.210938 L 79.582031 116.46875 Z M 55.839844 92.722656 "
         id="path433" />
    </g>
  </g>
  <path
     fill-rule="nonzero"
     fill="rgb(100%, 100%, 100%)"
     fill-opacity="1"
     d="M 99.382812 107.910156 C 98.78125 107.375 97.984375 107.03125 97.105469 107.03125 C 95.128906 107.03125 93.601562 108.664062 93.601562 110.671875 C 93.601562 112.675781 95.128906 114.296875 97.105469 114.296875 C 98.808594 114.296875 100.042969 113.304688 100.125 111.738281 L 97.433594 111.738281 L 97.433594 110.628906 L 101.582031 110.628906 C 101.582031 113.953125 99.808594 115.515625 97.105469 115.515625 C 94.414062 115.515625 92.324219 113.347656 92.324219 110.671875 C 92.324219 107.976562 94.414062 105.808594 97.105469 105.808594 C 98.355469 105.808594 99.480469 106.289062 100.304688 107.058594 Z M 99.382812 107.910156 "
     id="path439" />
  <path
     fill-rule="nonzero"
     fill="rgb(100%, 100%, 100%)"
     fill-opacity="1"
     d="M 108.929688 105.917969 L 108.929688 107.113281 L 104.605469 107.113281 L 104.605469 110.132812 L 108.382812 110.132812 L 108.382812 111.328125 L 104.605469 111.328125 L 104.605469 114.1875 L 109.066406 114.1875 L 109.066406 115.378906 L 103.328125 115.378906 L 103.328125 105.917969 Z M 108.929688 105.917969 "
     id="path441" />
  <path
     fill-rule="nonzero"
     fill="rgb(100%, 100%, 100%)"
     fill-opacity="1"
     d="M 117.210938 105.917969 L 117.210938 107.125 L 114.34375 107.125 L 114.34375 115.378906 L 113.050781 115.378906 L 113.050781 107.125 L 110.179688 107.125 L 110.179688 105.917969 Z M 117.210938 105.917969 "
     id="path443" />
  <path
     fill-rule="nonzero"
     fill="rgb(100%, 100%, 100%)"
     fill-opacity="1"
     d="M 123.339844 115.378906 L 122.0625 115.378906 L 122.0625 105.917969 L 123.339844 105.917969 Z M 123.339844 115.378906 "
     id="path445" />
  <path
     fill-rule="nonzero"
     fill="rgb(100%, 100%, 100%)"
     fill-opacity="1"
     d="M 132.046875 105.917969 L 132.046875 107.125 L 129.175781 107.125 L 129.175781 115.378906 L 127.886719 115.378906 L 127.886719 107.125 L 125.015625 107.125 L 125.015625 105.917969 Z M 132.046875 105.917969 "
     id="path447" />
  <path
     fill-rule="nonzero"
     fill="rgb(100%, 100%, 100%)"
     fill-opacity="1"
     d="M 141.058594 114.28125 C 143.046875 114.28125 144.574219 112.675781 144.574219 110.671875 C 144.574219 108.664062 143.046875 107.042969 141.058594 107.042969 C 139.078125 107.042969 137.554688 108.664062 137.554688 110.671875 C 137.554688 112.675781 139.078125 114.28125 141.058594 114.28125 M 141.058594 105.808594 C 143.761719 105.808594 145.863281 107.976562 145.863281 110.671875 C 145.863281 113.347656 143.761719 115.515625 141.058594 115.515625 C 138.367188 115.515625 136.277344 113.347656 136.277344 110.671875 C 136.277344 107.976562 138.367188 105.808594 141.058594 105.808594 "
     id="path449" />
  <path
     fill-rule="nonzero"
     fill="rgb(100%, 100%, 100%)"
     fill-opacity="1"
     d="M 153.417969 115.378906 L 149.105469 108.253906 L 149.105469 115.378906 L 147.828125 115.378906 L 147.828125 105.917969 L 149.09375 105.917969 L 153.363281 112.988281 L 153.363281 105.917969 L 154.640625 105.917969 L 154.640625 115.378906 Z M 153.417969 115.378906 "
     id="path451" />
  <path
     fill-rule="nonzero"
     fill="rgb(5.239868%, 5.072021%, 4.968262%)"
     fill-opacity="1"
     d="M 234.886719 81.042969 L 33.648438 81.042969 C 29.570312 81.042969 26.265625 77.738281 26.265625 73.660156 L 26.265625 25.988281 C 26.265625 21.910156 29.570312 18.605469 33.648438 18.605469 L 234.886719 18.605469 C 238.960938 18.605469 242.265625 21.910156 242.265625 25.988281 L 242.265625 73.660156 C 242.265625 77.738281 238.960938 81.042969 234.886719 81.042969 "
     id="path453" />
  <path
     fill-rule="nonzero"
     fill="rgb(65.492249%, 64.863586%, 65.019226%)"
     fill-opacity="1"
     d="M 33.648438 19.414062 C 30.023438 19.414062 27.074219 22.363281 27.074219 25.988281 L 27.074219 73.660156 C 27.074219 77.285156 30.023438 80.234375 33.648438 80.234375 L 234.882812 80.234375 C 238.507812 80.234375 241.460938 77.285156 241.460938 73.660156 L 241.460938 25.988281 C 241.460938 22.363281 238.507812 19.414062 234.882812 19.414062 Z M 234.882812 81.851562 L 33.648438 81.851562 C 29.132812 81.851562 25.460938 78.179688 25.460938 73.660156 L 25.460938 25.988281 C 25.460938 21.472656 29.132812 17.800781 33.648438 17.800781 L 234.882812 17.800781 C 239.402344 17.800781 243.074219 21.472656 243.074219 25.988281 L 243.074219 73.660156 C 243.074219 78.179688 239.402344 81.851562 234.882812 81.851562 "
     id="path455" />
  <path
     fill-rule="nonzero"
     fill="rgb(100%, 100%, 100%)"
     fill-opacity="1"
     d="M 100.921875 34.5625 L 100.09375 31.972656 C 99.890625 31.332031 99.71875 30.613281 99.5625 30.003906 L 99.53125 30.003906 C 99.375 30.613281 99.21875 31.347656 99.03125 31.972656 L 98.21875 34.5625 Z M 97.90625 36.015625 L 97.003906 38.996094 L 95.019531 38.996094 L 98.390625 28.472656 L 100.84375 28.472656 L 104.261719 38.996094 L 102.199219 38.996094 L 101.25 36.015625 Z M 97.90625 36.015625 "
     id="path457" />
  <path
     fill-rule="nonzero"
     fill="rgb(100%, 100%, 100%)"
     fill-opacity="1"
     d="M 107.128906 31.394531 L 108.363281 35.25 C 108.582031 35.917969 108.738281 36.527344 108.878906 37.152344 L 108.925781 37.152344 C 109.066406 36.527344 109.238281 35.933594 109.441406 35.25 L 110.65625 31.394531 L 112.671875 31.394531 L 109.769531 38.996094 L 107.878906 38.996094 L 105.054688 31.394531 Z M 107.128906 31.394531 "
     id="path459" />
  <path
     fill-rule="nonzero"
     fill="rgb(100%, 100%, 100%)"
     fill-opacity="1"
     d="M 118.460938 35.28125 C 117.101562 35.261719 115.808594 35.546875 115.808594 36.699219 C 115.808594 37.449219 116.289062 37.792969 116.898438 37.792969 C 117.679688 37.792969 118.226562 37.292969 118.414062 36.746094 C 118.460938 36.605469 118.460938 36.464844 118.460938 36.324219 Z M 120.332031 37.167969 C 120.332031 37.855469 120.363281 38.527344 120.457031 38.996094 L 118.726562 38.996094 L 118.585938 38.152344 L 118.539062 38.152344 C 118.085938 38.746094 117.289062 39.167969 116.289062 39.167969 C 114.761719 39.167969 113.902344 38.058594 113.902344 36.902344 C 113.902344 35 115.605469 34.015625 118.414062 34.03125 L 118.414062 33.90625 C 118.414062 33.40625 118.210938 32.578125 116.867188 32.578125 C 116.121094 32.578125 115.339844 32.8125 114.824219 33.140625 L 114.449219 31.894531 C 115.011719 31.550781 115.996094 31.222656 117.195312 31.222656 C 119.632812 31.222656 120.332031 32.765625 120.332031 34.4375 Z M 120.332031 37.167969 "
     id="path461" />
  <path
     fill-rule="nonzero"
     fill="rgb(100%, 100%, 100%)"
     fill-opacity="1"
     d="M 123.046875 31.394531 L 124.96875 31.394531 L 124.96875 38.996094 L 123.046875 38.996094 Z M 124 30.300781 C 123.359375 30.300781 122.9375 29.832031 122.9375 29.269531 C 122.9375 28.675781 123.375 28.222656 124.015625 28.222656 C 124.671875 28.222656 125.078125 28.675781 125.09375 29.269531 C 125.09375 29.832031 124.671875 30.300781 124.015625 30.300781 Z M 124 30.300781 "
     id="path463" />
  <path
     fill-rule="nonzero"
     fill="rgb(100%, 100%, 100%)"
     fill-opacity="1"
     d="M 127.730469 27.894531 L 129.648438 27.894531 L 129.648438 38.996094 L 127.730469 38.996094 Z M 127.730469 27.894531 "
     id="path465" />
  <path
     fill-rule="nonzero"
     fill="rgb(100%, 100%, 100%)"
     fill-opacity="1"
     d="M 136.453125 35.28125 C 135.097656 35.261719 133.800781 35.546875 133.800781 36.699219 C 133.800781 37.449219 134.285156 37.792969 134.894531 37.792969 C 135.675781 37.792969 136.222656 37.292969 136.40625 36.746094 C 136.453125 36.605469 136.453125 36.464844 136.453125 36.324219 Z M 138.328125 37.167969 C 138.328125 37.855469 138.359375 38.527344 138.453125 38.996094 L 136.71875 38.996094 L 136.578125 38.152344 L 136.53125 38.152344 C 136.082031 38.746094 135.285156 39.167969 134.285156 39.167969 C 132.753906 39.167969 131.894531 38.058594 131.894531 36.902344 C 131.894531 35 133.597656 34.015625 136.40625 34.03125 L 136.40625 33.90625 C 136.40625 33.40625 136.207031 32.578125 134.863281 32.578125 C 134.113281 32.578125 133.332031 32.8125 132.816406 33.140625 L 132.441406 31.894531 C 133.003906 31.550781 133.988281 31.222656 135.191406 31.222656 C 137.625 31.222656 138.328125 32.765625 138.328125 34.4375 Z M 138.328125 37.167969 "
     id="path467" />
  <path
     fill-rule="nonzero"
     fill="rgb(100%, 100%, 100%)"
     fill-opacity="1"
     d="M 142.960938 35.855469 C 142.960938 36.011719 142.976562 36.167969 143.007812 36.308594 C 143.210938 37.089844 143.882812 37.652344 144.710938 37.652344 C 145.910156 37.652344 146.644531 36.699219 146.644531 35.15625 C 146.644531 33.8125 146.007812 32.71875 144.726562 32.71875 C 143.945312 32.71875 143.226562 33.28125 143.023438 34.125 C 142.992188 34.265625 142.960938 34.4375 142.960938 34.625 Z M 141.042969 27.894531 L 142.960938 27.894531 L 142.960938 32.4375 L 142.992188 32.4375 C 143.460938 31.707031 144.289062 31.222656 145.429688 31.222656 C 147.285156 31.222656 148.613281 32.765625 148.597656 35.078125 C 148.597656 37.808594 146.863281 39.167969 145.148438 39.167969 C 144.164062 39.167969 143.289062 38.792969 142.742188 37.855469 L 142.710938 37.855469 L 142.617188 38.996094 L 140.980469 38.996094 C 141.011719 38.480469 141.042969 37.636719 141.042969 36.871094 Z M 141.042969 27.894531 "
     id="path469" />
  <path
     fill-rule="nonzero"
     fill="rgb(100%, 100%, 100%)"
     fill-opacity="1"
     d="M 150.855469 27.894531 L 152.777344 27.894531 L 152.777344 38.996094 L 150.855469 38.996094 Z M 150.855469 27.894531 "
     id="path471" />
  <path
     fill-rule="nonzero"
     fill="rgb(100%, 100%, 100%)"
     fill-opacity="1"
     d="M 160.253906 34.390625 C 160.269531 33.6875 159.957031 32.53125 158.675781 32.53125 C 157.488281 32.53125 156.992188 33.609375 156.914062 34.390625 Z M 156.914062 35.734375 C 156.960938 37.105469 158.035156 37.699219 159.253906 37.699219 C 160.144531 37.699219 160.769531 37.558594 161.359375 37.355469 L 161.644531 38.667969 C 160.988281 38.949219 160.082031 39.152344 158.988281 39.152344 C 156.523438 39.152344 155.070312 37.636719 155.070312 35.3125 C 155.070312 33.203125 156.351562 31.222656 158.785156 31.222656 C 161.25 31.222656 162.0625 33.25 162.0625 34.921875 C 162.0625 35.28125 162.03125 35.5625 162 35.734375 Z M 156.914062 35.734375 "
     id="path473" />
  <path
     fill-rule="nonzero"
     fill="rgb(100%, 100%, 100%)"
     fill-opacity="1"
     d="M 171.597656 37.777344 C 172.691406 37.777344 173.457031 36.714844 173.457031 35.171875 C 173.457031 33.984375 172.925781 32.609375 171.613281 32.609375 C 170.253906 32.609375 169.707031 33.9375 169.707031 35.203125 C 169.707031 36.667969 170.445312 37.777344 171.582031 37.777344 Z M 171.535156 39.167969 C 169.398438 39.167969 167.726562 37.699219 167.726562 35.25 C 167.726562 32.75 169.367188 31.222656 171.660156 31.222656 C 173.921875 31.222656 175.4375 32.8125 175.4375 35.125 C 175.4375 37.917969 173.472656 39.167969 171.550781 39.167969 Z M 171.535156 39.167969 "
     id="path475" />
  <path
     fill-rule="nonzero"
     fill="rgb(100%, 100%, 100%)"
     fill-opacity="1"
     d="M 177.699219 33.65625 C 177.699219 32.78125 177.667969 32.046875 177.636719 31.390625 L 179.304688 31.390625 L 179.398438 32.53125 L 179.445312 32.53125 C 179.792969 31.941406 180.617188 31.222656 181.882812 31.222656 C 183.210938 31.222656 184.582031 32.078125 184.582031 34.484375 L 184.582031 38.996094 L 182.664062 38.996094 L 182.664062 34.703125 C 182.664062 33.609375 182.257812 32.78125 181.210938 32.78125 C 180.445312 32.78125 179.917969 33.328125 179.714844 33.90625 C 179.648438 34.0625 179.621094 34.296875 179.621094 34.515625 L 179.621094 38.996094 L 177.699219 38.996094 Z M 177.699219 33.65625 "
     id="path477" />
  <path
     fill-rule="nonzero"
     fill="rgb(100%, 100%, 100%)"
     fill-opacity="1"
     d="M 193.429688 29.441406 L 193.429688 31.394531 L 195.253906 31.394531 L 195.253906 32.828125 L 193.429688 32.828125 L 193.429688 36.167969 C 193.429688 37.105469 193.679688 37.574219 194.414062 37.574219 C 194.753906 37.574219 194.945312 37.558594 195.160156 37.496094 L 195.195312 38.949219 C 194.910156 39.058594 194.398438 39.152344 193.804688 39.152344 C 193.085938 39.152344 192.507812 38.917969 192.148438 38.527344 C 191.726562 38.089844 191.539062 37.386719 191.539062 36.386719 L 191.539062 32.828125 L 190.464844 32.828125 L 190.464844 31.394531 L 191.539062 31.394531 L 191.539062 29.972656 Z M 193.429688 29.441406 "
     id="path479" />
  <path
     fill-rule="nonzero"
     fill="rgb(100%, 100%, 100%)"
     fill-opacity="1"
     d="M 197.394531 27.894531 L 199.3125 27.894531 L 199.3125 32.421875 L 199.34375 32.421875 C 199.578125 32.0625 199.90625 31.765625 200.296875 31.5625 C 200.6875 31.347656 201.140625 31.222656 201.625 31.222656 C 202.917969 31.222656 204.277344 32.082031 204.277344 34.515625 L 204.277344 38.996094 L 202.359375 38.996094 L 202.359375 34.71875 C 202.359375 33.625 201.953125 32.78125 200.890625 32.78125 C 200.140625 32.78125 199.609375 33.28125 199.390625 33.859375 C 199.328125 34.03125 199.3125 34.234375 199.3125 34.4375 L 199.3125 38.996094 L 197.394531 38.996094 Z M 197.394531 27.894531 "
     id="path481" />
  <path
     fill-rule="nonzero"
     fill="rgb(100%, 100%, 100%)"
     fill-opacity="1"
     d="M 211.703125 34.390625 C 211.71875 33.6875 211.40625 32.53125 210.128906 32.53125 C 208.941406 32.53125 208.441406 33.609375 208.363281 34.390625 Z M 208.363281 35.734375 C 208.410156 37.105469 209.488281 37.699219 210.707031 37.699219 C 211.59375 37.699219 212.21875 37.558594 212.8125 37.355469 L 213.09375 38.667969 C 212.4375 38.949219 211.53125 39.152344 210.441406 39.152344 C 207.972656 39.152344 206.519531 37.636719 206.519531 35.3125 C 206.519531 33.203125 207.800781 31.222656 210.238281 31.222656 C 212.703125 31.222656 213.515625 33.25 213.515625 34.921875 C 213.515625 35.28125 213.484375 35.5625 213.453125 35.734375 Z M 208.363281 35.734375 "
     id="path483" />
  <path
     fill-rule="nonzero"
     fill="rgb(100%, 100%, 100%)"
     fill-opacity="1"
     d="M 74.023438 49.199219 C 73.976562 43.992188 78.289062 41.460938 78.484375 41.34375 C 76.046875 37.78125 72.257812 37.292969 70.929688 37.257812 C 67.753906 36.921875 64.667969 39.160156 63.054688 39.160156 C 61.402344 39.160156 58.902344 37.289062 56.21875 37.34375 C 52.761719 37.398438 49.527344 39.402344 47.753906 42.507812 C 44.09375 48.847656 46.824219 58.160156 50.328125 63.285156 C 52.085938 65.792969 54.136719 68.597656 56.820312 68.496094 C 59.441406 68.386719 60.421875 66.824219 63.59375 66.824219 C 66.734375 66.824219 67.65625 68.496094 70.390625 68.433594 C 73.210938 68.386719 74.980469 65.914062 76.675781 63.378906 C 78.703125 60.503906 79.519531 57.671875 79.550781 57.527344 C 79.484375 57.503906 74.078125 55.445312 74.023438 49.199219 "
     id="path485" />
  <path
     fill-rule="nonzero"
     fill="rgb(100%, 100%, 100%)"
     fill-opacity="1"
     d="M 68.851562 33.886719 C 70.265625 32.121094 71.234375 29.714844 70.960938 27.28125 C 68.917969 27.371094 66.363281 28.691406 64.894531 30.421875 C 63.589844 31.941406 62.425781 34.4375 62.726562 36.785156 C 65.023438 36.953125 67.378906 35.625 68.851562 33.886719 "
     id="path487" />
  <path
     fill-rule="nonzero"
     fill="rgb(100%, 100%, 100%)"
     fill-opacity="1"
     d="M 105.707031 59.140625 L 103.894531 53.542969 C 103.699219 52.972656 103.339844 51.625 102.8125 49.507812 L 102.75 49.507812 C 102.535156 50.417969 102.195312 51.765625 101.730469 53.542969 L 99.949219 59.140625 Z M 111.96875 68.082031 L 108.3125 68.082031 L 106.308594 61.785156 L 99.34375 61.785156 L 97.433594 68.082031 L 93.875 68.082031 L 100.777344 46.644531 L 105.035156 46.644531 Z M 111.96875 68.082031 "
     id="path489" />
  <path
     fill-rule="nonzero"
     fill="rgb(100%, 100%, 100%)"
     fill-opacity="1"
     d="M 126.21875 60.289062 C 126.21875 58.78125 125.878906 57.542969 125.203125 56.566406 C 124.457031 55.550781 123.460938 55.039062 122.214844 55.039062 C 121.363281 55.039062 120.59375 55.324219 119.90625 55.882812 C 119.21875 56.449219 118.765625 57.183594 118.554688 58.097656 C 118.449219 58.519531 118.398438 58.867188 118.398438 59.140625 L 118.398438 61.722656 C 118.398438 62.84375 118.742188 63.792969 119.425781 64.566406 C 120.117188 65.34375 121.015625 65.726562 122.117188 65.726562 C 123.410156 65.726562 124.417969 65.230469 125.136719 64.234375 C 125.859375 63.234375 126.21875 61.921875 126.21875 60.289062 M 129.71875 60.160156 C 129.71875 62.789062 129.007812 64.871094 127.585938 66.394531 C 126.316406 67.753906 124.734375 68.429688 122.851562 68.429688 C 120.8125 68.429688 119.347656 67.695312 118.457031 66.234375 L 118.398438 66.234375 L 118.398438 74.378906 L 114.960938 74.378906 L 114.960938 57.710938 C 114.960938 56.058594 114.917969 54.363281 114.832031 52.625 L 117.855469 52.625 L 118.046875 55.074219 L 118.109375 55.074219 C 119.253906 53.226562 120.996094 52.304688 123.324219 52.304688 C 125.148438 52.304688 126.671875 53.027344 127.890625 54.46875 C 129.109375 55.914062 129.71875 57.808594 129.71875 60.160156 "
     id="path491" />
  <path
     fill-rule="nonzero"
     fill="rgb(100%, 100%, 100%)"
     fill-opacity="1"
     d="M 144 60.289062 C 144 58.78125 143.660156 57.542969 142.980469 56.566406 C 142.238281 55.550781 141.242188 55.039062 139.992188 55.039062 C 139.140625 55.039062 138.371094 55.324219 137.6875 55.882812 C 136.996094 56.449219 136.546875 57.183594 136.335938 58.097656 C 136.226562 58.519531 136.175781 58.867188 136.175781 59.140625 L 136.175781 61.722656 C 136.175781 62.84375 136.519531 63.792969 137.207031 64.566406 C 137.894531 65.34375 138.789062 65.726562 139.898438 65.726562 C 141.1875 65.726562 142.199219 65.230469 142.917969 64.234375 C 143.636719 63.234375 144 61.921875 144 60.289062 M 147.496094 60.160156 C 147.496094 62.789062 146.785156 64.871094 145.363281 66.394531 C 144.09375 67.753906 142.515625 68.429688 140.625 68.429688 C 138.589844 68.429688 137.128906 67.695312 136.238281 66.234375 L 136.175781 66.234375 L 136.175781 74.378906 L 132.742188 74.378906 L 132.742188 57.710938 C 132.742188 56.058594 132.695312 54.363281 132.613281 52.625 L 135.632812 52.625 L 135.824219 55.074219 L 135.890625 55.074219 C 137.03125 53.226562 138.769531 52.304688 141.105469 52.304688 C 142.925781 52.304688 144.449219 53.027344 145.671875 54.46875 C 146.890625 55.914062 147.496094 57.808594 147.496094 60.160156 "
     id="path493" />
  <path
     fill-rule="nonzero"
     fill="rgb(100%, 100%, 100%)"
     fill-opacity="1"
     d="M 167.375 62.070312 C 167.375 63.894531 166.742188 65.375 165.46875 66.523438 C 164.074219 67.773438 162.128906 68.398438 159.632812 68.398438 C 157.328125 68.398438 155.476562 67.953125 154.074219 67.0625 L 154.871094 64.203125 C 156.382812 65.113281 158.035156 65.566406 159.839844 65.566406 C 161.132812 65.566406 162.140625 65.277344 162.863281 64.695312 C 163.582031 64.109375 163.941406 63.328125 163.941406 62.351562 C 163.941406 61.484375 163.644531 60.746094 163.050781 60.152344 C 162.460938 59.558594 161.46875 59.007812 160.089844 58.496094 C 156.335938 57.09375 154.464844 55.046875 154.464844 52.347656 C 154.464844 50.585938 155.117188 49.140625 156.433594 48.015625 C 157.746094 46.890625 159.496094 46.324219 161.683594 46.324219 C 163.636719 46.324219 165.257812 46.667969 166.546875 47.34375 L 165.691406 50.144531 C 164.480469 49.488281 163.113281 49.15625 161.585938 49.15625 C 160.378906 49.15625 159.433594 49.453125 158.757812 50.046875 C 158.1875 50.578125 157.898438 51.226562 157.898438 51.988281 C 157.898438 52.835938 158.226562 53.535156 158.882812 54.085938 C 159.453125 54.59375 160.492188 55.144531 162 55.742188 C 163.847656 56.484375 165.199219 57.351562 166.070312 58.347656 C 166.941406 59.347656 167.375 60.585938 167.375 62.070312 "
     id="path495" />
  <path
     fill-rule="nonzero"
     fill="rgb(100%, 100%, 100%)"
     fill-opacity="1"
     d="M 178.730469 55.199219 L 174.945312 55.199219 L 174.945312 62.707031 C 174.945312 64.613281 175.613281 65.570312 176.953125 65.570312 C 177.5625 65.570312 178.074219 65.515625 178.472656 65.410156 L 178.570312 68.015625 C 177.894531 68.273438 177 68.398438 175.898438 68.398438 C 174.542969 68.398438 173.480469 67.988281 172.71875 67.160156 C 171.957031 66.332031 171.574219 64.941406 171.574219 62.992188 L 171.574219 55.199219 L 169.316406 55.199219 L 169.316406 52.621094 L 171.574219 52.621094 L 171.574219 49.792969 L 174.945312 48.773438 L 174.945312 52.621094 L 178.730469 52.621094 Z M 178.730469 55.199219 "
     id="path497" />
  <path
     fill-rule="nonzero"
     fill="rgb(100%, 100%, 100%)"
     fill-opacity="1"
     d="M 192.246094 60.335938 C 192.246094 58.910156 191.941406 57.691406 191.324219 56.667969 C 190.605469 55.433594 189.574219 54.816406 188.242188 54.816406 C 186.859375 54.816406 185.8125 55.433594 185.09375 56.667969 C 184.476562 57.691406 184.171875 58.933594 184.171875 60.402344 C 184.171875 61.828125 184.476562 63.046875 185.09375 64.066406 C 185.832031 65.300781 186.871094 65.917969 188.210938 65.917969 C 189.523438 65.917969 190.554688 65.292969 191.292969 64.035156 C 191.929688 62.996094 192.246094 61.761719 192.246094 60.335938 M 195.808594 60.226562 C 195.808594 62.601562 195.132812 64.550781 193.777344 66.078125 C 192.351562 67.648438 190.464844 68.429688 188.113281 68.429688 C 185.84375 68.429688 184.039062 67.679688 182.691406 66.171875 C 181.34375 64.667969 180.671875 62.769531 180.671875 60.480469 C 180.671875 58.082031 181.363281 56.121094 182.753906 54.597656 C 184.140625 53.066406 186.011719 52.304688 188.367188 52.304688 C 190.636719 52.304688 192.460938 53.058594 193.839844 54.5625 C 195.15625 56.03125 195.808594 57.914062 195.808594 60.226562 "
     id="path499" />
  <path
     fill-rule="nonzero"
     fill="rgb(100%, 100%, 100%)"
     fill-opacity="1"
     d="M 206.972656 55.644531 C 206.632812 55.582031 206.273438 55.550781 205.894531 55.550781 C 204.6875 55.550781 203.75 56.007812 203.089844 56.917969 C 202.523438 57.726562 202.234375 58.742188 202.234375 59.972656 L 202.234375 68.082031 L 198.800781 68.082031 L 198.832031 57.492188 C 198.832031 55.710938 198.785156 54.085938 198.703125 52.625 L 201.695312 52.625 L 201.824219 55.582031 L 201.914062 55.582031 C 202.277344 54.566406 202.851562 53.746094 203.632812 53.132812 C 204.394531 52.582031 205.226562 52.304688 206.117188 52.304688 C 206.433594 52.304688 206.71875 52.328125 206.972656 52.367188 Z M 206.972656 55.644531 "
     id="path501" />
  <path
     fill-rule="nonzero"
     fill="rgb(100%, 100%, 100%)"
     fill-opacity="1"
     d="M 219.058594 58.730469 C 219.082031 57.714844 218.859375 56.832031 218.394531 56.089844 C 217.796875 55.136719 216.882812 54.660156 215.65625 54.660156 C 214.535156 54.660156 213.621094 55.125 212.921875 56.058594 C 212.347656 56.800781 212.007812 57.691406 211.90625 58.730469 Z M 222.332031 59.621094 C 222.332031 60.238281 222.292969 60.753906 222.207031 61.179688 L 211.90625 61.179688 C 211.945312 62.707031 212.445312 63.875 213.398438 64.679688 C 214.265625 65.402344 215.394531 65.757812 216.773438 65.757812 C 218.292969 65.757812 219.683594 65.515625 220.9375 65.027344 L 221.476562 67.414062 C 220.015625 68.050781 218.285156 68.371094 216.289062 68.371094 C 213.898438 68.371094 212.011719 67.664062 210.648438 66.253906 C 209.28125 64.84375 208.59375 62.949219 208.59375 60.574219 C 208.59375 58.246094 209.230469 56.300781 210.503906 54.753906 C 211.835938 53.097656 213.644531 52.273438 215.910156 52.273438 C 218.136719 52.273438 219.824219 53.097656 220.972656 54.753906 C 221.878906 56.066406 222.332031 57.691406 222.332031 59.621094 "
     id="path503" />
</svg>
