<?xml version="1.0" encoding="UTF-8" standalone="no"?>
<!-- Created with Inkscape (http://www.inkscape.org/) -->

<svg
   id="svg2"
   sodipodi:docname="arrow.svg"
   viewBox="0 0 60.969384 22.999973"
   version="1.1"
   inkscape:version="1.2.2 (b0a8486541, 2022-12-01)"
   width="60.969383"
   height="22.999973"
   xmlns:inkscape="http://www.inkscape.org/namespaces/inkscape"
   xmlns:sodipodi="http://sodipodi.sourceforge.net/DTD/sodipodi-0.dtd"
   xmlns="http://www.w3.org/2000/svg"
   xmlns:svg="http://www.w3.org/2000/svg"
   xmlns:rdf="http://www.w3.org/1999/02/22-rdf-syntax-ns#"
   xmlns:cc="http://creativecommons.org/ns#"
   xmlns:dc="http://purl.org/dc/elements/1.1/"
   xmlns:ns1="http://www.iki.fi/pav/software/textext/">
  <defs
     id="defs2473" />
  <sodipodi:namedview
     id="base"
     bordercolor="#666666"
     inkscape:pageshadow="2"
     inkscape:window-y="0"
     fit-margin-left="0"
     pagecolor="#ffffff"
     inkscape:window-height="880"
     inkscape:window-maximized="1"
     inkscape:zoom="11.2"
     inkscape:window-x="0"
     showgrid="false"
     borderopacity="1.0"
     inkscape:current-layer="layer1"
     inkscape:cx="24.285714"
     inkscape:cy="9.3303572"
     fit-margin-top="0"
     fit-margin-right="0"
     fit-margin-bottom="0"
     inkscape:window-width="1474"
     inkscape:pageopacity="0.0"
     inkscape:document-units="px"
     inkscape:showpageshadow="2"
     inkscape:pagecheckerboard="0"
     inkscape:deskcolor="#d1d1d1" />
  <g
     id="layer1"
     inkscape:label="Layer 1"
     inkscape:groupmode="layer"
     transform="translate(-11.6612, -592.41)">
    <path
       id="rect2985"
       style="fill:#000000;fill-opacity:1;stroke:#000000;stroke-linejoin:round;stroke-opacity:1"
       d="m 40.836,592.91 v 12.75 h -5.4375 l 4,4.625 4,4.625 4,-4.625 4,-4.625 h -5.0938 v -12.75 h -5.4688 z"
       inkscape:export-ydpi="90"
       inkscape:export-filename="C:\Users\Joshua\Documents\Visual Studio 2010\Projects\Three on Three Round Robin Scheduler\arrowdown.png"
       inkscape:connector-curvature="0"
       inkscape:export-xdpi="90"
       sodipodi:nodetypes="ccccccccccc" />
    <g
       transform="matrix(0.59207533,0,0,0.59207533,48.687183,610.80267)"
       ns1:version="1.8.2"
       ns1:texconverter="pdflatex"
       ns1:pdfconverter="inkscape"
       ns1:text="$\\mbox{Oct. 2024}$"
       ns1:preamble="/home/jsalmon/Documents/OrganizationFiles/inkscape/packages_for_inskcape_beamer.tex"
       ns1:scale="1.0"
       ns1:alignment="middle center"
       ns1:stroke-to-path="0"
       ns1:inkscapeversion="1.2.2"
       ns1:jacobian_sqrt="1.33333"
       id="g4906">
      <defs
         id="id-6509772b-0e6b-4f8f-8d02-20dfd2fa763e">
        <g
           id="id-c5485c2c-3c2e-4eed-9182-8d5195825665">
          <g
             id="id-c6dfd1e7-5b83-466f-932f-8a6fb1b6f455">
            <path
               d="m 3.390625,-6.765625 c -1.921875,0 -3,1.234375 -3,3.46875 0,2.15625 1.03125,3.375 2.84375,3.375 1.921875,0 3.015625,-1.28125 3.015625,-3.5625 0,-2.109375 -1.015625,-3.28125 -2.859375,-3.28125 z m -0.046875,0.6875 c 1.359375,0 2.046875,0.875 2.046875,2.75 0,1.859375 -0.703125,2.75 -2.09375,2.75 -1.359375,0 -2.046875,-0.890625 -2.046875,-2.8125 0,-1.8125 0.703125,-2.6875 2.09375,-2.6875 z m 0,0"
               id="id-612e47d2-eedb-498e-adca-2623eca2b6f3" />
          </g>
          <g
             id="id-5834f729-d3df-4c1e-ae69-56ed7d39e265">
            <path
               d="m 2.5625,-4.875 c -1.3125,0 -2.125,0.96875 -2.125,2.515625 0,1.515625 0.78125,2.4375 2.046875,2.4375 0.4375,0 0.90625,-0.109375 1.265625,-0.265625 L 3.84375,-0.890625 3.75,-0.9375 c -0.359375,0.21875 -0.796875,0.359375 -1.171875,0.359375 -0.859375,0 -1.359375,-0.703125 -1.359375,-1.828125 0,-1.125 0.5,-1.78125 1.3125,-1.78125 0.390625,0 0.765625,0.15625 1.078125,0.34375 L 3.703125,-3.875 3.84375,-4.59375 C 3.5,-4.75 3,-4.875 2.5625,-4.875 Z m 0,0"
               id="id-ea8071d2-c34d-4cee-afbe-a75f23aa635d" />
          </g>
          <g
             id="id-1e6865fd-890c-4266-93dc-f3f0e06ba571">
            <path
               d="m 2.34375,-0.640625 c -0.46875,0 -0.671875,-0.1875 -0.65625,-0.75 L 1.734375,-4.21875 h 1.40625 l 0.0625,-0.5 -0.046875,-0.0625 H 1.734375 L 1.75,-5.796875 l -0.078125,-0.0625 -0.71875,0.3125 V -4.78125 H 0.3125 l -0.046875,0.5 0.03125,0.0625 H 0.96875 v 2.15625 l -0.03125,0.75 c 0,0.828125 0.328125,1.21875 1.125,1.375 0.359375,-0.03125 0.65625,-0.125 1.046875,-0.296875 L 3.1875,-0.78125 3.09375,-0.84375 c -0.296875,0.15625 -0.53125,0.203125 -0.75,0.203125 z m 0,0"
               id="id-da42cbaa-6e6d-4852-b555-752a43af699a" />
          </g>
          <g
             id="id-d890bacd-9258-421d-bd40-1f6725c39eed">
            <path
               d="m 1.21875,-0.921875 c -0.3125,0 -0.5,0.203125 -0.5,0.5 0,0.296875 0.171875,0.46875 0.46875,0.46875 0.296875,0 0.484375,-0.1875 0.484375,-0.5 0,-0.28125 -0.171875,-0.46875 -0.453125,-0.46875 z m 0,0"
               id="id-abc48e46-6b8d-410b-8b9e-356977d82d4a" />
          </g>
          <g
             id="id-a30bad54-3d03-4272-a0d2-66d40d2a9c14">
            <path
               d="m 2.40625,-5.25 c -0.65625,0 -1.296875,0.3125 -1.828125,0.78125 l 0.125,0.640625 H 0.8125 c 0.40625,-0.4375 0.921875,-0.703125 1.421875,-0.703125 0.515625,0 0.796875,0.28125 0.796875,0.640625 0,0.4375 -0.375,0.96875 -1.09375,1.765625 l -1.453125,1.578125 v 0.53125 l 0.0625,0.03125 L 0.9375,0 h 2.328125 l 1.078125,0.046875 0.109375,-0.703125 -0.0625,-0.046875 -0.875,0.0625 h -1.9375 L 1.5625,-0.6875 2.609375,-1.890625 c 0.84375,-0.96875 1.234375,-1.625 1.234375,-2.203125 0,-0.6875 -0.609375,-1.15625 -1.4375,-1.15625 z m 0,0"
               id="id-453c2e90-45a8-4779-a467-58fd5716d8d9" />
          </g>
          <g
             id="id-a6c68356-6f22-43f1-a3c7-342054d76d4d">
            <path
               d="m 2.828125,-5.265625 c -1.5,0 -2.34375,0.984375 -2.34375,2.734375 0,1.65625 0.8125,2.609375 2.234375,2.609375 1.484375,0 2.3125,-0.984375 2.3125,-2.71875 0,-1.6875 -0.796875,-2.625 -2.203125,-2.625 z M 2.75,-4.5 c 1.0625,0 1.625,0.65625 1.625,1.953125 0,1.234375 -0.546875,1.890625 -1.609375,1.890625 C 1.6875,-0.65625 1.15625,-1.3125 1.15625,-2.59375 1.15625,-3.859375 1.6875,-4.5 2.75,-4.5 Z m 0,0"
               id="id-9188690a-bf31-4d01-b75d-4b99a5d3209e" />
          </g>
          <g
             id="id-bc3035ff-ee71-4226-8283-d4ede6717233">
            <path
               d="M 4.640625,-0.78125 4.6875,-1.375 4.625,-1.453125 H 3.640625 l 0.03125,-3.75 H 2.90625 l -2.625,3.796875 V -0.875 L 0.328125,-0.78125 1.03125,-0.8125 h 1.953125 l -0.03125,1.765625 0.0625,0.0625 0.625,-0.046875 L 3.6875,0.90625 3.65625,-0.8125 h 0.015625 z m -3.625,-0.671875 1.90625,-2.75 h 0.0625 v 2.75 z m 0,0"
               id="id-61d1a466-fbbd-4c80-8753-89d41f663c1f" />
          </g>
        </g>
      </defs>
      <g
         fill="#000000"
         fill-opacity="1"
         id="id-fb010d3e-e956-489f-a94c-fb3da57b1a04"
         transform="translate(-149.103,-127.999)">
        <g
           transform="translate(148.712,134.765)"
           id="g6506">
          <path
             d="m 3.390625,-6.765625 c -1.921875,0 -3,1.234375 -3,3.46875 0,2.15625 1.03125,3.375 2.84375,3.375 1.921875,0 3.015625,-1.28125 3.015625,-3.5625 0,-2.109375 -1.015625,-3.28125 -2.859375,-3.28125 z m -0.046875,0.6875 c 1.359375,0 2.046875,0.875 2.046875,2.75 0,1.859375 -0.703125,2.75 -2.09375,2.75 -1.359375,0 -2.046875,-0.890625 -2.046875,-2.8125 0,-1.8125 0.703125,-2.6875 2.09375,-2.6875 z m 0,0"
             id="id-299e7f5e-8841-47dc-8b48-f143c8014e98" />
        </g>
        <g
           transform="translate(155.355,134.765)"
           id="g6509">
          <path
             d="m 2.5625,-4.875 c -1.3125,0 -2.125,0.96875 -2.125,2.515625 0,1.515625 0.78125,2.4375 2.046875,2.4375 0.4375,0 0.90625,-0.109375 1.265625,-0.265625 L 3.84375,-0.890625 3.75,-0.9375 c -0.359375,0.21875 -0.796875,0.359375 -1.171875,0.359375 -0.859375,0 -1.359375,-0.703125 -1.359375,-1.828125 0,-1.125 0.5,-1.78125 1.3125,-1.78125 0.390625,0 0.765625,0.15625 1.078125,0.34375 L 3.703125,-3.875 3.84375,-4.59375 C 3.5,-4.75 3,-4.875 2.5625,-4.875 Z m 0,0"
             id="id-8d105ab6-e93c-4f1e-a0be-20040447906f" />
        </g>
        <g
           transform="translate(159.382,134.765)"
           id="g6512">
          <path
             d="m 2.34375,-0.640625 c -0.46875,0 -0.671875,-0.1875 -0.65625,-0.75 L 1.734375,-4.21875 h 1.40625 l 0.0625,-0.5 -0.046875,-0.0625 H 1.734375 L 1.75,-5.796875 l -0.078125,-0.0625 -0.71875,0.3125 V -4.78125 H 0.3125 l -0.046875,0.5 0.03125,0.0625 H 0.96875 v 2.15625 l -0.03125,0.75 c 0,0.828125 0.328125,1.21875 1.125,1.375 0.359375,-0.03125 0.65625,-0.125 1.046875,-0.296875 L 3.1875,-0.78125 3.09375,-0.84375 c -0.296875,0.15625 -0.53125,0.203125 -0.75,0.203125 z m 0,0"
             id="id-ad504b7c-5f7c-4f4a-8c16-1af9636c60db" />
        </g>
      </g>
      <g
         fill="#000000"
         fill-opacity="1"
         id="id-1e066be6-cd2e-461e-abcf-3ca4262ad939"
         transform="translate(-149.103,-127.999)">
        <g
           transform="translate(162.395,134.765)"
           id="g6516">
          <path
             d="m 1.21875,-0.921875 c -0.3125,0 -0.5,0.203125 -0.5,0.5 0,0.296875 0.171875,0.46875 0.46875,0.46875 0.296875,0 0.484375,-0.1875 0.484375,-0.5 0,-0.28125 -0.171875,-0.46875 -0.453125,-0.46875 z m 0,0"
             id="id-430d66e9-69a9-4355-85f4-3010e3359ef4" />
        </g>
      </g>
      <g
         fill="#000000"
         fill-opacity="1"
         id="id-d7c8c52c-4ccb-40b7-8f7f-47f49363c128"
         transform="translate(-149.103,-127.999)">
        <g
           transform="translate(166.809,134.765)"
           id="g6520">
          <path
             d="m 2.40625,-5.25 c -0.65625,0 -1.296875,0.3125 -1.828125,0.78125 l 0.125,0.640625 H 0.8125 c 0.40625,-0.4375 0.921875,-0.703125 1.421875,-0.703125 0.515625,0 0.796875,0.28125 0.796875,0.640625 0,0.4375 -0.375,0.96875 -1.09375,1.765625 l -1.453125,1.578125 v 0.53125 l 0.0625,0.03125 L 0.9375,0 h 2.328125 l 1.078125,0.046875 0.109375,-0.703125 -0.0625,-0.046875 -0.875,0.0625 h -1.9375 L 1.5625,-0.6875 2.609375,-1.890625 c 0.84375,-0.96875 1.234375,-1.625 1.234375,-2.203125 0,-0.6875 -0.609375,-1.15625 -1.4375,-1.15625 z m 0,0"
             id="id-089748ca-9ca8-45d4-ac1d-00beb267f14e" />
        </g>
        <g
           transform="translate(171.569,134.765)"
           id="g6523">
          <path
             d="m 2.828125,-5.265625 c -1.5,0 -2.34375,0.984375 -2.34375,2.734375 0,1.65625 0.8125,2.609375 2.234375,2.609375 1.484375,0 2.3125,-0.984375 2.3125,-2.71875 0,-1.6875 -0.796875,-2.625 -2.203125,-2.625 z M 2.75,-4.5 c 1.0625,0 1.625,0.65625 1.625,1.953125 0,1.234375 -0.546875,1.890625 -1.609375,1.890625 C 1.6875,-0.65625 1.15625,-1.3125 1.15625,-2.59375 1.15625,-3.859375 1.6875,-4.5 2.75,-4.5 Z m 0,0"
             id="id-f8549842-4aac-4958-9464-82e630246e00" />
        </g>
        <g
           transform="translate(177.092,134.765)"
           id="g6526">
          <path
             d="m 2.40625,-5.25 c -0.65625,0 -1.296875,0.3125 -1.828125,0.78125 l 0.125,0.640625 H 0.8125 c 0.40625,-0.4375 0.921875,-0.703125 1.421875,-0.703125 0.515625,0 0.796875,0.28125 0.796875,0.640625 0,0.4375 -0.375,0.96875 -1.09375,1.765625 l -1.453125,1.578125 v 0.53125 l 0.0625,0.03125 L 0.9375,0 h 2.328125 l 1.078125,0.046875 0.109375,-0.703125 -0.0625,-0.046875 -0.875,0.0625 h -1.9375 L 1.5625,-0.6875 2.609375,-1.890625 c 0.84375,-0.96875 1.234375,-1.625 1.234375,-2.203125 0,-0.6875 -0.609375,-1.15625 -1.4375,-1.15625 z m 0,0"
             id="id-56142f6e-4494-4956-89fd-859fa872a445" />
        </g>
        <g
           transform="translate(181.852,134.765)"
           id="g6529">
          <path
             d="M 4.640625,-0.78125 4.6875,-1.375 4.625,-1.453125 H 3.640625 l 0.03125,-3.75 H 2.90625 l -2.625,3.796875 V -0.875 L 0.328125,-0.78125 1.03125,-0.8125 h 1.953125 l -0.03125,1.765625 0.0625,0.0625 0.625,-0.046875 L 3.6875,0.90625 3.65625,-0.8125 h 0.015625 z m -3.625,-0.671875 1.90625,-2.75 h 0.0625 v 2.75 z m 0,0"
             id="id-40fc539a-612c-46c3-8b8d-5a0cb9f88eab" />
        </g>
      </g>
    </g>
  </g>
  <metadata
     id="metadata2470">
    <rdf:RDF>
      <cc:Work>
        <dc:format>image/svg+xml</dc:format>
        <dc:type
           rdf:resource="http://purl.org/dc/dcmitype/StillImage" />
        <cc:license
           rdf:resource="http://creativecommons.org/publicdomain/zero/1.0/" />
        <dc:publisher>
          <cc:Agent
             rdf:about="http://openclipart.org/">
            <dc:title>Openclipart</dc:title>
          </cc:Agent>
        </dc:publisher>
        <dc:date>2011-08-12T14:38:09</dc:date>
        <dc:description />
        <dc:source>https://openclipart.org/detail/154963/down-arrow-by-mightyman</dc:source>
        <dc:creator>
          <cc:Agent>
            <dc:title>mightyman</dc:title>
          </cc:Agent>
        </dc:creator>
        <dc:subject>
          <rdf:Bag>
            <rdf:li>arrow</rdf:li>
            <rdf:li>down</rdf:li>
            <rdf:li>down arrow</rdf:li>
            <rdf:li>down_arrow</rdf:li>
            <rdf:li>icon</rdf:li>
          </rdf:Bag>
        </dc:subject>
      </cc:Work>
      <cc:License
         rdf:about="http://creativecommons.org/publicdomain/zero/1.0/">
        <cc:permits
           rdf:resource="http://creativecommons.org/ns#Reproduction" />
        <cc:permits
           rdf:resource="http://creativecommons.org/ns#Distribution" />
        <cc:permits
           rdf:resource="http://creativecommons.org/ns#DerivativeWorks" />
      </cc:License>
    </rdf:RDF>
  </metadata>
</svg>
