<?xml version="1.0" encoding="UTF-8" standalone="no"?>
<!-- Created with Inkscape (http://www.inkscape.org/) -->

<svg
   width="18.841503mm"
   height="18.841503mm"
   viewBox="0 0 18.841503 18.841503"
   version="1.1"
   id="svg177548"
   inkscape:version="1.2.2 (b0a8486541, 2022-12-01)"
   sodipodi:docname="image_smiley.svg"
   xmlns:inkscape="http://www.inkscape.org/namespaces/inkscape"
   xmlns:sodipodi="http://sodipodi.sourceforge.net/DTD/sodipodi-0.dtd"
   xmlns="http://www.w3.org/2000/svg"
   xmlns:svg="http://www.w3.org/2000/svg">
  <sodipodi:namedview
     id="namedview177550"
     pagecolor="#ffffff"
     bordercolor="#666666"
     borderopacity="1.0"
     inkscape:showpageshadow="2"
     inkscape:pageopacity="0.0"
     inkscape:pagecheckerboard="0"
     inkscape:deskcolor="#d1d1d1"
     inkscape:document-units="mm"
     showgrid="false"
     inkscape:zoom="5.7891898"
     inkscape:cx="-32.387952"
     inkscape:cy="69.785241"
     inkscape:window-width="3370"
     inkscape:window-height="1371"
     inkscape:window-x="70"
     inkscape:window-y="32"
     inkscape:window-maximized="1"
     inkscape:current-layer="layer1" />
  <defs
     id="defs177545" />
  <g
     inkscape:label="Layer 1"
     inkscape:groupmode="layer"
     id="layer1"
     transform="translate(-48.469079,-106.35891)">
    <g
       id="g170244"
       transform="translate(-19.528892,77.286639)" />
    <g
       id="g182364">
      <g
         id="g116308"
         transform="matrix(0.37683009,0,0,0.37683009,44.323948,102.21378)">
        <g
           id="color">
          <rect
             x="12"
             y="12"
             width="48"
             height="48"
             fill="#a57939"
             stroke="none"
             stroke-linecap="round"
             stroke-linejoin="round"
             stroke-miterlimit="10"
             stroke-width="2"
             id="rect116266" />
          <rect
             x="18"
             y="18"
             width="36"
             height="36"
             fill="#92d3f5"
             stroke="none"
             stroke-linecap="round"
             stroke-linejoin="round"
             stroke-miterlimit="10"
             stroke-width="2"
             id="rect116268" />
        </g>
        <g
           id="hair" />
        <g
           id="skin" />
        <g
           id="skin-shadow" />
        <g
           id="line">
          <rect
             x="12"
             y="12"
             width="48"
             height="48"
             fill="none"
             stroke="#000000"
             stroke-linecap="round"
             stroke-linejoin="round"
             stroke-miterlimit="10"
             stroke-width="2"
             id="rect116278" />
          <rect
             x="18"
             y="18"
             width="36"
             height="36"
             fill="none"
             stroke="#000000"
             stroke-linecap="round"
             stroke-linejoin="round"
             stroke-miterlimit="10"
             stroke-width="2"
             id="rect116280" />
          <rect
             x="18"
             y="18"
             width="36"
             height="36"
             fill="none"
             stroke="#000000"
             stroke-linecap="round"
             stroke-linejoin="round"
             stroke-miterlimit="10"
             stroke-width="2"
             id="rect116284" />
        </g>
      </g>
      <circle
         style="fill:#f77ac7;fill-opacity:1;stroke:none;stroke-width:0.5;stroke-linecap:round;stroke-linejoin:round;stroke-dasharray:none;stroke-opacity:1;paint-order:markers stroke fill;stop-color:#000000"
         id="path167757"
         cx="79.889465"
         cy="37.420883"
         r="1.0391021"
         transform="translate(-19.528893,77.286639)" />
      <path
         style="fill:#0f942a;fill-opacity:1;stroke-width:0.0073428"
         d="m 80.779035,43.204479 c -0.04423,-0.0147 -0.09259,-0.06242 -0.11327,-0.111782 -0.01611,-0.03845 -0.01686,-0.04757 -0.0164,-0.196645 9.75e-4,-0.276389 0.04878,-0.659676 0.127586,-1.020552 0.01771,-0.08108 0.03113,-0.148254 0.02983,-0.14926 -0.266676,-0.207648 -0.351557,-0.337397 -0.395575,-0.604677 -0.01163,-0.07057 -0.01559,-0.133507 -0.01833,-0.292036 -0.0037,-0.212516 -3.27e-4,-0.244018 0.02526,-0.244018 0.01693,0 0.120556,0.07313 0.195391,0.137871 0.07531,0.06517 0.202116,0.203172 0.253966,0.276406 0.023,0.03251 0.05681,0.09033 0.07509,0.128488 l 0.03324,0.06938 0.08287,-0.172912 c 0.04558,-0.0951 0.101841,-0.216022 0.125034,-0.268715 0.03646,-0.08282 0.04093,-0.09765 0.03296,-0.109404 -0.0051,-0.0075 -0.02405,-0.03544 -0.04217,-0.06213 -0.116523,-0.171676 -0.175639,-0.428772 -0.175639,-0.763869 0,-0.08725 0.0045,-0.195775 0.01042,-0.250229 0.04225,-0.389593 0.1804,-0.712771 0.343928,-0.804589 0.05376,-0.03018 0.121094,-0.03032 0.174421,-3.26e-4 0.04824,0.02708 0.08722,0.06545 0.125035,0.123019 0.03981,0.06061 0.05391,0.09176 0.08466,0.187038 0.0439,0.136022 0.06588,0.281607 0.07865,0.521028 l 0.0048,0.09001 0.09635,-0.101792 c 0.165566,-0.174914 0.301379,-0.28557 0.440502,-0.358891 0.120225,-0.06337 0.167135,-0.07713 0.263915,-0.07746 0.07433,-1.3e-4 0.08847,0.002 0.114076,0.01656 0.138502,0.07989 0.148382,0.276937 0.02744,0.547426 -0.06282,0.140488 -0.154854,0.279712 -0.299959,0.453721 -0.03672,0.04404 -0.07276,0.08736 -0.08008,0.09628 l -0.0133,0.0162 0.03045,-0.0064 c 0.08057,-0.0168 0.283352,-0.0026 0.444727,0.03087 0.209556,0.04361 0.36193,0.140902 0.414443,0.264617 0.035,0.08244 0.009,0.170527 -0.07863,0.265774 -0.131281,0.142792 -0.344542,0.241267 -0.646517,0.298534 -0.08615,0.01633 -0.132996,0.02029 -0.278656,0.02343 -0.182556,0.004 -0.252628,-0.0013 -0.380677,-0.02898 -0.120026,-0.02587 -0.235377,-0.07509 -0.310368,-0.132369 -0.01751,-0.01336 -0.03537,-0.02663 -0.03971,-0.02944 -0.0087,-0.0057 -0.164369,0.337939 -0.215173,0.474906 -0.05837,0.157376 -0.145206,0.450526 -0.136293,0.46014 0.0047,0.005 0.02963,-0.0072 0.101534,-0.05004 0.09439,-0.05616 0.205638,-0.09767 0.335603,-0.125225 0.07831,-0.01659 0.344696,-0.01875 0.470191,-0.0038 0.142811,0.01702 0.394533,0.07928 0.453447,0.112136 0.01823,0.01016 0.0196,0.01333 0.01232,0.02833 -0.01372,0.02829 -0.238664,0.265082 -0.310208,0.326573 -0.21182,0.182057 -0.445145,0.316841 -0.605354,0.349688 -0.136604,0.028 -0.314331,0.02326 -0.463467,-0.01238 -0.04558,-0.01091 -0.08757,-0.01787 -0.09329,-0.01552 -0.01617,0.0067 -0.02479,0.0713 -0.03278,0.245481 -0.0081,0.177443 -0.0179,0.289828 -0.02901,0.334519 -0.01091,0.04385 -0.06589,0.09978 -0.112829,0.114815 -0.04521,0.01448 -0.07721,0.01454 -0.120427,1.31e-4 z m -1.923708,-0.0064 c -0.03712,-0.01431 -0.06683,-0.04192 -0.08288,-0.07705 -0.0168,-0.03674 -0.02401,-0.100778 -0.0435,-0.384787 -0.0082,-0.119366 -0.01666,-0.220131 -0.01882,-0.223928 -0.005,-0.0088 -0.04073,-0.0037 -0.147058,0.02091 -0.287158,0.06647 -0.550821,0.0033 -0.849098,-0.203328 -0.149567,-0.103622 -0.413897,-0.357804 -0.474069,-0.455868 -0.01846,-0.03009 -0.01888,-0.03257 -0.0071,-0.04188 0.02431,-0.01918 0.270195,-0.0813 0.4217,-0.106552 0.102553,-0.01709 0.330902,-0.02356 0.424235,-0.01202 0.168374,0.02084 0.289056,0.06122 0.425065,0.142233 0.04518,0.02692 0.08575,0.04892 0.09015,0.04892 0.01183,0 0.01,-0.01529 -0.01036,-0.08539 -0.114455,-0.394475 -0.289311,-0.822997 -0.343366,-0.841498 -0.0099,-0.0034 -0.02016,9.75e-4 -0.03312,0.01411 -0.04336,0.04389 -0.20905,0.114344 -0.324374,0.13794 -0.15076,0.03084 -0.46944,0.03532 -0.627155,0.0088 -0.212448,-0.03571 -0.437683,-0.122329 -0.565132,-0.217351 -0.06305,-0.047 -0.144948,-0.136486 -0.167792,-0.183321 -0.02411,-0.04941 -0.02418,-0.140874 -9.8e-5,-0.193517 0.04297,-0.09415 0.16887,-0.180037 0.331091,-0.225862 0.115247,-0.03254 0.295149,-0.05272 0.474713,-0.0532 l 0.0733,-2.62e-4 -0.08142,-0.09107 c -0.175604,-0.196439 -0.295941,-0.391939 -0.356984,-0.579971 -0.05436,-0.167443 -0.04747,-0.320251 0.01741,-0.386065 0.03621,-0.03672 0.09955,-0.06383 0.149202,-0.06384 0.06105,-7e-6 0.141304,0.01882 0.217122,0.05091 0.159742,0.06763 0.3007,0.17511 0.499746,0.381059 l 0.10832,0.112077 0.0053,-0.09855 c 0.01428,-0.262183 0.04011,-0.42251 0.08961,-0.556163 0.04538,-0.122528 0.124947,-0.232116 0.196524,-0.270668 0.06645,-0.0358 0.153667,-0.0178 0.228793,0.0472 0.125874,0.108915 0.258103,0.444714 0.28274,0.718039 0.01215,0.134911 0.0047,0.59287 -0.01091,0.668406 -0.0314,0.152041 -0.09795,0.321247 -0.157161,0.399496 -0.01869,0.0247 -0.03715,0.04969 -0.04105,0.05554 -0.0052,0.0079 0.02594,0.0812 0.120203,0.282571 0.07,0.149558 0.1307,0.27306 0.134895,0.274452 0.0042,0.0013 0.02329,-0.03094 0.04242,-0.07187 0.08492,-0.181582 0.271711,-0.388851 0.469878,-0.521407 0.03166,-0.02117 0.06169,-0.04021 0.06675,-0.04231 0.0067,-0.0029 0.0116,0.01412 0.01817,0.06341 0.0102,0.07635 6.5e-4,0.332134 -0.01804,0.473275 -0.03002,0.229228 -0.139773,0.421373 -0.314361,0.550338 -0.06248,0.04615 -0.09924,0.08443 -0.09924,0.103328 0,0.0055 0.0064,0.03247 0.01428,0.0599 0.02081,0.07272 0.05209,0.237556 0.08051,0.424546 0.04297,0.282652 0.04953,0.36242 0.04986,0.606232 2.61e-4,0.209971 -6.5e-4,0.222916 -0.01477,0.25628 -0.01653,0.03852 -0.0516,0.07159 -0.09274,0.08743 -0.03389,0.01304 -0.117837,0.01317 -0.15142,1.31e-4 z m 0.950556,-0.534267 c -0.06507,-0.02761 -0.07561,-0.05709 -0.08707,-0.243346 -0.0073,-0.118242 -0.01709,-0.675081 -0.02496,-2.227637 -0.0026,-0.524256 -0.0068,-0.990161 -0.0092,-1.035343 l -0.0044,-0.08215 -0.05657,0.04275 c -0.114301,0.08639 -0.18186,0.11357 -0.282822,0.113779 -0.06504,9.8e-5 -0.07454,-0.002 -0.11851,-0.02427 -0.0909,-0.04644 -0.155658,-0.147062 -0.19041,-0.295852 -0.02294,-0.09814 -0.02316,-0.314749 -6.5e-4,-0.426686 0.0085,-0.04175 0.01467,-0.07669 0.01378,-0.07764 -9.75e-4,-9.76e-4 -0.03179,0.0033 -0.06867,0.0091 -0.09057,0.01467 -0.384918,0.01493 -0.43553,3.26e-4 -0.104445,-0.02999 -0.213473,-0.122829 -0.24244,-0.206436 -0.04675,-0.13493 -0.01556,-0.285256 0.09065,-0.436918 0.05348,-0.07636 0.113243,-0.135561 0.216214,-0.214179 0.04278,-0.03267 0.07778,-0.06421 0.07778,-0.07011 0,-0.0059 -0.03006,-0.03313 -0.06677,-0.06052 -0.169001,-0.126027 -0.306797,-0.311641 -0.333209,-0.448846 -0.01346,-0.06995 -0.0056,-0.164796 0.01813,-0.21861 0.04036,-0.09153 0.143968,-0.172506 0.254561,-0.198967 0.07803,-0.01866 0.288082,-0.02307 0.376914,-0.0079 0.09995,0.01709 0.107421,0.01663 0.107421,-0.0062 0,-0.01023 -0.0054,-0.04197 -0.01196,-0.07053 -0.01748,-0.07584 -0.01751,-0.317624 -4.2e-5,-0.405194 0.03002,-0.150714 0.118003,-0.28275 0.206452,-0.309906 0.128266,-0.03939 0.26055,-0.0068 0.3863,0.09507 0.06292,0.05098 0.148826,0.15009 0.215051,0.248095 0.02989,0.04424 0.05796,0.07918 0.06236,0.07763 0.0044,-0.0016 0.02781,-0.03344 0.05201,-0.07087 0.121862,-0.188414 0.242018,-0.298782 0.376681,-0.345996 0.167138,-0.0586 0.312298,0.002 0.384261,0.160114 0.06861,0.150865 0.08331,0.361721 0.03987,0.572035 -0.008,0.03861 -0.01333,0.07147 -0.01189,0.07302 0.0013,0.0016 0.0183,-3.27e-4 0.03747,-0.0043 0.0686,-0.01401 0.246069,-0.02529 0.341,-0.02166 0.08591,0.0033 0.1032,0.0064 0.155844,0.02745 0.12463,0.04999 0.199971,0.128792 0.227137,0.237605 0.01947,0.07795 0.0038,0.198624 -0.03707,0.285988 -0.05205,0.111214 -0.16427,0.238206 -0.294568,0.333356 l -0.07955,0.05809 0.05264,0.03831 c 0.294381,0.214238 0.424528,0.46365 0.351618,0.67382 -0.03567,0.102802 -0.132905,0.182942 -0.266787,0.219871 -0.03995,0.01101 -0.0776,0.0148 -0.146336,0.01477 -0.09793,-8.5e-5 -0.236693,-0.01072 -0.300563,-0.023 -0.02107,-0.004 -0.03933,-0.0063 -0.04057,-0.0049 -0.0013,0.0013 0.0061,0.04508 0.01633,0.0972 0.03292,0.167874 0.02274,0.367059 -0.02581,0.505339 -0.03978,0.113286 -0.116807,0.190764 -0.213329,0.214591 -0.114828,0.02836 -0.243028,-0.01362 -0.373415,-0.122284 -0.02741,-0.02284 -0.05097,-0.04152 -0.05235,-0.04152 -0.0013,0 -0.0044,0.877607 -0.0067,1.950233 -0.0023,1.121128 -0.007,1.45124 -0.01081,1.492036 -0.0076,0.08104 -0.02369,0.114328 -0.07335,0.151467 -0.02584,0.01931 -0.03558,0.02179 -0.09312,0.02346 -0.05107,0.0016 -0.07184,-0.0013 -0.101204,-0.01382 z m 0.220779,-4.571373 c 0.256959,-0.06676 0.442041,-0.317398 0.441861,-0.598365 -1.3e-4,-0.293545 -0.18368,-0.542634 -0.450761,-0.611908 -0.0689,-0.01787 -0.187993,-0.01591 -0.259779,0.0042 -0.18681,0.0525 -0.341572,0.202142 -0.405207,0.391805 -0.05548,0.165368 -0.04477,0.324515 0.0335,0.497554 0.07149,0.158065 0.218521,0.280362 0.384114,0.319496 0.06761,0.01598 0.189028,0.01464 0.25627,-0.0029 z"
         id="path27500"
         sodipodi:nodetypes="cscscsssssscssssscscssscsscsssscssssssssssssssssssssssscccsssssssssssssssssscsscsssssscssssscsssssssscsscsscscccssscsccsccccsssssssssscsssssssssscssssscssssssssssssssscccsscssscc"
         transform="translate(-19.528893,77.286639)" />
      <path
         stroke="#bf9000"
         stroke-width="0.173719"
         stroke-linejoin="round"
         stroke-linecap="butt"
         d="m 71.100407,41.895102 c 0.623464,-0.356556 1.233035,-1.187314 2.489145,-1.065063 1.256109,0.122252 2.759812,2.567208 3.795869,2.872836 1.036054,0.30563 1.641137,-1.039063 2.420462,-1.039063 0.779326,0 1.506301,0.994129 1.882215,1.167307"
         fill-rule="evenodd"
         id="path26279"
         style="fill:none;stroke:#000000;stroke-width:0.4;stroke-linecap:round;stroke-dasharray:none;stroke-opacity:1"
         sodipodi:nodetypes="csssc"
         transform="translate(-19.528893,77.286639)" />
      <circle
         style="fill:#ffe900;fill-opacity:1;stroke:none;stroke-width:0.5;stroke-linecap:round;stroke-linejoin:round;stroke-dasharray:none;stroke-opacity:1;paint-order:markers stroke fill;stop-color:#000000"
         id="circle182310"
         cx="73.36219"
         cy="33.438118"
         r="1.0391021"
         transform="translate(-19.528893,77.286639)" />
      <path
         style="fill:#6a4c1c;stroke:#000000;stroke-width:0.0660212;stroke-linecap:round;stroke-linejoin:round;paint-order:markers stroke fill;stop-color:#000000;fill-opacity:1"
         d="m 22.551317,57.191237 c -2.360753,-0.07002 -3.844829,-0.189708 -5.018553,-0.404724 -2.937705,-0.538161 -4.743369,-2.378238 -5.247714,-5.347725 -0.09602,-0.565349 -0.159055,-1.53192 -0.128826,-1.975415 l 0.02469,-0.362187 0.352786,-0.224282 c 0.194033,-0.123356 0.676193,-0.467898 1.071466,-0.765651 0.395273,-0.297752 0.868031,-0.653645 1.050573,-0.790874 1.606872,-1.20799 2.899564,-1.821527 4.353832,-2.066412 0.539532,-0.09085 1.924319,-0.09048 2.353918,6.31e-4 1.143579,0.242538 2.420157,0.993662 4.022875,2.367017 0.801279,0.686608 1.507522,1.364271 3.453472,3.31372 2.449657,2.454063 3.12748,3.083222 4.157407,3.858933 1.373006,1.034107 2.381832,1.431599 3.633365,1.431599 0.832307,0 1.489395,-0.161773 2.323257,-0.571978 0.725194,-0.356747 1.273182,-0.73786 2.637683,-1.834447 1.192054,-0.957998 1.696899,-1.294709 2.288259,-1.526171 0.236485,-0.09256 0.339314,-0.111923 0.66747,-0.125672 0.785528,-0.03291 1.536978,0.22947 2.540763,0.887159 0.640125,0.419416 1.117057,0.804215 2.241877,1.808799 0.365083,0.326058 0.824351,0.72682 1.020594,0.890581 0.196244,0.163762 0.350648,0.303908 0.343119,0.311437 -0.02011,0.02011 -0.535456,0.05866 -2.86597,0.214377 -6.664273,0.445283 -12.264325,0.723457 -17.642781,0.876377 -1.701845,0.04839 -6.447494,0.07009 -7.633559,0.03491 z"
         id="path178081"
         transform="matrix(0.26458333,0,0,0.26458333,48.469079,106.35891)" />
    </g>
  </g>
</svg>
