<?xml version="1.0" encoding="utf-8"?>
<!-- Generator: Adobe Illustrator 26.5.0, SVG Export Plug-In . SVG Version: 6.00 Build 0)  -->
<svg version="1.1" id="Original" xmlns="http://www.w3.org/2000/svg" xmlns:xlink="http://www.w3.org/1999/xlink" x="0px" y="0px"
	 viewBox="0 0 194.173 70.867" enable-background="new 0 0 194.173 70.867" xml:space="preserve">
<g>
	<g>
		<path fill="#E7314B" d="M158.561,16.416h3.201V32.02h2.5V16.416h3.202v-2.2h-8.903V16.416z"/>
		<path fill="#E7314B" d="M156.561,14.215h-2.601V32.02h2.601V14.215z"/>
		<path fill="#E7314B" d="M151.359,18.617c-0.1-1.4-0.601-2.602-1.501-3.401c-0.899-0.8-2.1-1.2-3.601-1.2c-1.4,0-2.4,0.4-3.301,1.1
			c-0.7,0.801-1.101,1.802-1.2,3.201c0,0.9,0.2,1.801,0.6,2.401c0.301,0.7,0.801,1.3,1.301,1.7l3.201,2.601
			c0.5,0.301,0.9,0.801,1.3,1.2c0.301,0.5,0.601,1.201,0.601,1.901c0,1.3-0.601,1.9-1.9,2c-0.9-0.1-1.601-0.5-1.9-1.3
			c-0.4-0.7-0.601-1.601-0.601-2.601l-2.601,0.701c0.1,1.5,0.6,2.8,1.4,3.801c0.8,0.9,2.101,1.4,3.701,1.4
			c1.4,0,2.5-0.3,3.301-1.101c0.7-0.7,1.101-1.7,1.2-3.001c-0.1-1.2-0.4-2.101-0.9-2.9c-0.5-0.9-1-1.501-1.7-2.001l-3.101-2.501
			c-0.4-0.399-0.7-0.7-0.9-1.101c-0.301-0.399-0.4-0.899-0.4-1.5c0-1.3,0.601-1.9,1.9-1.9c0.9,0,1.501,0.3,1.9,0.9
			c0.301,0.6,0.601,1.4,0.601,2.2L151.359,18.617z"/>
		<path fill="#E7314B" d="M172.266,13.014h1.301l2.501-3.801h-2.501L172.266,13.014z"/>
		<path fill="#E7314B" d="M176.367,14.215h-7.002V32.02h7.002v-1.9h-4.401v-6.401h3.101v-1.901h-3.101v-5.701h4.401V14.215z"/>
		<path fill="#E7314B" d="M187.171,21.517c-0.5-0.4-1.301-0.7-2.401-0.7h-2.501V32.02h2.401c1.2,0,2.101-0.3,2.501-0.899
			c0.5-0.601,0.8-1.501,0.8-2.701v-4.401C187.971,22.818,187.671,22.017,187.171,21.517z M186.07,22.618c0.199,0.5,0.3,1,0.3,1.801
			v3.601c0,0.801-0.101,1.5-0.2,2.001c-0.2,0.5-0.6,0.7-1.4,0.8h-0.9v-8.803h0.801C185.47,22.017,185.97,22.217,186.07,22.618z"/>
		<path fill="#E7314B" d="M171.466,38.823h-2.901v17.605h2.901V38.823z"/>
		<path fill="#E7314B" d="M181.969,41.124v-2.301h-6.902v17.605h6.902v-2.201h-3.901v-5.802h3.102v-2.201h-3.102v-5.101H181.969z"/>
		<path fill="#E7314B" d="M152.359,38.823h-3.001v17.605h7.003v-2.201h-4.002V38.823z"/>
		<path fill="#E7314B" d="M161.963,38.823h-3.001v17.605h7.002v-2.201h-4.001V38.823z"/>
		<path fill="#E7314B" d="M184.769,56.428h3.001v-8.003h1.4l2.001,8.003h3.001l-2.302-8.603c0.701-0.4,1.302-0.9,1.601-1.602
			c0.301-0.8,0.4-1.7,0.4-2.7c0-1.801-0.5-3.001-1.3-3.701c-0.9-0.7-2.201-1-3.901-1h-3.901V56.428z M187.77,46.425v-5.402h1.101
			c0.8,0,1.4,0.2,1.7,0.7c0.4,0.4,0.5,1.1,0.5,2.001c0,0.9-0.2,1.601-0.6,2c-0.3,0.5-0.9,0.701-1.801,0.701H187.77z"/>
		<path fill="#E7314B" d="M194.173,22.017v-1.2h-4.402V32.02h4.402v-1.2h-2.802v-4.001h2.001v-1.2h-2.001v-3.602H194.173z"/>
		<path fill="#E7314B" d="M111.747,14.215h-2.601l3.802,17.805h2.601l3.801-17.805h-2.501l-2.601,14.004L111.747,14.215z"/>
		<path fill="#E7314B" d="M128.352,16.116v-1.9h-7.002V32.02h7.002v-1.9h-4.401v-6.401h3.101v-1.901h-3.101v-5.701H128.352z"/>
		<path fill="#E7314B" d="M133.754,14.215h-3.2V32.02h2.601v-8.302h1.9l2.501,8.302h2.601l-2.901-8.902
			c1.501-0.601,2.201-2.001,2.201-4.201c0-1.7-0.5-2.901-1.501-3.701C136.955,14.515,135.555,14.115,133.754,14.215z
			 M133.754,16.116c1.101,0,1.801,0.2,2.401,0.601c0.5,0.5,0.8,1.2,0.8,2.2c0,1.101-0.3,1.801-0.8,2.301
			c-0.601,0.4-1.301,0.6-2.401,0.6h-0.6v-5.701H133.754z"/>
		<path fill="#E7314B" d="M89.141,14.215H86.64v11.403c0,1.2-0.1,2.301-0.399,3.101c-0.301,0.9-1.001,1.301-2.201,1.4
			c-1.101-0.1-1.801-0.5-2.101-1.4c-0.3-0.8-0.5-1.9-0.4-3.101V14.215h-2.601v11.403c-0.1,2,0.301,3.601,1.101,4.802
			c0.7,1.1,2.101,1.7,4.001,1.8c2.001-0.1,3.201-0.7,4.001-1.8c0.801-1.201,1.101-2.802,1.101-4.802V14.215z"/>
		<path fill="#E7314B" d="M101.044,14.215h-2.5v11.003l-4.502-11.003h-1.9V32.02h2.601V20.117l4.502,11.903h1.8V14.215z"/>
		<path fill="#E7314B" d="M106.946,14.215h-2.602V32.02h2.602V14.215z"/>
		<path fill="#E7314B" d="M91.041,38.823H87.04l-2,11.804l-1.901-11.804h-4.201v17.605h2.601l0.101-12.404l2.101,12.404h2.701
			c0.3-1.901,0.6-4.001,1-6.202c0.3-2.101,0.7-4.201,1-6.202l0.101,12.404h2.5V38.823z"/>
		<path fill="#E7314B" d="M102.045,40.123c-0.801-1-2.001-1.5-3.701-1.5c-1.801,0-3.001,0.5-3.701,1.5
			c-0.801,1.001-1.101,2.4-1.101,4.201v6.603c0,1.801,0.3,3.2,1.101,4.201c0.7,1,1.9,1.5,3.701,1.601
			c1.7-0.101,2.9-0.601,3.701-1.601c0.7-1.001,1.1-2.4,1-4.201v-6.603C103.144,42.523,102.745,41.124,102.045,40.123z
			 M96.843,41.723c0.301-0.5,0.801-0.7,1.501-0.7c0.7,0,1.1,0.2,1.4,0.7c0.2,0.501,0.3,1.1,0.3,1.9v8.103
			c0,0.701-0.1,1.301-0.3,1.801c-0.301,0.5-0.7,0.801-1.4,0.801c-0.7,0-1.2-0.301-1.501-0.801c-0.2-0.5-0.3-1.1-0.2-1.801v-8.103
			C96.543,42.824,96.643,42.224,96.843,41.723z"/>
		<path fill="#E7314B" d="M106.246,38.823v17.605h2.601V45.925l4.001,10.503h2.001V38.823h-2.501v10.103l-4.001-10.103H106.246z"/>
		<path fill="#E7314B" d="M137.056,43.824c0-1.6-0.301-2.801-1.001-3.701c-0.601-0.8-1.7-1.3-3.201-1.3h-4.801v17.605h3.001v-7.803
			h1.601c1.4,0,2.4-0.3,3.2-1.101C136.655,46.825,137.056,45.524,137.056,43.824z M131.054,41.124h1.1c0.9,0,1.501,0.199,1.801,0.6
			c0.2,0.501,0.301,1.201,0.301,2.1c0,0.9-0.101,1.601-0.4,2.001c-0.301,0.399-0.9,0.601-1.701,0.5h-1.1V41.124z"/>
		<path fill="#E7314B" d="M142.757,41.124h3.901v-2.301h-6.902v17.605h6.902v-2.201h-3.901v-5.802h3.101v-2.201h-3.101V41.124z"/>
		<path fill="#E7314B" d="M125.552,41.223v-2.4h-8.202v2.4h2.601v15.205h3.101V41.223H125.552z"/>
	</g>
	<polygon fill="#E7314B" points="70.867,35.377 68.963,38.021 70.443,40.921 68.153,43.236 69.158,46.333 66.531,48.256 
		67.036,51.474 64.138,52.96 64.133,56.216 61.04,57.233 60.528,60.449 57.313,60.971 56.306,64.068 53.05,64.084 51.573,66.986 
		48.355,66.491 46.438,69.124 43.337,68.128 41.032,70.426 38.126,68.956 35.489,70.867 32.846,68.964 29.945,70.444 27.631,68.153 
		24.534,69.158 22.61,66.531 19.393,67.037 17.906,64.139 14.65,64.133 13.633,61.041 10.417,60.528 9.895,57.314 6.797,56.307 
		6.782,53.051 3.88,51.573 4.376,48.354 1.743,46.439 2.738,43.338 0.439,41.032 1.911,38.125 0,35.489 1.902,32.845 0.422,29.945 
		2.714,27.631 1.708,24.534 4.335,22.609 3.83,19.393 6.727,17.905 6.733,14.649 9.826,13.632 10.338,10.417 13.553,9.894 
		14.559,6.797 17.815,6.782 19.293,3.881 22.512,4.376 24.428,1.743 27.528,2.738 29.835,0.44 32.74,1.911 35.377,0 38.02,1.902 
		40.921,0.422 43.235,2.714 46.332,1.708 48.255,4.335 51.473,3.83 52.959,6.728 56.217,6.733 57.233,9.826 60.449,10.339 
		60.971,13.553 64.069,14.56 64.084,17.816 66.986,19.294 66.491,22.512 69.123,24.428 68.127,27.528 70.426,29.835 68.955,32.741 	
		"/>
	<g>
		<path fill="#FFFFFF" d="M52.001,45.277l-8.818-23.41c-0.348-0.92-1.23-1.53-2.214-1.53c-0.985,0-1.867,0.609-2.214,1.53
			l-3.43,9.073l-2.529,6.695l-0.182,0.477c0,0.001,0,0.002,0,0.002s-1.204,3.188-1.215,3.224c-1.105,3.411-3.596,4.325-5.444,3.727
			c-0.691-0.223-1.781-0.805-1.36-2.206L29.681,29.4l2.423,6.407l2.554-6.633l-2.761-7.308c-0.35-0.92-1.231-1.53-2.216-1.53
			c-0.984,0-1.866,0.609-2.214,1.53L20.142,41.25c-0.015,0.037-0.028,0.074-0.04,0.113c-1.145,3.565,0.706,7.016,4.4,8.208
			c3.694,1.189,8.492-0.318,10.811-5.271L40.969,29.4l6.604,17.551c0.357,0.948,1.258,1.532,2.215,1.532
			c0.277,0,0.561-0.05,0.836-0.154C51.847,47.867,52.463,46.5,52.001,45.277z"/>
	</g>
	<g>
		<path fill="#FFFFFF" stroke="#FFFFFF" stroke-width="0.085" stroke-miterlimit="10" d="M28.44,16.277l1.007,2.941
			c0.042-0.003,0.084-0.003,0.126-0.005L28.44,16.277z"/>
		<polygon fill="#FFFFFF" stroke="#FFFFFF" stroke-width="0.085" stroke-miterlimit="10" points="35.549,27.156 35.433,15.047 
			35.115,27.193 35.325,27.75 		"/>
		<polygon fill="#FFFFFF" stroke="#FFFFFF" stroke-width="0.085" stroke-miterlimit="10" points="51.084,22.343 46.086,26.375 
			46.182,26.629 		"/>
		<polygon fill="#FFFFFF" stroke="#FFFFFF" stroke-width="0.085" stroke-miterlimit="10" points="54.638,42.472 51.726,41.348 
			51.782,41.494 		"/>
		<polygon fill="#FFFFFF" stroke="#FFFFFF" stroke-width="0.085" stroke-miterlimit="10" points="14.998,35.482 21.069,35.605 
			21.163,35.358 		"/>
		<polygon fill="#FFFFFF" stroke="#FFFFFF" stroke-width="0.085" stroke-miterlimit="10" points="15.305,31.944 21.962,33.243 
			22.057,32.991 		"/>
		<polygon fill="#FFFFFF" stroke="#FFFFFF" stroke-width="0.085" stroke-miterlimit="10" points="15.305,39.019 20.058,38.283 
			20.135,38.077 		"/>
		<path fill="#FFFFFF" stroke="#FFFFFF" stroke-width="0.085" stroke-miterlimit="10" d="M16.227,42.472l2.648-0.906
			c0.01-0.043,0.02-0.084,0.031-0.128L16.227,42.472z"/>
		<polygon fill="#FFFFFF" stroke="#FFFFFF" stroke-width="0.085" stroke-miterlimit="10" points="54.638,28.49 47.769,30.843 
			47.868,31.103 		"/>
		<path fill="#FFFFFF" stroke="#FFFFFF" stroke-width="0.085" stroke-miterlimit="10" d="M42.423,16.276l-1.138,2.949
			c0.041,0.004,0.082,0.009,0.123,0.015L42.423,16.276z"/>
		<polygon fill="#FFFFFF" stroke="#FFFFFF" stroke-width="0.085" stroke-miterlimit="10" points="16.227,28.491 22.8,31.027 
			22.895,30.772 		"/>
		<path fill="#FFFFFF" stroke="#FFFFFF" stroke-width="0.085" stroke-miterlimit="10" d="M45.658,17.786l-1.793,2.965
			c0.029,0.043,0.056,0.087,0.082,0.13L45.658,17.786z"/>
		<polygon fill="#FFFFFF" stroke="#FFFFFF" stroke-width="0.085" stroke-miterlimit="10" points="48.573,19.831 45.113,23.788 
			45.197,24.014 		"/>
		<polygon fill="#FFFFFF" stroke="#FFFFFF" stroke-width="0.085" stroke-miterlimit="10" points="55.561,31.941 48.591,33.023 
			48.688,33.285 		"/>
		<polygon fill="#FFFFFF" stroke="#FFFFFF" stroke-width="0.085" stroke-miterlimit="10" points="55.561,39.019 50.476,38.027 
			50.556,38.244 		"/>
		<polygon fill="#FFFFFF" stroke="#FFFFFF" stroke-width="0.085" stroke-miterlimit="10" points="55.869,35.482 49.468,35.353 
			49.565,35.608 		"/>
		<polygon fill="#FFFFFF" stroke="#FFFFFF" stroke-width="0.085" stroke-miterlimit="10" points="53.128,25.256 46.951,28.671 
			47.05,28.933 		"/>
		<polygon fill="#FFFFFF" stroke="#FFFFFF" stroke-width="0.085" stroke-miterlimit="10" points="19.781,22.344 24.517,26.484 
			24.609,26.239 		"/>
		<path fill="#FFFFFF" stroke="#FFFFFF" stroke-width="0.085" stroke-miterlimit="10" d="M25.21,17.785l1.612,2.916
			c0.026-0.039,0.054-0.077,0.082-0.114L25.21,17.785z"/>
		<polygon fill="#FFFFFF" stroke="#FFFFFF" stroke-width="0.085" stroke-miterlimit="10" points="22.292,19.831 25.519,23.83 
			25.602,23.614 		"/>
		<path fill="#FFFFFF" stroke="#FFFFFF" stroke-width="0.085" stroke-miterlimit="10" d="M33.235,22.218l-1.339-6.865l0.893,5.756
			c0.061,0.116,0.116,0.235,0.163,0.359L33.235,22.218z"/>
		<polygon fill="#FFFFFF" stroke="#FFFFFF" stroke-width="0.085" stroke-miterlimit="10" points="17.737,25.257 23.633,28.82 
			23.729,28.569 		"/>
		<path fill="#FFFFFF" stroke="#FFFFFF" stroke-width="0.085" stroke-miterlimit="10" d="M37.631,22.218l1.339-6.865l-0.893,5.756
			c-0.06,0.116-0.115,0.235-0.162,0.359L37.631,22.218z"/>
	</g>
	<g>
		<path fill="#FFFFFF" stroke="#FFFFFF" stroke-width="0.085" stroke-miterlimit="10" d="M35.433,66.446
			c-17.101,0-31.013-13.912-31.013-31.012C4.42,18.333,18.332,4.42,35.433,4.42c17.102,0,31.013,13.912,31.013,31.014
			C66.446,52.534,52.535,66.446,35.433,66.446z M35.433,4.646c-16.976,0-30.788,13.811-30.788,30.788
			c0,16.976,13.812,30.786,30.788,30.786S66.22,52.41,66.22,35.434C66.22,18.457,52.409,4.646,35.433,4.646z"/>
	</g>
	<g>
		<path fill="#FFFFFF" stroke="#FFFFFF" stroke-width="0.085" stroke-miterlimit="10" d="M35.433,57.062
			c-11.926,0-21.63-9.703-21.63-21.628c0-11.927,9.704-21.63,21.63-21.63c11.927,0,21.63,9.703,21.63,21.63
			C57.063,47.359,47.36,57.062,35.433,57.062z M35.433,14.029c-11.802,0-21.404,9.602-21.404,21.405
			c0,11.802,9.602,21.403,21.404,21.403s21.404-9.601,21.404-21.403C56.837,23.631,47.235,14.029,35.433,14.029z"/>
	</g>
	<g>
		<path fill="#FFFFFF" d="M10.133,30.337c0,0.369-0.298,0.668-0.666,0.668c-0.368,0-0.665-0.299-0.665-0.668
			c0-0.367,0.297-0.666,0.665-0.666C9.835,29.671,10.133,29.97,10.133,30.337z"/>
		<path fill="#FFFFFF" d="M61.667,30.338c0,0.369-0.297,0.668-0.667,0.668c-0.367,0-0.665-0.299-0.665-0.668
			c0-0.367,0.297-0.666,0.664-0.666C61.369,29.672,61.667,29.971,61.667,30.338z"/>
		<g>
			<path fill="#FFFFFF" d="M11.967,37.012l0.113,1.031c0.115,1.055-0.341,1.461-1.32,1.568l-1.778,0.195
				c-1.026,0.113-1.62-0.184-1.729-1.18l-0.119-1.084L11.967,37.012z M7.731,38.527c0.079,0.721,0.521,0.684,1.303,0.598
				l1.569-0.173c0.746-0.082,1.048-0.187,0.974-0.866l-0.039-0.357L7.69,38.152L7.731,38.527z"/>
			<path fill="#FFFFFF" d="M13.714,44.682l0.752,1.691l-0.46,0.205l-0.481-1.082l-1.468,0.654l0.39,0.878l-0.438,0.195l-0.391-0.878
				L9.991,47.07l0.486,1.094l-0.444,0.197l-0.757-1.702L13.714,44.682z"/>
			<path fill="#FFFFFF" d="M17.346,50.85l0.785,0.887c0.566,0.64,0.409,1.212-0.224,1.773c-0.579,0.515-1.199,0.537-1.715-0.045
				l-0.348-0.393l-1.691,1.502l-0.441-0.499L17.346,50.85z M16.412,52.979c0.379,0.428,0.625,0.461,1.074,0.062
				c0.516-0.458,0.587-0.64,0.146-1.138l-0.207-0.233l-1.216,1.079L16.412,52.979z"/>
			<path fill="#FFFFFF" d="M21.347,58.699l1.598-2.794l0.552,0.316l-1.613,2.82c-0.312,0.547-0.493,1.017-0.007,1.295
				s0.799-0.115,1.111-0.662l1.613-2.82l0.547,0.313l-1.598,2.794c-0.506,0.885-1.039,1.354-1.938,0.838
				C20.707,60.281,20.841,59.584,21.347,58.699z"/>
			<path fill="#FFFFFF" d="M30.357,59.013l0.64,0.138l-1.026,4.746l-0.64-0.138L30.357,59.013z"/>
			<path fill="#FFFFFF" d="M36.707,63.093l0.573-0.212c0.081,0.517,0.255,1.026,0.766,0.982c0.341-0.029,0.506-0.242,0.474-0.613
				c-0.038-0.437-0.275-0.646-0.598-0.889l-0.861-0.649c-0.342-0.254-0.509-0.547-0.551-1.031c-0.062-0.712,0.332-1.155,1.019-1.214
				c0.758-0.065,1.157,0.305,1.307,1.147l-0.551,0.203c-0.077-0.475-0.218-0.873-0.711-0.83c-0.329,0.028-0.507,0.224-0.477,0.577
				c0.025,0.293,0.128,0.453,0.369,0.631l0.867,0.648c0.386,0.293,0.747,0.695,0.799,1.3c0.062,0.718-0.375,1.195-1.039,1.252
				C37.264,64.467,36.827,63.926,36.707,63.093z"/>
			<path fill="#FFFFFF" d="M47.422,57.289c-0.003,0.03-0.621,0.562-0.631,0.568l-0.244-0.421c0.202-0.192,0.54-0.549,0.587-0.95
				l0.413-0.24l2.435,4.202l-0.545,0.317L47.422,57.289z"/>
			<path fill="#FFFFFF" d="M55.312,55.702l-0.608-2.197c-0.141-0.487-0.192-0.868-0.596-1.236c-0.329-0.3-0.616-0.394-0.854-0.132
				c-0.305,0.336-0.061,0.71,0.281,1.021l0.12,0.109l-0.425,0.467l-0.124-0.113c-0.644-0.587-0.834-1.19-0.263-1.818
				c0.516-0.567,1.116-0.531,1.698-0.002c0.462,0.421,0.553,0.839,0.686,1.335l0.523,1.96l1.016-1.117l0.4,0.364L55.65,56.01
				L55.312,55.702z"/>
			<path fill="#FFFFFF" d="M60.525,48.434l-1.253-1.899c-0.284-0.42-0.45-0.767-0.947-0.992c-0.404-0.183-0.706-0.184-0.852,0.139
				c-0.187,0.414,0.161,0.693,0.581,0.884l0.147,0.067l-0.259,0.574l-0.153-0.069c-0.792-0.358-1.158-0.873-0.809-1.646
				c0.315-0.698,0.897-0.85,1.612-0.525c0.568,0.257,0.783,0.626,1.062,1.057l1.1,1.701l0.621-1.375l0.492,0.223l-0.927,2.051
				L60.525,48.434z"/>
			<path fill="#FFFFFF" d="M62.341,39.699l-2.082-0.224c-0.847-0.091-1.383-0.504-1.294-1.33c0.087-0.814,0.698-1.11,1.545-1.02
				l2.083,0.224c0.835,0.09,1.387,0.517,1.301,1.325S63.17,39.788,62.341,39.699z M62.531,37.983l-2.094-0.226
				c-0.465-0.05-0.904-0.008-0.953,0.443c-0.049,0.457,0.372,0.591,0.837,0.641l2.094,0.226c0.447,0.048,0.906-0.01,0.953-0.449
				C63.415,38.179,62.978,38.031,62.531,37.983z"/>
		</g>
		<g>
			<path fill="#FFFFFF" d="M10.623,21.599l0.35-0.581l3.749,2.258l0.642-1.064l0.417,0.251l-0.991,1.646L10.623,21.599z"/>
			<path fill="#FFFFFF" d="M15.191,17.539c0.152-0.194,0.053-0.389-0.28-0.691l-0.213,0.235l-0.502-0.455l0.471-0.52l0.431,0.391
				c0.462,0.419,0.624,0.776,0.347,1.116L15.191,17.539z"/>
			<path fill="#FFFFFF" d="M18.834,12.43l0.534-0.377l3.653,3.368l-0.524,0.371l-0.888-0.871l-0.808,0.571l0.516,1.134l-0.519,0.367
				L18.834,12.43z M21.255,14.575l-1.597-1.552l0.936,2.02L21.255,14.575z"/>
			<path fill="#FFFFFF" d="M26.368,8.506l0.611-0.175l1.722,3.233l-0.28-3.645l0.594-0.17l0.302,4.967l-0.571,0.164L26.368,8.506z"
				/>
			<path fill="#FFFFFF" d="M36.193,7.018l1.883,0.096L38.05,7.617l-1.206-0.061l-0.082,1.607l0.978,0.05l-0.024,0.48l-0.978-0.05
				l-0.091,1.781l1.217,0.062l-0.024,0.486l-1.895-0.097L36.193,7.018z"/>
			<path fill="#FFFFFF" d="M45.188,8.676l0.428,0.174l0.062,3.507l1.215-2.988l0.522,0.212l-1.829,4.499l-0.4-0.163l-0.045-3.598
				l-1.249,3.071l-0.533-0.217L45.188,8.676z"/>
			<path fill="#FFFFFF" d="M53.699,13.538l0.51,0.429l-3.127,3.72l-0.51-0.428L53.699,13.538z"/>
			<path fill="#FFFFFF" d="M59.167,19.479l0.52,0.828c0.517,0.823,0.449,1.404-0.333,1.895c-0.482,0.303-0.928,0.384-1.279,0.095
				l-1.696,1.879l-0.347-0.554l1.593-1.75l-0.281-0.447l-1.931,1.211l-0.361-0.574L59.167,19.479z M57.892,21.384
				c0.303,0.483,0.586,0.595,1.114,0.264c0.483-0.303,0.598-0.56,0.27-1.083l-0.159-0.254l-1.362,0.855L57.892,21.384z"/>
		</g>
	</g>
</g>
</svg>
