<?xml version="1.0" encoding="UTF-8" standalone="no"?>
<svg
   width="151.5pt"
   height="90.335938pt"
   viewBox="0 0 151.5 90.335938"
   version="1.1"
   id="svg26"
   sodipodi:docname="plantnet_icon.svg"
   inkscape:version="1.2.2 (b0a8486541, 2022-12-01)"
   xmlns:inkscape="http://www.inkscape.org/namespaces/inkscape"
   xmlns:sodipodi="http://sodipodi.sourceforge.net/DTD/sodipodi-0.dtd"
   xmlns="http://www.w3.org/2000/svg"
   xmlns:svg="http://www.w3.org/2000/svg">
  <path
     fill-rule="nonzero"
     fill="#8eb533"
     fill-opacity="1"
     d="m 151.5,64.609376 c -32.15234,-17.445313 -66.683594,-2.113282 -73.019531,25.71875 0,0 56.519531,-8.183594 73.019531,-25.71875"
     id="path18"
     style="fill:#047c90;fill-opacity:1" />
  <path
     fill-rule="nonzero"
     fill="#8eb533"
     fill-opacity="1"
     d="M 97.5,0 C 87.457031,4.003907 77.167969,17.457032 71.789062,35.128907 c -4.632812,15.230469 -4.5,29.855469 -0.457031,39.316406 1.808594,-6 3.59375,-11.078125 6.210938,-16.03125 1.125,-2.128906 2.796875,-1.109375 2.753906,0.585937 -0.03906,1.441407 -0.375,4.171876 -1.652344,10.179688 C 78.210938,71.1875 77.671875,73.828126 77.070312,76.84375 85.90625,71.449219 94.5,59.136719 99.24609,43.507813 c 5.38672,-17.6875 4.33594,-34.59375 -1.785152,-43.5"
     id="path20"
     style="fill:#047c90;fill-opacity:1" />
  <path
     fill-rule="nonzero"
     fill="#8eb533"
     fill-opacity="1"
     d="m 66.511719,33.101563 c 0.367187,-1.242187 0.75,-2.449219 1.207031,-3.65625 C 56.371094,16.085938 42.539062,8.136719 32.175781,8.179688 c -2.339843,10.546875 3,26.625 14.585938,41.019531 4.871093,6.125 10.652343,11.46875 17.136719,15.847657 C 62.25,56.121094 62.949219,44.789063 66.511719,33.101563 Z m 0,0"
     id="path22"
     style="fill:#047c90;fill-opacity:1" />
  <path
     fill-rule="nonzero"
     fill="#8eb533"
     fill-opacity="1"
     d="M 0,64.609376 C 32.152344,47.164063 66.683594,62.496094 73.019531,90.335938 73.019531,90.335938 16.5,82.144532 0,64.609376"
     id="path24"
     style="fill:#047c90;fill-opacity:1" />
  <defs
     id="defs30" />
  <sodipodi:namedview
     id="namedview28"
     pagecolor="#ffffff"
     bordercolor="#666666"
     borderopacity="1.0"
     inkscape:showpageshadow="2"
     inkscape:pageopacity="0.0"
     inkscape:pagecheckerboard="0"
     inkscape:deskcolor="#d1d1d1"
     inkscape:document-units="pt"
     showgrid="false"
     inkscape:zoom="0.59769767"
     inkscape:cx="333.78079"
     inkscape:cy="66.923467"
     inkscape:window-width="1474"
     inkscape:window-height="891"
     inkscape:window-x="0"
     inkscape:window-y="0"
     inkscape:window-maximized="1"
     inkscape:current-layer="svg26" />
</svg>
