<?xml version="1.0" encoding="UTF-8" standalone="no"?>
<svg
   width="536.362549pt"
   height="104.700005pt"
   viewBox="0 0 536.362549 104.700005"
   version="1.1"
   id="svg26"
   sodipodi:docname="plantnet-logo-title.26755cd.svg"
   inkscape:version="1.2.2 (b0a8486541, 2022-12-01)"
   xmlns:inkscape="http://www.inkscape.org/namespaces/inkscape"
   xmlns:sodipodi="http://sodipodi.sourceforge.net/DTD/sodipodi-0.dtd"
   xmlns="http://www.w3.org/2000/svg"
   xmlns:svg="http://www.w3.org/2000/svg">
  <defs
     id="defs30" />
  <sodipodi:namedview
     id="namedview28"
     pagecolor="#ffffff"
     bordercolor="#666666"
     borderopacity="1.0"
     inkscape:showpageshadow="2"
     inkscape:pageopacity="0.0"
     inkscape:pagecheckerboard="0"
     inkscape:deskcolor="#d1d1d1"
     inkscape:document-units="pt"
     showgrid="false"
     inkscape:zoom="1.6905443"
     inkscape:cx="357.28137"
     inkscape:cy="70.095766"
     inkscape:window-width="3378"
     inkscape:window-height="1360"
     inkscape:window-x="0"
     inkscape:window-y="0"
     inkscape:window-maximized="1"
     inkscape:current-layer="svg26" />
  <path
     fill-rule="nonzero"
     fill="rgb(21.176147%, 17.64679%, 19.215393%)"
     fill-opacity="1"
     d="M 177.164062 85.550781 C 175.484375 85.542969 174.125 84.1875 174.113281 82.507812 L 174.113281 20.46875 C 174.121094 18.785156 175.484375 17.421875 177.164062 17.414062 L 194.003906 17.414062 C 208.964844 17.414062 216.847656 23.609375 216.847656 38.09375 C 216.847656 51.480469 211.433594 59.761719 195.179688 59.761719 L 186 59.761719 L 186 82.5 C 185.988281 84.179688 184.628906 85.535156 182.949219 85.546875 Z M 186 49.90625 L 194.46875 49.90625 C 201.261719 49.90625 204.421875 47.347656 204.421875 38.878906 C 204.421875 30.113281 201.457031 27.457031 194.566406 27.457031 L 186 27.457031 Z M 186 49.90625 "
     id="path2" />
  <path
     fill-rule="nonzero"
     fill="rgb(21.176147%, 17.64679%, 19.215393%)"
     fill-opacity="1"
     d="M 235.957031 86.632812 C 227.488281 86.632812 225.328125 82.402344 225.328125 72.652344 L 225.328125 16.921875 C 225.339844 15.238281 226.699219 13.875 228.382812 13.867188 L 233.496094 13.867188 C 235.179688 13.875 236.542969 15.238281 236.550781 16.921875 L 236.550781 74.03125 C 236.550781 76.199219 237.238281 77.28125 238.621094 77.671875 C 240.585938 78.269531 241.867188 78.855469 242.160156 80.828125 L 242.460938 82.890625 C 242.730469 84.445312 241.660156 85.917969 240.097656 86.144531 C 238.738281 86.457031 237.351562 86.621094 235.957031 86.632812 Z M 235.957031 86.632812 "
     id="path4" />
  <path
     fill-rule="nonzero"
     fill="rgb(21.176147%, 17.64679%, 19.215393%)"
     fill-opacity="1"
     d="M 282.839844 102.691406 C 260.886719 102.691406 247.890625 90.277344 247.890625 65.761719 C 247.890625 41.242188 262.890625 22.636719 287.765625 22.636719 C 309.824219 22.636719 322.035156 36.023438 322.035156 57.488281 C 322.035156 77.671875 314.160156 86.632812 302.535156 86.632812 C 294.15625 86.632812 290.714844 82.597656 289.539062 76.785156 C 285.988281 81.121094 281.363281 85.15625 275.453125 85.15625 C 269.84375 85.15625 265.703125 81.023438 265.703125 71.371094 C 265.765625 67.792969 266.199219 64.234375 267 60.75 C 270.050781 45.984375 275.960938 40.664062 284.828125 40.664062 C 289.453125 40.664062 292.597656 43.320312 294.277344 44.992188 L 294.375 44.601562 C 294.714844 42.859375 296.242188 41.597656 298.019531 41.601562 L 301.957031 41.601562 C 303.535156 41.609375 304.71875 43.050781 304.417969 44.601562 L 298.898438 70.5 C 298.636719 71.597656 298.503906 72.71875 298.5 73.84375 C 298.5 77.390625 300.277344 78.871094 302.632812 78.871094 C 308.632812 78.871094 312.585938 73.066406 312.585938 57.503906 C 312.585938 39.390625 305.691406 30.503906 287.378906 30.503906 C 267.488281 30.503906 257.632812 45.074219 257.632812 65.753906 C 257.632812 86.828125 265.816406 94.703125 282.742188 94.703125 C 286.472656 94.753906 290.191406 94.25 293.773438 93.203125 C 295.375 92.710938 297.078125 93.582031 297.613281 95.167969 L 298.109375 96.742188 C 298.671875 98.320312 297.832031 100.054688 296.242188 100.589844 C 291.914062 101.996094 287.390625 102.703125 282.839844 102.691406 Z M 279.300781 77.085938 C 282.644531 77.085938 285.800781 74.226562 288.5625 71.46875 L 292.890625 51 C 291.390625 49.726562 289.449219 48.140625 286.589844 48.140625 C 281.664062 48.140625 279.796875 51.097656 277.53125 61.925781 C 276.691406 65.285156 276.1875 68.714844 276.03125 72.171875 C 276.050781 75.800781 277.238281 77.085938 279.300781 77.085938 Z M 279.300781 77.085938 "
     id="path6" />
  <path
     fill-rule="nonzero"
     fill="rgb(21.176147%, 17.64679%, 19.215393%)"
     fill-opacity="1"
     d="M 334.058594 85.550781 C 332.378906 85.542969 331.015625 84.1875 331.003906 82.507812 L 331.003906 38.78125 C 331.011719 37.101562 332.375 35.738281 334.058594 35.730469 L 336.914062 35.730469 C 338.6875 35.746094 340.230469 36.957031 340.664062 38.675781 L 341.152344 41.136719 C 345.195312 37.207031 349.726562 34.449219 355.828125 34.449219 C 363.703125 34.449219 368.332031 38.09375 368.332031 47.445312 L 368.332031 82.5 C 368.324219 84.179688 366.960938 85.539062 365.28125 85.546875 L 360.148438 85.546875 C 358.46875 85.535156 357.109375 84.179688 357.097656 82.5 L 357.097656 50.300781 C 357.097656 45.050781 355.425781 43.800781 351.78125 43.800781 C 348.136719 43.800781 345.089844 45.675781 342.234375 48.234375 L 342.234375 82.5 C 342.21875 84.179688 340.859375 85.535156 339.179688 85.546875 Z M 334.058594 85.550781 "
     id="path8" />
  <path
     fill-rule="nonzero"
     fill="rgb(21.176147%, 17.64679%, 19.215393%)"
     fill-opacity="1"
     d="M 378.382812 44.398438 C 376.699219 44.386719 375.339844 43.023438 375.328125 41.339844 L 375.328125 38.78125 C 375.339844 37.101562 376.699219 35.738281 378.382812 35.730469 L 380.746094 35.730469 L 380.746094 26.25 C 380.738281 24.488281 381.972656 22.964844 383.699219 22.613281 L 388.949219 21.621094 C 390.484375 21.359375 391.890625 22.53125 391.90625 24.089844 L 391.90625 35.730469 L 398.59375 35.730469 C 400.277344 35.738281 401.644531 37.097656 401.65625 38.78125 L 401.65625 41.339844 C 401.648438 43.027344 400.28125 44.390625 398.59375 44.398438 L 391.875 44.398438 L 391.875 73.246094 C 391.875 76.996094 393.148438 78.164062 395.714844 78.164062 C 396.613281 78.144531 397.503906 78.015625 398.371094 77.773438 C 399.628906 77.390625 400.949219 78.160156 401.226562 79.449219 L 401.820312 82.011719 C 402.214844 83.710938 401.234375 85.425781 399.570312 85.949219 C 397.691406 86.542969 395.734375 86.839844 393.765625 86.835938 C 386.085938 86.835938 380.765625 83.96875 380.765625 75.316406 L 380.765625 44.398438 Z M 378.382812 44.398438 "
     id="path10" />
  <path
     fill-rule="nonzero"
     fill="rgb(55.685425%, 70.979309%, 19.999695%)"
     fill-opacity="1"
     d="M 417.039062 85.550781 C 415.84375 85.539062 414.882812 84.578125 414.871094 83.386719 L 414.871094 20.070312 C 414.886719 18.882812 415.847656 17.921875 417.039062 17.910156 L 419.699219 17.910156 C 421.03125 17.933594 422.242188 18.691406 422.851562 19.875 L 444.121094 63.496094 C 446.488281 68.191406 448.496094 73.0625 450.121094 78.066406 L 450.316406 78.066406 C 449.761719 72.601562 449.511719 67.113281 449.566406 61.621094 L 449.566406 20.070312 C 449.578125 18.878906 450.542969 17.917969 451.734375 17.910156 L 453.234375 17.910156 C 454.421875 17.921875 455.378906 18.882812 455.390625 20.070312 L 455.390625 83.386719 C 455.382812 84.574219 454.421875 85.539062 453.234375 85.550781 L 450.667969 85.550781 C 449.335938 85.527344 448.125 84.773438 447.515625 83.585938 L 427.042969 41.933594 C 424.328125 36.644531 422.039062 31.148438 420.195312 25.5 L 420 25.5 C 420.546875 31.589844 420.777344 37.703125 420.691406 43.816406 L 420.691406 83.398438 C 420.683594 84.59375 419.714844 85.558594 418.523438 85.566406 Z M 417.039062 85.550781 "
     id="path12" />
  <path
     fill-rule="nonzero"
     fill="rgb(55.685425%, 70.979309%, 19.999695%)"
     fill-opacity="1"
     d="M 474.246094 62.902344 C 474.441406 77.152344 478.28125 81.515625 487.140625 81.515625 C 490.679688 81.589844 494.15625 80.558594 497.085938 78.5625 C 498.101562 77.863281 499.484375 78.074219 500.242188 79.050781 L 500.828125 79.738281 C 501.546875 80.683594 501.320312 82.039062 500.332031 82.695312 C 496.792969 85.15625 492.75 86.535156 487.140625 86.535156 C 475.890625 86.535156 468.039062 80.234375 468.039062 62.113281 C 468.039062 44.199219 475.621094 37.5 486.039062 37.5 C 496.964844 37.5 502.875 44.398438 502.875 60.441406 L 502.875 61.726562 C 502.910156 62.351562 502.421875 62.882812 501.796875 62.902344 Z M 474.34375 58.28125 L 496.792969 58.28125 C 496.792969 46.28125 493.246094 42.324219 485.960938 42.324219 C 479.363281 42.324219 475.027344 45.976562 474.34375 58.28125 Z M 474.34375 58.28125 "
     id="path14" />
  <path
     fill-rule="nonzero"
     fill="rgb(55.685425%, 70.979309%, 19.999695%)"
     fill-opacity="1"
     d="M 515.691406 43.3125 L 512.144531 43.3125 C 510.953125 43.296875 509.988281 42.332031 509.976562 41.136719 L 509.976562 40.65625 C 509.988281 39.464844 510.953125 38.5 512.144531 38.484375 L 515.691406 38.484375 L 515.691406 28.246094 C 515.695312 26.992188 516.546875 25.898438 517.761719 25.589844 L 519.433594 25.191406 C 520.488281 25.011719 521.460938 25.796875 521.503906 26.863281 L 521.503906 38.484375 L 529.175781 38.484375 C 530.375 38.496094 531.339844 39.460938 531.351562 40.65625 L 531.351562 41.136719 C 531.339844 42.332031 530.375 43.300781 529.175781 43.3125 L 521.503906 43.3125 L 521.503906 77.378906 C 521.503906 80.234375 522.78125 81.710938 525.441406 81.710938 C 526.648438 81.742188 527.851562 81.542969 528.984375 81.121094 C 530.125 80.792969 531.324219 81.390625 531.75 82.5 C 532.25 83.695312 531.671875 85.066406 530.46875 85.546875 C 528.777344 86.21875 526.96875 86.554688 525.148438 86.527344 C 519.839844 86.527344 515.699219 84.066406 515.699219 77.664062 Z M 515.691406 43.3125 "
     id="path16" />
  <path
     fill-rule="nonzero"
     fill="rgb(55.685425%, 70.979309%, 19.999695%)"
     fill-opacity="1"
     d="M 153.75 66.523438 C 121.597656 49.078125 87.066406 64.410156 80.730469 92.242188 C 80.730469 92.242188 137.25 84.058594 153.75 66.523438 "
     id="path18" />
  <path
     fill-rule="nonzero"
     fill="rgb(55.685425%, 70.979309%, 19.999695%)"
     fill-opacity="1"
     d="M 99.75 1.914062 C 89.707031 5.917969 79.417969 19.371094 74.039062 37.042969 C 69.40625 52.273438 69.539062 66.898438 73.582031 76.359375 C 75.390625 70.359375 77.175781 65.28125 79.792969 60.328125 C 80.917969 58.199219 82.589844 59.21875 82.546875 60.914062 C 82.507812 62.355469 82.171875 65.085938 80.894531 71.09375 C 80.460938 73.101562 79.921875 75.742188 79.320312 78.757812 C 88.15625 73.363281 96.75 61.050781 101.496094 45.421875 C 106.882812 27.734375 105.832031 10.828125 99.710938 1.921875 "
     id="path20" />
  <path
     fill-rule="nonzero"
     fill="rgb(55.685425%, 70.979309%, 19.999695%)"
     fill-opacity="1"
     d="M 68.761719 35.015625 C 69.128906 33.773438 69.511719 32.566406 69.96875 31.359375 C 58.621094 18 44.789062 10.050781 34.425781 10.09375 C 32.085938 20.640625 37.425781 36.71875 49.011719 51.113281 C 53.882812 57.238281 59.664062 62.582031 66.148438 66.960938 C 64.5 58.035156 65.199219 46.703125 68.761719 35.015625 Z M 68.761719 35.015625 "
     id="path22" />
  <path
     fill-rule="nonzero"
     fill="rgb(55.685425%, 70.979309%, 19.999695%)"
     fill-opacity="1"
     d="M 2.25 66.523438 C 34.402344 49.078125 68.933594 64.410156 75.269531 92.25 C 75.269531 92.25 18.75 84.058594 2.25 66.523438 "
     id="path24" />
</svg>
