<?xml version="1.0" encoding="UTF-8" standalone="no"?>
<!-- Created with Inkscape (http://www.inkscape.org/) -->

<svg
   width="104.08829mm"
   height="80.721184mm"
   viewBox="0 0 104.08829 80.721184"
   version="1.1"
   id="svg1"
   inkscape:version="1.4 (1:1.4+202410161351+e7c3feb100)"
   sodipodi:docname="step3.svg"
   xml:space="preserve"
   xmlns:inkscape="http://www.inkscape.org/namespaces/inkscape"
   xmlns:sodipodi="http://sodipodi.sourceforge.net/DTD/sodipodi-0.dtd"
   xmlns="http://www.w3.org/2000/svg"
   xmlns:svg="http://www.w3.org/2000/svg"><sodipodi:namedview
     id="namedview1"
     pagecolor="#ffffff"
     bordercolor="#000000"
     borderopacity="0.25"
     inkscape:showpageshadow="2"
     inkscape:pageopacity="0.0"
     inkscape:pagecheckerboard="0"
     inkscape:deskcolor="#d1d1d1"
     inkscape:document-units="mm"
     inkscape:zoom="1.7109198"
     inkscape:cx="-126.24788"
     inkscape:cy="261.55522"
     inkscape:window-width="3370"
     inkscape:window-height="1376"
     inkscape:window-x="0"
     inkscape:window-y="0"
     inkscape:window-maximized="1"
     inkscape:current-layer="layer1" /><defs
     id="defs1"><filter
       id="filter3845"
       color-interpolation-filters="sRGB"
       x="-0.025252925"
       y="-0.019755021"
       width="1.0505059"
       height="1.03951"><feGaussianBlur
         stdDeviation="8.991094"
         id="feGaussianBlur3847" /></filter><linearGradient
       id="linearGradient13262"><stop
         id="stop13264"
         offset="0"
         style="stop-color:#b3b3b3;stop-opacity:1;" /><stop
         style="stop-color:#b6b6b6;stop-opacity:1;"
         offset="0.11829343"
         id="stop13274" /><stop
         style="stop-color:#b9b9b9;stop-opacity:1;"
         offset="0.26326001"
         id="stop13272" /><stop
         style="stop-color:#bfbfbf;stop-opacity:1;"
         offset="0.42627287"
         id="stop13270" /><stop
         style="stop-color:#cccccc;stop-opacity:1;"
         offset="0.59315526"
         id="stop13266" /><stop
         id="stop13268"
         offset="1"
         style="stop-color:#e6e6e6;stop-opacity:1;" /></linearGradient><linearGradient
       id="linearGradient13054"><stop
         style="stop-color:#ffd918;stop-opacity:1;"
         offset="0"
         id="stop13056" /><stop
         id="stop13062"
         offset="0.54232132"
         style="stop-color:#edae1d;stop-opacity:1;" /><stop
         style="stop-color:#db8322;stop-opacity:1;"
         offset="1"
         id="stop13058" /></linearGradient><linearGradient
       id="linearGradient13092"><stop
         style="stop-color:#ac5a14;stop-opacity:1;"
         offset="0"
         id="stop13094" /><stop
         id="stop13100"
         offset="0.29946086"
         style="stop-color:#b15d14;stop-opacity:1;" /><stop
         style="stop-color:#bf6816;stop-opacity:1;"
         offset="0.57619756"
         id="stop13102" /><stop
         style="stop-color:#ce7319;stop-opacity:1;"
         offset="1"
         id="stop13096" /></linearGradient><linearGradient
       id="linearGradient13180"><stop
         id="stop13182"
         offset="0"
         style="stop-color:#eeb414;stop-opacity:1;" /><stop
         style="stop-color:#edae1d;stop-opacity:1;"
         offset="0.40968782"
         id="stop13184" /><stop
         id="stop13186"
         offset="1"
         style="stop-color:#db8322;stop-opacity:1;" /></linearGradient></defs><g
     inkscape:label="Layer 1"
     inkscape:groupmode="layer"
     id="layer1"
     transform="translate(-43.657049,-108.15727)"><rect
       style="fill:none;fill-opacity:1;stroke:#000000;stroke-width:0.139547;stroke-linecap:round;stroke-linejoin:round;stroke-dasharray:none;stroke-opacity:1"
       id="rect134"
       width="2.6631958"
       height="2.6631944"
       x="90.269005"
       y="178.50198"
       ry="0" /><rect
       style="fill:#3896ff;fill-opacity:1;stroke-width:0.264583;stroke:none;stroke-opacity:1"
       id="rect1"
       width="98.541245"
       height="72.716209"
       x="49.20409"
       y="116.16225"
       ry="10.145175" /><path
       style="fill:#4d4a4e;fill-opacity:1;stroke:none;stroke-width:0.0978832;stroke-linecap:round;stroke-linejoin:round;stroke-dasharray:none;stroke-opacity:1"
       d="m 117.97188,127.69035 c -2.20699,-0.0239 -4.39366,0.51731 -6.41733,1.37472 -1.2489,0.54757 -2.4468,1.23489 -3.52087,2.07185 -0.39679,0.33234 -0.22258,0.93058 0.13396,1.22387 3.12507,3.64752 6.21594,7.32488 9.37998,10.93869 0.29431,0.44896 1.01042,0.48654 1.30693,0.0205 2.7508,-4.08164 5.56658,-8.14748 8.30021,-12.25265 0.25941,-0.42007 0.01,-0.94911 -0.4176,-1.13405 -2.09862,-1.23263 -4.48295,-1.96794 -6.9019,-2.19904 -0.62021,-0.0397 -1.2421,-0.0468 -1.86338,-0.0424 z"
       id="path67" /><path
       style="fill:#ffffff;fill-opacity:1;stroke:none;stroke-width:0.158438;stroke-linecap:round;stroke-linejoin:round;stroke-dasharray:none;stroke-opacity:1"
       d="m 128.13949,131.01718 c -0.7692,0.0828 -0.97625,0.99798 -1.42928,1.49214 -2.28987,3.38274 -4.60921,6.74903 -6.87926,10.14316 -0.35544,0.64635 0.42668,1.36477 1.06465,1.03893 4.34274,-1.15371 8.6833,-2.31594 13.01905,-3.49567 0.59624,-0.2031 0.60862,-0.89677 0.33832,-1.36573 -1.12156,-3.0235 -3.06802,-5.78908 -5.6697,-7.71097 -0.13632,-0.0708 -0.28998,-0.10804 -0.44378,-0.10189 z"
       id="path69" /><path
       style="fill:#4bc04e;fill-opacity:1;stroke:none;stroke-width:0.158438;stroke-linecap:round;stroke-linejoin:round;stroke-dasharray:none;stroke-opacity:1"
       d="m 118.13891,127.60969 c -3.65771,0.0274 -7.30067,1.29209 -10.19203,3.52108 -0.58991,0.55389 0.0826,1.2159 0.48462,1.6449 2.99662,3.45338 5.90431,7.00058 8.97217,10.3974 0.33569,0.4834 1.13042,0.74291 1.49947,0.14942 2.6927,-3.94823 5.431,-7.86801 8.01953,-11.88564 0.36705,-0.45102 0.50377,-1.22904 -0.11923,-1.53679 -2.62708,-1.50031 -5.63296,-2.33041 -8.66454,-2.2904 z"
       id="path71" /><path
       style="fill:none;fill-opacity:1;stroke:#000000;stroke-width:1.70956;stroke-linecap:round;stroke-linejoin:round;stroke-dasharray:none;stroke-opacity:1"
       d="m 107.13092,131.53788 11.15117,13.04493 9.65011,-14.19136"
       id="path64" /><path
       style="fill:#ffc04e;fill-opacity:1;stroke:none;stroke-width:0.0735514;stroke-linecap:round;stroke-linejoin:round;stroke-dasharray:none;stroke-opacity:1"
       d="m 134.07276,140.5304 c -4.91225,1.28839 -9.81747,2.60475 -14.71996,3.93011 -0.46982,0.10975 -0.70147,0.68204 -0.46549,1.09627 1.98413,4.6353 4.00178,9.25617 6.00398,13.88367 0.19373,0.43778 0.77364,0.54904 1.14999,0.27729 2.91562,-1.50773 5.39495,-3.85677 7.0144,-6.71552 1.24392,-2.19453 2.00474,-4.66843 2.18615,-7.18518 0.0646,-1.43357 0.048,-2.88016 -0.23134,-4.29274 -0.0458,-0.37764 -0.14849,-0.82318 -0.55653,-0.96002 -0.11824,-0.0342 -0.2575,-0.0526 -0.3812,-0.0342 z"
       id="path72" /><path
       style="fill:none;fill-opacity:1;stroke:#000000;stroke-width:1.70956;stroke-linecap:round;stroke-linejoin:round;stroke-dasharray:none;stroke-opacity:1"
       d="m 134.85902,140.14161 -16.57693,4.4412 6.82581,15.74569"
       id="path65"
       sodipodi:nodetypes="ccc" /><circle
       style="fill:none;fill-opacity:1;stroke:#000000;stroke-width:1.70956;stroke-dasharray:none;stroke-opacity:1"
       id="circle64"
       cx="118.28209"
       cy="144.58296"
       r="17.161549" /><circle
       style="fill:#ffffff;fill-opacity:1;stroke:#000000;stroke-width:1.5;stroke-dasharray:none;stroke-opacity:1"
       id="path1"
       cx="53.791336"
       cy="118.29156"
       r="9.3842869" /><text
       xml:space="preserve"
       style="font-style:normal;font-variant:normal;font-weight:bold;font-stretch:normal;font-size:6.35px;line-height:1.25;font-family:Nunito;-inkscape-font-specification:'Nunito Bold';fill:#000000;fill-opacity:1;stroke-width:0.264583"
       x="51.714886"
       y="120.55534"
       id="text38054-0"><tspan
         sodipodi:role="line"
         x="51.714886"
         y="120.55534"
         style="font-size:6.35px;stroke-width:0.264583"
         id="tspan4">3</tspan></text><text
       xml:space="preserve"
       style="font-size:3.175px;text-align:start;writing-mode:lr-tb;direction:ltr;text-anchor:start;fill:#ffffff;fill-opacity:1;stroke:#000000;stroke-width:1.5;stroke-dasharray:none;stroke-opacity:1"
       x="48.443211"
       y="122.75661"
       id="text1"><tspan
         sodipodi:role="line"
         id="tspan1"
         style="stroke-width:1.5"
         x="48.443211"
         y="122.75661" /></text><text
       xml:space="preserve"
       style="font-style:normal;font-variant:normal;font-weight:800;font-stretch:normal;font-size:10.5833px;font-family:Nunito;-inkscape-font-specification:'Nunito Ultra-Bold';text-align:start;writing-mode:lr-tb;direction:ltr;text-anchor:start;fill:#ffffff;fill-opacity:1;stroke:#000000;stroke-width:1.5;stroke-dasharray:none;stroke-opacity:1"
       x="50.8983"
       y="121.84061"
       id="text2"><tspan
         sodipodi:role="line"
         id="tspan2"
         style="font-style:normal;font-variant:normal;font-weight:800;font-stretch:normal;font-family:Nunito;-inkscape-font-specification:'Nunito Ultra-Bold';stroke-width:1.5"
         x="50.8983"
         y="121.84061" /></text><rect
       style="fill:#000000;fill-opacity:1;stroke:#000000;stroke-width:0.139547;stroke-linecap:round;stroke-linejoin:round;stroke-dasharray:none;stroke-opacity:1"
       id="rect126"
       width="2.6631958"
       height="2.6631944"
       x="54.948875"
       y="137.99875"
       ry="0" /><rect
       style="fill:#000000;fill-opacity:1;stroke:#000000;stroke-width:0.139547;stroke-linecap:round;stroke-linejoin:round;stroke-dasharray:none;stroke-opacity:1"
       id="rect127"
       width="2.6631958"
       height="2.6631944"
       x="54.948875"
       y="154.40559"
       ry="0" /><rect
       style="fill:#000000;fill-opacity:1;stroke:#000000;stroke-width:0.139547;stroke-linecap:round;stroke-linejoin:round;stroke-dasharray:none;stroke-opacity:1"
       id="rect128"
       width="2.6631958"
       height="2.6631944"
       x="54.948875"
       y="146.20218"
       ry="0" /><path
       style="fill:none;fill-opacity:1;stroke:#000000;stroke-width:0.3;stroke-linecap:round;stroke-linejoin:round;stroke-dasharray:none;stroke-opacity:1"
       d="m 65.656806,140.29754 c 0.354033,0.0101 0.636212,-0.11515 0.945302,-0.25781 0.101456,-0.0468 0.418625,-0.16082 0.515619,-0.25781 0.02026,-0.0203 -0.0091,-0.0588 0,-0.0859 0.0064,-0.0192 0.04937,-0.0238 0.04297,-0.043 -0.0386,-0.11579 -0.261087,-0.10956 -0.343747,-0.0859 -0.278338,0.0795 -0.648765,0.60156 0.04297,0.60156 0.352667,0 0.855919,-0.12793 1.160143,-0.21485 0.304311,-0.0869 0.580118,-0.25781 0.902334,-0.25781 0.01432,0 -0.03284,-0.0101 -0.04297,0 -0.02026,0.0203 0.01281,0.0603 0,0.0859 -0.0091,0.0181 -0.06322,0.043 -0.04297,0.043 0.144363,0 0.274228,-0.21736 0.343747,-0.30078 0.07343,-0.0881 0.149299,-0.17697 0.128904,-0.17187 -0.299856,0.075 -0.656855,0.55859 -0.128904,0.55859 0.733912,0 0.960879,-0.0527 1.675762,-0.17188 0.329842,-0.055 0.658428,-0.1169 0.988271,-0.17187 0.08594,-0.0143 0.173289,-0.0641 0.25781,-0.043 0.0393,0.01 -0.05353,0.0616 -0.08594,0.0859 -0.149397,0.11205 -0.32919,0.18122 -0.472652,0.30078 -0.02461,0.0205 -0.07456,0.0807 -0.04297,0.0859 0.637005,0.10617 1.31174,-0.13004 1.933572,-0.21484 0.08515,-0.0116 0.17217,0.007 0.25781,0 0.08682,-0.007 0.170688,-0.043 0.25781,-0.043 0.0021,0 -0.199898,0.21578 -0.171873,0.25781 0.07733,0.116 0.993235,0.0176 1.160142,0 0.06846,-0.007 0.9779,-0.12594 1.03124,-0.21484 0.134863,-0.22477 -0.09203,-0.37668 -0.300778,-0.30078 -0.330301,0.12011 -0.546862,0.42969 -0.04297,0.42969 0.143942,0 0.28833,-0.0158 0.429684,-0.043 0.396385,-0.0762 0.678627,-0.15386 1.031237,-0.30078 0.06611,-0.0275 0.243488,-0.12891 0.171873,-0.12891 -0.09813,0 -5.29e-4,0.1286 0,0.12891 0.136721,0.0684 0.570458,0.0483 0.644525,0.043 0.258736,-0.0185 0.518216,-0.0395 0.773428,-0.0859 0.07589,-0.0138 0.150667,-0.12872 0.214841,-0.0859 0.03371,0.0225 0.04832,0.0709 0.08594,0.0859 0.183547,0.0734 0.62017,-0.23919 0.601557,-0.25781 -0.01431,-0.0143 -0.03255,0.0256 -0.04297,0.043 -0.442727,0.73788 0.315995,0.75511 0.902333,0.77343 0.429172,0.0134 0.648178,-0.0351 1.03124,-0.17187 0.06032,-0.0215 0.111106,-0.0657 0.171873,-0.0859 0.02717,-0.009 0.06031,0.0128 0.08594,0 0.01281,-0.006 0.01431,-0.043 0,-0.043 -0.159473,0 -0.239996,0.28797 -0.128905,0.38672 0.09146,0.0813 0.223345,0.10701 0.343746,0.1289 0.381519,0.0694 0.772965,0.0644 1.160143,0.0859 0.0858,0.005 0.197043,-0.0608 0.25781,0 0.02265,0.0226 0.0155,0.0695 0.04297,0.0859 0.121917,0.0731 0.494837,0.0453 0.558588,0.043 0.358108,-0.0132 0.71763,-0.007 1.074206,-0.043 0.04507,-0.004 0.08361,-0.043 0.128905,-0.043 0.02027,0 0.02416,0.0354 0.04297,0.043 0.05483,0.0219 0.114583,0.0286 0.171874,0.043"
       id="path128" /><path
       style="fill:none;fill-opacity:1;stroke:#000000;stroke-width:0.3;stroke-linecap:round;stroke-linejoin:round;stroke-dasharray:none;stroke-opacity:1"
       d="m 65.098218,147.98886 c 0.809333,0.19561 1.596316,0.23997 2.406224,0 0.13525,-0.0401 0.273864,-0.0872 0.386714,-0.17187 0.353187,-0.26489 -0.03807,-0.7692 -0.386714,-0.73046 -0.134573,0.0149 -0.548033,0.19223 -0.51562,0.38671 0.05699,0.34195 1.891614,-0.17086 2.019509,-0.043 0.04508,0.0451 -0.535358,0.31474 -0.515619,0.47265 0.01036,0.0829 0.132348,0.11588 0.214841,0.12891 0.69065,0.10905 1.605885,-0.11646 2.277319,-0.25781 0.272132,-0.0573 0.545861,-0.10746 0.816398,-0.17187 0.03115,-0.007 0.08594,-0.0109 0.08594,-0.043 0,-0.0286 -0.05729,0 -0.08594,0 -0.02865,0 -0.08594,-0.0286 -0.08594,0 0,0.0615 0.791221,-0.0811 0.859364,-0.0859 0.128577,-0.009 0.25781,0 0.386715,0 0.166595,0 0.313127,-0.0169 0.472652,0.043 0.24507,0.0919 0.254862,0.2032 0.601557,0.1289 0.362545,-0.0777 0.737658,-0.38671 1.117174,-0.38671 0.01431,0 -0.01013,0.0328 0,0.043 0.05505,0.0551 0.414226,0.3502 0.472651,0.38671 0.270822,0.16927 0.606859,0.1314 0.902333,0.0859 0.374806,-0.0577 0.741772,-0.16121 1.117176,-0.21484 0.05671,-0.008 0.212384,-0.0405 0.171874,0 -0.05093,0.0509 -0.578329,0.16792 -0.343747,0.21484 0.351623,0.0703 0.854477,-0.23266 1.117174,-0.42968 0.06681,-0.0501 0.155787,-0.0699 0.214842,-0.12891 0.01013,-0.0101 -0.01281,-0.0494 0,-0.043 0.03623,0.0181 0.05729,0.0573 0.08594,0.0859 0.08594,0.043 0.169786,0.0904 0.25781,0.1289 0.529466,0.23164 1.114547,0.42908 1.675763,0.55859 0.126378,0.0292 0.25755,0.0312 0.386715,0.043 0.04279,0.004 0.08941,0.0169 0.128905,0 0.147185,-0.0631 0.296444,-0.12601 0.429683,-0.21484 0.0337,-0.0225 0.0475,-0.0731 0.08594,-0.0859 0.08223,-0.0274 -0.04029,0.18259 0,0.34375 0.0443,0.17719 0.237143,0.1924 0.386712,0.21484 0.428995,0.0644 1.241264,0.0521 1.589828,0.043 0.635582,-0.0167 0.973971,-0.18619 1.546858,0.043"
       id="path129" /><path
       style="fill:none;fill-opacity:1;stroke:#000000;stroke-width:0.3;stroke-linecap:round;stroke-linejoin:round;stroke-dasharray:none;stroke-opacity:1"
       d="m 66.258362,156.0669 c 0.36336,0 0.357943,0.0179 0.773429,-0.0859 0.217573,-0.0544 1.203595,-0.33904 1.332016,-0.51562 0.07198,-0.099 0.112732,-0.22244 0.128905,-0.34375 0.03405,-0.25537 -0.137204,-0.85936 -0.472651,-0.85936 -0.06405,0 -0.11588,0.0548 -0.171873,0.0859 -0.264119,0.14673 -0.806861,0.65405 -0.472651,0.98827 0.288916,0.28891 0.951051,0.1679 1.289048,0.1289 0.187145,-0.0216 0.371854,-0.061 0.558588,-0.0859 0.02839,-0.004 0.06032,-0.0128 0.08594,0 0.06899,0.0345 -0.08594,0.13771 -0.08594,0.21485 0,0.22844 0.68072,0.37712 0.773429,0.38671 0.436608,0.0452 1.321684,0.0167 1.7617,-0.17187 0.08482,-0.0364 0.530288,-0.42785 0.171873,-0.47265 -0.05402,-0.007 -0.876332,0.24383 -0.601557,0.34374 0.24751,0.09 0.973418,0.0147 1.160143,0 0.616619,-0.0487 1.229267,-0.15749 1.847635,-0.17187 0.315341,-0.007 0.632124,0.005 0.945304,0.043 0.352374,0.0423 -0.204216,0.37287 0.214841,0.47265 0.70449,0.16773 0.727716,0.0647 1.417953,0 0.540064,-0.0506 0.730051,-0.0286 1.246081,-0.0859 0.07258,-0.008 0.141809,-0.043 0.214839,-0.043 0.08352,0 0.1373,0.0979 0.214842,0.12891 0.09681,0.0387 0.197784,0.0697 0.300778,0.0859 0.781863,0.12345 1.820127,-0.005 2.578098,-0.25781 0.05467,-0.0182 0.435263,0.0839 0.472651,0.0859 0.224086,0.0125 1.235422,-0.0483 1.332016,0 0.470289,0.23515 0.862187,0.19043 1.374984,0.21484 0.129553,0.006 0.258781,0.0216 0.386715,0.043 0.05825,0.01 0.130117,0.001 0.171873,0.043 0.138753,0.13875 -0.119954,0.0806 0.214842,0.17187 0.294034,0.0802 0.455081,0.0289 0.773427,0 0.774457,-0.0704 0.493575,-0.10686 0.429684,-0.043"
       id="path130" /><path
       style="fill:#c50000;fill-opacity:1;stroke:#000000;stroke-width:0.218405;stroke-linecap:round;stroke-linejoin:round;stroke-dasharray:none;stroke-opacity:1"
       d="m 106.83255,132.74897 c -2.8226,3.00599 -4.8637,6.8965 -4.86557,11.0964 -0.55683,7.57436 5.07523,14.9933 12.44975,16.66908 2.81737,0.77519 5.82952,0.40477 8.64301,-0.20036 0.67774,-0.0412 0.97996,-0.64007 0.56507,-1.19221 -1.90696,-4.83589 -3.97888,-9.63328 -6.15267,-14.33963 -3.43894,-4.01159 -6.87787,-8.02319 -10.3168,-12.03478 l -0.17306,-0.0737 z"
       id="path131" /><rect
       style="fill:#c50000;fill-opacity:1;stroke:none;stroke-width:0.139547;stroke-linecap:round;stroke-linejoin:round;stroke-dasharray:none;stroke-opacity:1"
       id="rect131"
       width="2.6631958"
       height="2.6631944"
       x="90.269005"
       y="170.29855"
       ry="0" /><rect
       style="fill:#4bc04e;fill-opacity:1;stroke:none;stroke-width:0.139547;stroke-linecap:round;stroke-linejoin:round;stroke-dasharray:none;stroke-opacity:1"
       id="rect132"
       width="2.6631958"
       height="2.6631944"
       x="90.269005"
       y="178.50198"
       ry="0" /><rect
       style="fill:none;fill-opacity:1;stroke:none;stroke-width:0.139547;stroke-linecap:round;stroke-linejoin:round;stroke-dasharray:none;stroke-opacity:1"
       id="rect133"
       width="2.6631958"
       height="2.6631944"
       x="90.269005"
       y="170.29855"
       ry="0" /><rect
       style="fill:#ffc04e;fill-opacity:1;stroke:none;stroke-width:0.139547;stroke-linecap:round;stroke-linejoin:round;stroke-dasharray:none;stroke-opacity:1"
       id="rect135"
       width="2.6631958"
       height="2.6631944"
       x="118.61028"
       y="170.29855"
       ry="0" /><rect
       style="fill:#ffffff;fill-opacity:1;stroke:none;stroke-width:0.139547;stroke-linecap:round;stroke-linejoin:round;stroke-dasharray:none;stroke-opacity:1"
       id="rect136"
       width="2.6631958"
       height="2.6631944"
       x="118.61028"
       y="178.50198"
       ry="0" /><path
       style="fill:none;fill-opacity:1;stroke:#c50000;stroke-width:0.3;stroke-linecap:round;stroke-linejoin:round;stroke-dasharray:none;stroke-opacity:1"
       d="m 96.017022,172.04549 c 0.546679,-0.47688 2.398027,-1.28247 1.89331,-2.29191 -0.599217,-1.19845 -1.417166,1.30639 -1.494715,1.49473 -0.11312,0.27471 -0.571275,0.55543 -0.398595,0.79718 0.554239,0.77594 1.765633,-1.10389 1.89331,-1.29543 0.0412,-0.0618 0.15217,-0.25181 0.0997,-0.19929 -0.303797,0.3038 -1.091472,1.79418 -0.199287,1.89332 0.543197,0.0603 1.331741,-0.81437 1.693998,-1.09614 0.11124,-0.0865 0.43987,-0.29894 0.29895,-0.29894 -0.11976,0 0.0966,0.23733 0.199297,0.29894 0.21058,0.12636 0.89078,0.19117 0.99648,0.1993 0.016,0.001 1.65487,-0.0899 1.69402,-0.0996 0.32185,-0.0805 0.91683,-0.37204 1.29542,-0.49824 0.0705,-0.0235 0.12884,-0.12314 0.1993,-0.0996 0.0628,0.0209 0.25435,0.49824 0.79719,0.49824 1.18511,0 0.55596,-0.0903 1.49472,-0.29894 0.54176,-0.12039 0.59765,0.32616 1.29543,0.1993 0.39268,-0.0714 0.42971,-0.29117 0.79718,-0.1993 0.25221,0.0631 0.24505,0.39859 0.59789,0.39859 0.41144,0 1.32268,-0.21292 1.69402,-0.39859 0.0297,-0.0148 -0.0332,-0.0996 0,-0.0996 0.047,0 0.0551,0.0848 0.0996,0.0996 0.25209,0.084 0.53277,0.0264 0.79718,0 1.15761,-0.11576 -0.0753,-0.0996 0.59789,-0.0996"
       id="path136" /><path
       style="fill:none;fill-opacity:1;stroke:#ffc04e;stroke-width:0.3;stroke-linecap:round;stroke-linejoin:round;stroke-dasharray:none;stroke-opacity:1"
       d="m 124.21745,172.84268 c 1.44811,-0.70138 3.03717,-1.35181 4.28487,-2.39156 0.3212,-0.26767 0.61476,-0.69754 0,-0.69754 -0.16608,0 -0.34068,-0.0525 -0.49824,0 -0.35537,0.11846 -2.41293,1.55403 -1.69402,1.79367 0.48259,0.16087 2.35805,-0.99604 2.6905,-1.49472 0.0184,-0.0276 -0.0737,-0.0208 -0.0996,0 -0.14673,0.11738 -0.27428,0.2577 -0.3986,0.39859 -0.47736,0.54101 -1.52221,1.48 -1.19578,1.99297 0.6883,1.0816 3.24256,-0.16686 3.88628,-0.3986 0.23802,-0.0857 0.46068,-0.21012 0.69754,-0.29894 0.0311,-0.0117 0.0996,0.0332 0.0996,0 0,-0.23965 -0.93507,0.77348 -0.0996,0.69754 0.71769,-0.0653 1.76644,-0.4167 2.49121,-0.59789 0.29451,-0.0736 0.15325,0.19929 0.59789,0.19929 0.7993,0 1.60161,-0.29894 2.39155,-0.29894 0.31409,0 0.39395,0.29199 0.99649,0.19929 0.87583,-0.13474 1.61941,-0.68821 2.4912,-0.79718 0.0301,-0.004 0.44091,0.27028 0.49824,0.29894"
       id="path137" /><path
       style="fill:none;fill-opacity:1;stroke:#ffffff;stroke-width:0.3;stroke-linecap:round;stroke-linejoin:round;stroke-dasharray:none;stroke-opacity:1"
       d="m 125.61253,180.91418 c 1.36112,-0.29356 4.9824,-1.55564 4.9824,-3.18874 0,-0.23067 -0.36537,-0.36907 -0.49824,-0.39859 -1.18052,-0.26234 -3.69281,1.8699 -2.98944,2.6905 0.63885,0.74532 3.19569,-0.39061 3.88628,-0.69754 0.3125,-0.13889 0.55485,-0.49824 0.89683,-0.49824 0.047,0 -0.0664,0.0664 -0.0997,0.0996 -0.16927,0.16928 -1.04312,1.04948 -0.89683,1.19578 0.14855,0.14854 0.38781,0.19929 0.59789,0.19929 1.19469,0 2.32918,-0.87188 3.38804,-1.29542 0.76176,-0.30471 -1.73573,1.27347 0.39859,0.89683 0.71711,-0.12655 1.45436,-0.69754 2.19226,-0.69754 0.0592,0 -0.22696,0.2341 0,0.29895 0.19427,0.0555 0.39584,0.0996 0.59789,0.0996 0.81534,0 1.95894,-0.3108 2.6905,-0.39859 0.39575,-0.0475 0.79719,0 1.19578,0 0.23251,0 0.48122,-0.0853 0.69754,0 0.5051,0.1991 0.98111,0.46528 1.47167,0.69792"
       id="path138" /><path
       style="fill:none;fill-opacity:1;stroke:#4bc04e;stroke-width:0.3;stroke-linecap:round;stroke-linejoin:round;stroke-dasharray:none;stroke-opacity:1"
       d="m 96.814209,181.51207 c 0.155718,-0.0623 0.737236,-0.2789 0.896836,-0.39859 0.452097,-0.33908 2.009408,-1.67098 1.494711,-2.39156 -0.773707,-1.08319 -2.030677,0.5987 -2.2919,1.19578 -0.09414,0.21518 -0.085,0.46312 -0.09965,0.69754 -0.01865,0.29836 -0.29129,0.82961 0,0.89683 0.463402,0.10694 0.870059,-0.3852 1.295426,-0.59789 0.505057,-0.25253 1.003134,-0.51933 1.494711,-0.79718 0.36233,-0.2048 0.679937,-0.59789 1.096127,-0.59789 0.0914,0 -0.0969,0.22227 -0.19929,0.59789 -0.32465,1.19037 0.3556,1.19628 1.59437,0.99648 0.76133,-0.1228 2.47447,-0.85804 3.18874,-1.09613 0.35929,-0.11976 0.73198,-0.1949 1.09613,-0.29895 0.101,-0.0289 0.19391,-0.0996 0.29895,-0.0996 0.52625,0 -0.17759,0.74581 0.49824,0.69754 2.03867,-0.14562 0.28228,-0.12039 1.79366,-0.49824 0.16112,-0.0403 0.33442,0.0273 0.49825,0 0.0463,-0.008 0.0527,-0.0996 0.0996,-0.0996 0.047,0 0.0576,0.0786 0.0996,0.0996 0.27645,0.13823 0.59533,0.14604 0.89684,0.0997 0.70848,-0.109 1.39089,-0.48094 2.09261,-0.59789 0.0226,-0.004 -0.18416,0.34688 0.19929,0.29894 0.20049,-0.025 0.40066,-0.0558 0.59789,-0.0996 0.10254,-0.0228 0.1993,-0.13287 0.29895,-0.0996 0.148,0.0493 -0.39859,0.9358 -0.39859,1.09613"
       id="path139" /></g></svg>
