<?xml version="1.0" encoding="UTF-8" standalone="no"?>
<!-- Created with Inkscape (http://www.inkscape.org/) -->

<svg
   width="104.08829mm"
   height="80.721184mm"
   viewBox="0 0 104.08829 80.721184"
   version="1.1"
   id="svg1"
   inkscape:version="1.4 (1:1.4+202410161351+e7c3feb100)"
   sodipodi:docname="step4.svg"
   xml:space="preserve"
   xmlns:inkscape="http://www.inkscape.org/namespaces/inkscape"
   xmlns:sodipodi="http://sodipodi.sourceforge.net/DTD/sodipodi-0.dtd"
   xmlns="http://www.w3.org/2000/svg"
   xmlns:svg="http://www.w3.org/2000/svg"><sodipodi:namedview
     id="namedview1"
     pagecolor="#ffffff"
     bordercolor="#000000"
     borderopacity="0.25"
     inkscape:showpageshadow="2"
     inkscape:pageopacity="0.0"
     inkscape:pagecheckerboard="0"
     inkscape:deskcolor="#d1d1d1"
     inkscape:document-units="mm"
     inkscape:zoom="1.4966392"
     inkscape:cx="403.57088"
     inkscape:cy="154.01173"
     inkscape:window-width="3370"
     inkscape:window-height="1376"
     inkscape:window-x="0"
     inkscape:window-y="0"
     inkscape:window-maximized="1"
     inkscape:current-layer="layer1" /><defs
     id="defs1"><filter
       id="filter3845"
       color-interpolation-filters="sRGB"
       x="-0.025252925"
       y="-0.019755021"
       width="1.0505059"
       height="1.03951"><feGaussianBlur
         stdDeviation="8.991094"
         id="feGaussianBlur3847" /></filter><linearGradient
       id="linearGradient13262"><stop
         id="stop13264"
         offset="0"
         style="stop-color:#b3b3b3;stop-opacity:1;" /><stop
         style="stop-color:#b6b6b6;stop-opacity:1;"
         offset="0.11829343"
         id="stop13274" /><stop
         style="stop-color:#b9b9b9;stop-opacity:1;"
         offset="0.26326001"
         id="stop13272" /><stop
         style="stop-color:#bfbfbf;stop-opacity:1;"
         offset="0.42627287"
         id="stop13270" /><stop
         style="stop-color:#cccccc;stop-opacity:1;"
         offset="0.59315526"
         id="stop13266" /><stop
         id="stop13268"
         offset="1"
         style="stop-color:#e6e6e6;stop-opacity:1;" /></linearGradient><linearGradient
       id="linearGradient13054"><stop
         style="stop-color:#ffd918;stop-opacity:1;"
         offset="0"
         id="stop13056" /><stop
         id="stop13062"
         offset="0.54232132"
         style="stop-color:#edae1d;stop-opacity:1;" /><stop
         style="stop-color:#db8322;stop-opacity:1;"
         offset="1"
         id="stop13058" /></linearGradient><linearGradient
       id="linearGradient13092"><stop
         style="stop-color:#ac5a14;stop-opacity:1;"
         offset="0"
         id="stop13094" /><stop
         id="stop13100"
         offset="0.29946086"
         style="stop-color:#b15d14;stop-opacity:1;" /><stop
         style="stop-color:#bf6816;stop-opacity:1;"
         offset="0.57619756"
         id="stop13102" /><stop
         style="stop-color:#ce7319;stop-opacity:1;"
         offset="1"
         id="stop13096" /></linearGradient><linearGradient
       id="linearGradient13180"><stop
         id="stop13182"
         offset="0"
         style="stop-color:#eeb414;stop-opacity:1;" /><stop
         style="stop-color:#edae1d;stop-opacity:1;"
         offset="0.40968782"
         id="stop13184" /><stop
         id="stop13186"
         offset="1"
         style="stop-color:#db8322;stop-opacity:1;" /></linearGradient></defs><g
     inkscape:label="Layer 1"
     inkscape:groupmode="layer"
     id="layer1"
     transform="translate(-43.657049,-108.15727)"><rect
       style="fill:#ffdd55;fill-opacity:1;stroke-width:0.264583"
       id="rect1"
       width="98.541245"
       height="72.716209"
       x="49.20409"
       y="116.16225"
       ry="10.145175" /><circle
       style="fill:#ffffff;fill-opacity:1;stroke:#000000;stroke-width:1.5;stroke-dasharray:none;stroke-opacity:1"
       id="path1"
       cx="53.791336"
       cy="118.29156"
       r="9.3842869" /><text
       xml:space="preserve"
       style="font-style:normal;font-variant:normal;font-weight:bold;font-stretch:normal;font-size:6.35px;line-height:1.25;font-family:Nunito;-inkscape-font-specification:'Nunito Bold';fill:#000000;fill-opacity:1;stroke-width:0.264583"
       x="51.714886"
       y="120.55534"
       id="text38054-0"><tspan
         sodipodi:role="line"
         x="51.714886"
         y="120.55534"
         style="font-size:6.35px;stroke-width:0.264583"
         id="tspan4">4</tspan></text><text
       xml:space="preserve"
       style="font-size:3.175px;text-align:start;writing-mode:lr-tb;direction:ltr;text-anchor:start;fill:#ffffff;fill-opacity:1;stroke:#000000;stroke-width:1.5;stroke-dasharray:none;stroke-opacity:1"
       x="48.443211"
       y="122.75661"
       id="text1"><tspan
         sodipodi:role="line"
         id="tspan1"
         style="stroke-width:1.5"
         x="48.443211"
         y="122.75661" /></text><text
       xml:space="preserve"
       style="font-style:normal;font-variant:normal;font-weight:800;font-stretch:normal;font-size:10.5833px;font-family:Nunito;-inkscape-font-specification:'Nunito Ultra-Bold';text-align:start;writing-mode:lr-tb;direction:ltr;text-anchor:start;fill:#ffffff;fill-opacity:1;stroke:#000000;stroke-width:1.5;stroke-dasharray:none;stroke-opacity:1"
       x="50.8983"
       y="121.84061"
       id="text2"><tspan
         sodipodi:role="line"
         id="tspan2"
         style="font-style:normal;font-variant:normal;font-weight:800;font-stretch:normal;font-family:Nunito;-inkscape-font-specification:'Nunito Ultra-Bold';stroke-width:1.5"
         x="50.8983"
         y="121.84061" /></text><g
       id="g11996"
       transform="matrix(0.26458333,0,0,0.26458333,-27.121143,126.96362)"
       style="fill:#047c90;fill-opacity:1"><g
         id="g37814"
         transform="matrix(0.72394116,0,0,0.72394116,-38.188776,-62.802041)"
         style="fill:#047c90;fill-opacity:1"><g
           id="g37812"
           style="fill:#047c90;fill-opacity:1"><path
             style="fill:#047c90;fill-opacity:1;fill-rule:nonzero;stroke:#ffffff;stroke-width:1.88976;stroke-dasharray:none;stroke-opacity:1"
             d="m 584.32498,159.06231 c -0.0947,-0.0934 0.77299,-16.72115 0.98693,-18.91275 0.82913,-8.49292 2.28502,-12.66247 5.72424,-16.3938 2.96109,-3.21254 5.83309,-4.67156 10.79024,-5.48158 2.1642,-0.35364 15.50464,-0.59815 18.72182,-0.34314 5.1146,0.4054 8.38585,1.15878 11.47059,2.64173 1.55695,0.74849 2.18163,1.19827 3.61384,2.60204 3.73072,3.65655 5.47704,8.75083 6.37066,18.58397 0.49868,5.48753 1.1016,16.74099 0.90716,16.93203 -20.1648,4.39607 -39.34038,6.18209 -58.58548,0.3715 z"
             id="path37808"
             inkscape:connector-curvature="0"
             sodipodi:nodetypes="cccssscscc" /><ellipse
             style="fill:#047c90;fill-opacity:1;fill-rule:nonzero;stroke:#ffffff;stroke-width:1.88976;stroke-dasharray:none;stroke-opacity:1"
             id="ellipse37810"
             cx="612.86011"
             cy="107.27695"
             rx="15.98648"
             ry="15.069942"
             transform="rotate(-0.42154278)" /></g></g><g
         id="g37794"
         transform="matrix(0.72394116,0,0,0.72394116,-54.889137,-43.835812)"
         style="fill:#047c90;fill-opacity:1"><g
           id="g37792"
           style="fill:#047c90;fill-opacity:1"><path
             style="fill:#047c90;fill-opacity:1;fill-rule:nonzero;stroke:#ffffff;stroke-width:1.88976;stroke-dasharray:none;stroke-opacity:1"
             d="m 584.32498,159.06231 c -0.0947,-0.0934 0.77299,-16.72115 0.98693,-18.91275 0.82913,-8.49292 2.28502,-12.66247 5.72424,-16.3938 2.96109,-3.21254 5.83309,-4.67156 10.79024,-5.48158 2.1642,-0.35364 15.50464,-0.59815 18.72182,-0.34314 5.1146,0.4054 8.38585,1.15878 11.47059,2.64173 1.55695,0.74849 2.18163,1.19827 3.61384,2.60204 3.73072,3.65655 5.47704,8.75083 6.37066,18.58397 0.49868,5.48753 1.1016,16.74099 0.90716,16.93203 -20.1648,4.39607 -39.34038,6.18209 -58.58548,0.3715 z"
             id="path37788"
             inkscape:connector-curvature="0"
             sodipodi:nodetypes="cccssscscc" /><ellipse
             style="fill:#047c90;fill-opacity:1;fill-rule:nonzero;stroke:#ffffff;stroke-width:1.88976;stroke-dasharray:none;stroke-opacity:1"
             id="ellipse37790"
             cx="612.86011"
             cy="107.27695"
             rx="15.98648"
             ry="15.069942"
             transform="rotate(-0.42154278)" /></g></g><g
         id="g37743"
         style="fill:#047c90;fill-opacity:1"
         transform="matrix(0.72394116,0,0,0.72394116,-13.674211,-50.5783)"><path
           style="fill:#047c90;fill-opacity:1;fill-rule:nonzero;stroke:#ffffff;stroke-width:1.88976;stroke-dasharray:none;stroke-opacity:1"
           d="m 584.32498,159.06231 c -0.0947,-0.0934 0.77299,-16.72115 0.98693,-18.91275 0.82913,-8.49292 2.28502,-12.66247 5.72424,-16.3938 2.96109,-3.21254 5.83309,-4.67156 10.79024,-5.48158 2.1642,-0.35364 15.50464,-0.59815 18.72182,-0.34314 5.1146,0.4054 8.38585,1.15878 11.47059,2.64173 1.55695,0.74849 2.18163,1.19827 3.61384,2.60204 3.73072,3.65655 5.47704,8.75083 6.37066,18.58397 0.49868,5.48753 1.1016,16.74099 0.90716,16.93203 -20.1648,4.39607 -39.34038,6.18209 -58.58548,0.3715 z"
           id="path37486"
           inkscape:connector-curvature="0"
           sodipodi:nodetypes="cccssscscc" /><ellipse
           style="fill:#047c90;fill-opacity:1;fill-rule:nonzero;stroke:#ffffff;stroke-width:1.88976;stroke-dasharray:none;stroke-opacity:1"
           id="ellipse37488"
           cx="612.86011"
           cy="107.27695"
           rx="15.98648"
           ry="15.069942"
           transform="rotate(-0.42154278)" /></g><g
         id="g37766"
         transform="matrix(0.72394116,0,0,0.72394116,-25.93149,-43.835812)"
         style="fill:#047c90;fill-opacity:1"><g
           id="g37755"
           style="fill:#047c90;fill-opacity:1"><path
             style="fill:#047c90;fill-opacity:1;fill-rule:nonzero;stroke:#ffffff;stroke-width:1.88976;stroke-dasharray:none;stroke-opacity:1"
             d="m 584.32498,159.06231 c -0.0947,-0.0934 0.77299,-16.72115 0.98693,-18.91275 0.82913,-8.49292 2.28502,-12.66247 5.72424,-16.3938 2.96109,-3.21254 5.83309,-4.67156 10.79024,-5.48158 2.1642,-0.35364 15.50464,-0.59815 18.72182,-0.34314 5.1146,0.4054 8.38585,1.15878 11.47059,2.64173 1.55695,0.74849 2.18163,1.19827 3.61384,2.60204 3.73072,3.65655 5.47704,8.75083 6.37066,18.58397 0.49868,5.48753 1.1016,16.74099 0.90716,16.93203 -20.1648,4.39607 -39.34038,6.18209 -58.58548,0.3715 z"
             id="path37751"
             inkscape:connector-curvature="0"
             sodipodi:nodetypes="cccssscscc" /><ellipse
             style="fill:#047c90;fill-opacity:1;fill-rule:nonzero;stroke:#ffffff;stroke-width:1.88976;stroke-dasharray:none;stroke-opacity:1"
             id="ellipse37753"
             cx="612.86011"
             cy="107.27695"
             rx="15.98648"
             ry="15.069942"
             transform="rotate(-0.42154278)" /></g></g><g
         id="g37780"
         transform="matrix(0.72394116,0,0,0.72394116,-41.08454,-33.700636)"
         style="fill:#047c90;fill-opacity:1"><g
           id="g37778"
           style="fill:#047c90;fill-opacity:1"><path
             style="fill:#047c90;fill-opacity:1;fill-rule:nonzero;stroke:#ffffff;stroke-width:1.88976;stroke-dasharray:none;stroke-opacity:1"
             d="m 584.32498,159.06231 c -0.0947,-0.0934 0.77299,-16.72115 0.98693,-18.91275 0.82913,-8.49292 2.28502,-12.66247 5.72424,-16.3938 2.96109,-3.21254 5.83309,-4.67156 10.79024,-5.48158 2.1642,-0.35364 15.50464,-0.59815 18.72182,-0.34314 5.1146,0.4054 8.38585,1.15878 11.47059,2.64173 1.55695,0.74849 2.18163,1.19827 3.61384,2.60204 3.73072,3.65655 5.47704,8.75083 6.37066,18.58397 0.49868,5.48753 1.1016,16.74099 0.90716,16.93203 -20.1648,4.39607 -39.34038,6.18209 -58.58548,0.3715 z"
             id="path37774"
             inkscape:connector-curvature="0"
             sodipodi:nodetypes="cccssscscc" /><ellipse
             style="fill:#047c90;fill-opacity:1;fill-rule:nonzero;stroke:#ffffff;stroke-width:1.88976;stroke-dasharray:none;stroke-opacity:1"
             id="ellipse37776"
             cx="612.86011"
             cy="107.27695"
             rx="15.98648"
             ry="15.069942"
             transform="rotate(-0.42154278)" /></g></g></g><g
       id="g11738"
       transform="matrix(0.25939897,0,0,0.25939897,-30.492739,132.8281)"
       style="fill:#047c90;fill-opacity:1"><g
         id="g11736"
         style="fill:#047c90;fill-opacity:1"><path
           style="fill:#047c90;fill-opacity:1;fill-rule:nonzero;stroke:#ffffff;stroke-width:1.88976;stroke-dasharray:none;stroke-opacity:1"
           d="m 584.32498,159.06231 c -0.0947,-0.0934 0.77299,-16.72115 0.98693,-18.91275 0.82913,-8.49292 2.28502,-12.66247 5.72424,-16.3938 2.96109,-3.21254 5.83309,-4.67156 10.79024,-5.48158 2.1642,-0.35364 15.50464,-0.59815 18.72182,-0.34314 5.1146,0.4054 8.38585,1.15878 11.47059,2.64173 1.55695,0.74849 2.18163,1.19827 3.61384,2.60204 3.73072,3.65655 5.47704,8.75083 6.37066,18.58397 0.49868,5.48753 1.1016,16.74099 0.90716,16.93203 -20.1648,4.39607 -39.34038,6.18209 -58.58548,0.3715 z"
           id="path11732"
           inkscape:connector-curvature="0"
           sodipodi:nodetypes="cccssscscc" /><ellipse
           style="fill:#047c90;fill-opacity:1;fill-rule:nonzero;stroke:#ffffff;stroke-width:1.88976;stroke-dasharray:none;stroke-opacity:1"
           id="ellipse11734"
           cx="612.86011"
           cy="107.27695"
           rx="15.98648"
           ry="15.069942"
           transform="rotate(-0.42154278)" /></g></g><rect
       style="fill:#ffffff;fill-opacity:1;stroke:none;stroke-width:0.3;stroke-linecap:round;stroke-linejoin:round;stroke-dasharray:none;stroke-opacity:1"
       id="rect139"
       width="24.191368"
       height="11.197148"
       x="100.09964"
       y="144.13387"
       ry="4.0779715" /><path
       style="fill:#ffffff;fill-opacity:1;stroke:none;stroke-width:0.3;stroke-linecap:round;stroke-linejoin:round;stroke-dasharray:none;stroke-opacity:1"
       d="m 124.64224,160.36732 -6.7944,-5.03631 2.95034,-0.0413 z"
       id="path139" /><text
       xml:space="preserve"
       style="font-style:normal;font-variant:normal;font-weight:normal;font-stretch:normal;font-size:6.35px;line-height:1.48167px;font-family:'Latin Modern Sans';-inkscape-font-specification:'Latin Modern Sans';text-align:start;letter-spacing:0px;word-spacing:0px;writing-mode:lr-tb;direction:ltr;text-anchor:start;fill:#ffffff;fill-opacity:1;stroke:none;stroke-width:0.3;stroke-linecap:round;stroke-linejoin:round;stroke-dasharray:none;stroke-opacity:1"
       x="107.87498"
       y="150.76039"
       id="text139"><tspan
         sodipodi:role="line"
         id="tspan139"
         style="stroke-width:0.3"
         x="107.87498"
         y="150.76039">...</tspan></text><g
       id="g1"
       transform="translate(12.501504,-18.451098)"><text
         xml:space="preserve"
         style="font-style:normal;font-variant:normal;font-weight:bold;font-stretch:normal;font-size:6.35px;line-height:1.25;font-family:Nunito;-inkscape-font-specification:'Nunito Bold';fill:#000000;fill-opacity:1;stroke-width:0.264583"
         x="96.0942"
         y="169.12259"
         id="text125"><tspan
           sodipodi:role="line"
           x="96.0942"
           y="169.12259"
           style="font-size:6.35px;stroke-width:0.264583"
           id="tspan125">...</tspan></text></g></g></svg>
