<?xml version="1.0" encoding="UTF-8" standalone="no"?>
<!-- Created with Inkscape (http://www.inkscape.org/) -->

<svg
   width="104.08829mm"
   height="80.721184mm"
   viewBox="0 0 104.08829 80.721184"
   version="1.1"
   id="svg1"
   inkscape:version="1.4 (1:1.4+202410161351+e7c3feb100)"
   sodipodi:docname="step1.svg"
   xml:space="preserve"
   xmlns:inkscape="http://www.inkscape.org/namespaces/inkscape"
   xmlns:sodipodi="http://sodipodi.sourceforge.net/DTD/sodipodi-0.dtd"
   xmlns:xlink="http://www.w3.org/1999/xlink"
   xmlns="http://www.w3.org/2000/svg"
   xmlns:svg="http://www.w3.org/2000/svg"><sodipodi:namedview
     id="namedview1"
     pagecolor="#ffffff"
     bordercolor="#000000"
     borderopacity="0.25"
     inkscape:showpageshadow="2"
     inkscape:pageopacity="0.0"
     inkscape:pagecheckerboard="0"
     inkscape:deskcolor="#d1d1d1"
     inkscape:document-units="mm"
     inkscape:zoom="1.4901297"
     inkscape:cx="-112.07078"
     inkscape:cy="139.24962"
     inkscape:window-width="3370"
     inkscape:window-height="1376"
     inkscape:window-x="0"
     inkscape:window-y="0"
     inkscape:window-maximized="1"
     inkscape:current-layer="layer1" /><defs
     id="defs1"><filter
       id="filter3845"
       color-interpolation-filters="sRGB"
       x="-0.025252925"
       y="-0.019755021"
       width="1.0505059"
       height="1.03951"><feGaussianBlur
         stdDeviation="8.991094"
         id="feGaussianBlur3847" /></filter></defs><g
     inkscape:label="Layer 1"
     inkscape:groupmode="layer"
     id="layer1"
     transform="translate(-43.657049,-108.15727)"><rect
       style="fill:#ec5553;fill-opacity:1;stroke-width:0.264583"
       id="rect1"
       width="98.541245"
       height="72.716209"
       x="49.204098"
       y="116.16225"
       ry="10.145175" /><circle
       style="fill:#ffffff;fill-opacity:1;stroke:#000000;stroke-width:1.5;stroke-dasharray:none;stroke-opacity:1"
       id="path1"
       cx="53.791336"
       cy="118.29156"
       r="9.3842869" /><text
       xml:space="preserve"
       style="font-style:normal;font-variant:normal;font-weight:bold;font-stretch:normal;font-size:6.35px;line-height:1.25;font-family:Nunito;-inkscape-font-specification:'Nunito Bold';fill:#000000;fill-opacity:1;stroke-width:0.264583"
       x="51.714886"
       y="120.55534"
       id="text38054-0"><tspan
         sodipodi:role="line"
         x="51.714886"
         y="120.55534"
         style="font-size:6.35px;stroke-width:0.264583"
         id="tspan4">1</tspan></text><text
       xml:space="preserve"
       style="font-size:3.175px;text-align:start;writing-mode:lr-tb;direction:ltr;text-anchor:start;fill:#ffffff;fill-opacity:1;stroke:#000000;stroke-width:1.5;stroke-dasharray:none;stroke-opacity:1"
       x="48.443211"
       y="122.75661"
       id="text1"><tspan
         sodipodi:role="line"
         id="tspan1"
         style="stroke-width:1.5"
         x="48.443211"
         y="122.75661" /></text><text
       xml:space="preserve"
       style="font-style:normal;font-variant:normal;font-weight:800;font-stretch:normal;font-size:10.5833px;font-family:Nunito;-inkscape-font-specification:'Nunito Ultra-Bold';text-align:start;writing-mode:lr-tb;direction:ltr;text-anchor:start;fill:#ffffff;fill-opacity:1;stroke:#000000;stroke-width:1.5;stroke-dasharray:none;stroke-opacity:1"
       x="50.8983"
       y="121.84061"
       id="text2"><tspan
         sodipodi:role="line"
         id="tspan2"
         style="font-style:normal;font-variant:normal;font-weight:800;font-stretch:normal;font-family:Nunito;-inkscape-font-specification:'Nunito Ultra-Bold';stroke-width:1.5"
         x="50.8983"
         y="121.84061" /></text><g
       id="g2"
       transform="matrix(0.06143571,0,0,0.06143571,73.169164,118.29285)"><title
         id="title2">Layer 1</title><path
         id="rect2816"
         d="M -20.801086,37.150616 V 1129.4615 H 811.6178 V 37.150616 H 51.058403 c 1.081781,2.497288 1.709276,5.21832 1.709276,8.075597 0,11.955195 -10.443241,21.664596 -23.302012,21.664596 -12.858784,0 -23.2671234,-9.7094 -23.2671234,-21.664596 0,-2.857288 0.59259,-5.57831 1.674398,-8.075597 z m 49.080725,73.036964 c 0.396833,-0.0187 0.784192,0 1.186029,0 12.858771,0 23.302012,9.67694 23.302012,21.63217 0,11.95518 -10.443241,21.63215 -23.302012,21.63215 -12.858784,0 -23.2671234,-9.67697 -23.2671234,-21.63215 0,-11.5816 9.7791094,-21.05243 22.0810944,-21.63217 z m 1.186029,86.56109 c 12.858771,0 23.302012,9.70938 23.302012,21.6646 0,11.95518 -10.443241,21.63215 -23.302012,21.63215 -12.858784,0 -23.2671234,-9.67697 -23.2671234,-21.63215 0,-11.95522 10.4083474,-21.6646 23.2671234,-21.6646 z m 0,86.59354 c 12.858771,0 23.302012,9.70938 23.302012,21.66458 0,11.9552 -10.443241,21.6322 -23.302012,21.6322 -12.858784,0 -23.2671234,-9.677 -23.2671234,-21.6322 0,-11.9552 10.4083474,-21.66458 23.2671234,-21.66458 z m 0,86.59353 c 12.858771,0 23.302012,9.67694 23.302012,21.63218 0,11.95517 -10.443241,21.66458 -23.302012,21.66458 -12.858784,0 -23.2671234,-9.70942 -23.2671234,-21.66458 0,-11.95524 10.4083474,-21.63218 23.2671234,-21.63218 z m 0,86.59351 c 12.858771,0 23.302012,9.677 23.302012,21.63217 0,11.9552 -10.443241,21.66458 -23.302012,21.66458 -12.858784,0 -23.2671234,-9.70938 -23.2671234,-21.66458 0,-11.95517 10.4083474,-21.63217 23.2671234,-21.63217 z m -1.186029,86.59357 c 0.396833,-0.0187 0.784192,0 1.186029,0 12.858771,0 23.302012,9.67697 23.302012,21.63211 0,11.9552 -10.443241,21.66461 -23.302012,21.66461 -12.858784,0 -23.2671234,-9.70941 -23.2671234,-21.66461 0,-11.58155 9.7791094,-21.05237 22.0810944,-21.63211 z m 1.186029,86.56106 c 12.858771,0 23.302012,9.70948 23.302012,21.66461 0,11.9552 -10.443241,21.63221 -23.302012,21.63221 -12.858784,0 -23.2671234,-9.67701 -23.2671234,-21.63221 0,-11.95513 10.4083474,-21.66461 23.2671234,-21.66461 z m 0,86.59351 c 12.858771,0 23.302012,9.70947 23.302012,21.66461 0,11.9552 -10.443241,21.6322 -23.302012,21.6322 -12.858784,0 -23.2671234,-9.677 -23.2671234,-21.6322 0,-11.95514 10.4083474,-21.66461 23.2671234,-21.66461 z m 0,86.5935 c 12.858771,0 23.302012,9.67701 23.302012,21.63227 0,11.95514 -10.443241,21.66461 -23.302012,21.66461 -12.858784,0 -23.2671234,-9.70947 -23.2671234,-21.66461 0,-11.95526 10.4083474,-21.63227 23.2671234,-21.63227 z m 0,86.59351 c 12.858771,0 23.302012,9.677 23.302012,21.6322 0,11.95526 -10.443241,21.66474 -23.302012,21.66474 -12.858784,0 -23.2671234,-9.70948 -23.2671234,-21.66474 0,-11.9552 10.4083474,-21.6322 23.2671234,-21.6322 z m 0,86.59369 c 12.858771,0 23.302012,9.67688 23.302012,21.63214 0,11.95517 -10.443241,21.66457 -23.302012,21.66457 -12.858784,0 -23.2671234,-9.7094 -23.2671234,-21.66457 0,-11.95526 10.4083474,-21.63214 23.2671234,-21.63214 z m 0,86.56101 c 12.858771,0 23.302012,9.7093 23.302012,21.6645 0,11.9553 -10.443241,21.6322 -23.302012,21.6322 -12.858784,0 -23.2671234,-9.6769 -23.2671234,-21.6322 0,-11.9552 10.4083474,-21.6645 23.2671234,-21.6645 z"
         fill="#fff6d5" /><path
         d="M 92.374763,-0.255718 V 1091.9423"
         id="path2880"
         stroke-miterlimit="4"
         stroke-width="3"
         stroke="#ff5555"
         fill="none" /><path
         id="path3656"
         d="M 781.22046,139.20515 H 93.054512"
         stroke-miterlimit="4"
         stroke-width="1.7583"
         stroke="#ff5555"
         fill="none" /><path
         d="M 781.22046,1006.8271 H 93.054512"
         id="path3658"
         stroke-miterlimit="4"
         stroke-width="1.7583"
         stroke="#ff5555"
         fill="none" /><path
         d="M 781.21893,554.15863 H 93.053039"
         id="path3660"
         stroke-miterlimit="4"
         stroke-width="1.7583"
         stroke="#5f8dd3"
         fill="none" /><use
         transform="matrix(1.11626,0,0,1.03783,-77.0681,-14.4453)"
         x="0"
         y="-36.347813"
         xlink:href="#path3660"
         id="use3682"
         width="744.09448"
         height="1052.3622" /><use
         transform="matrix(1.11626,0,0,1.03783,-77.0681,-14.4453)"
         x="0"
         y="-72.695656"
         xlink:href="#path3660"
         id="use3684"
         width="744.09448"
         height="1052.3622" /><use
         transform="matrix(1.11626,0,0,1.03783,-77.0681,-14.4453)"
         x="0"
         y="-109.04349"
         xlink:href="#path3660"
         id="use3686"
         width="744.09448"
         height="1052.3622" /><use
         transform="matrix(1.11626,0,0,1.03783,-77.0681,-14.4453)"
         x="0"
         y="-145.39133"
         xlink:href="#path3660"
         id="use3688"
         width="744.09448"
         height="1052.3622" /><use
         transform="matrix(1.11626,0,0,1.03783,-77.0681,-14.4453)"
         x="0"
         y="-181.73917"
         xlink:href="#path3660"
         id="use3690"
         width="744.09448"
         height="1052.3622" /><use
         transform="matrix(1.11626,0,0,1.03783,-77.0681,-14.4453)"
         x="0"
         y="-218.08701"
         xlink:href="#path3660"
         id="use3692"
         width="744.09448"
         height="1052.3622" /><use
         transform="matrix(1.11626,0,0,1.03783,-77.0681,-14.4453)"
         x="0"
         y="-254.43484"
         xlink:href="#path3660"
         id="use3694"
         width="744.09448"
         height="1052.3622" /><use
         transform="matrix(1.11626,0,0,1.03783,-77.0681,-14.4453)"
         x="0"
         y="-290.78268"
         xlink:href="#path3660"
         id="use3696"
         width="744.09448"
         height="1052.3622" /><use
         transform="matrix(1.11626,0,0,1.03783,-77.0681,-14.4453)"
         x="0"
         y="-327.13052"
         xlink:href="#path3660"
         id="use3698"
         width="744.09448"
         height="1052.3622" /><use
         transform="matrix(1.11626,0,0,1.03783,-77.0681,-14.4453)"
         x="0"
         y="-363.47836"
         xlink:href="#path3660"
         id="use3700"
         width="744.09448"
         height="1052.3622" /><use
         transform="matrix(1.11626,0,0,1.03783,-77.0681,-14.4453)"
         id="use3702"
         xlink:href="#path3660"
         y="36.347843"
         x="0"
         width="744.09448"
         height="1052.3622" /><use
         transform="matrix(1.11626,0,0,1.03783,-77.0681,-14.4453)"
         height="1052.3622"
         width="744.09448"
         x="0"
         y="109.04351"
         xlink:href="#path3660"
         id="use3704" /><use
         transform="matrix(1.11626,0,0,1.03783,-77.0681,-14.4453)"
         id="use3706"
         xlink:href="#path3660"
         y="145.39136"
         x="0"
         width="744.09448"
         height="1052.3622" /><use
         transform="matrix(1.11626,0,0,1.03783,-77.0681,-14.4453)"
         height="1052.3622"
         width="744.09448"
         x="0"
         y="181.7392"
         xlink:href="#path3660"
         id="use3708" /><use
         transform="matrix(1.11626,0,0,1.03783,-77.0681,-14.4453)"
         id="use3710"
         xlink:href="#path3660"
         y="218.08704"
         x="0"
         width="744.09448"
         height="1052.3622" /><use
         transform="matrix(1.11626,0,0,1.03783,-77.0681,-14.4453)"
         height="1052.3622"
         width="744.09448"
         x="0"
         y="254.43488"
         xlink:href="#path3660"
         id="use3712" /><use
         transform="matrix(1.11626,0,0,1.03783,-77.0681,-14.4453)"
         id="use3714"
         xlink:href="#path3660"
         y="290.78271"
         x="0"
         width="744.09448"
         height="1052.3622" /><use
         transform="matrix(1.11626,0,0,1.03783,-77.0681,-14.4453)"
         height="1052.3622"
         width="744.09448"
         x="0"
         y="327.13052"
         xlink:href="#path3660"
         id="use3716" /><use
         transform="matrix(1.11626,0,0,1.03783,-77.0681,-14.4453)"
         id="use3718"
         xlink:href="#path3660"
         y="399.82617"
         x="0"
         width="744.09448"
         height="1052.3622" /><use
         transform="matrix(1.11626,0,0,1.03783,-77.0681,-14.4453)"
         id="use3720"
         xlink:href="#path3660"
         y="72.695671"
         x="0"
         width="744.09448"
         height="1052.3622" /><use
         transform="matrix(1.11626,0,0,1.03783,-77.0681,-14.4453)"
         height="1052.3622"
         width="744.09448"
         x="0"
         y="363.47836"
         xlink:href="#path3660"
         id="use3722" /><path
         style="fill:none;fill-opacity:1;stroke:#000000;stroke-width:8.13859;stroke-dasharray:none"
         d="m 158.56623,310.08135 c 0,-1.90294 1.9029,-5.70879 0,-5.70879 -1.90294,0 -1.70204,6.55979 0,5.70879 3.40404,-1.70204 4.15938,-6.4429 6.85054,-9.13406 3.28504,-3.28504 18.93397,-9.16588 14.84281,-15.98455 -4.47808,-7.46346 -23.97687,6.97853 -23.97687,12.55933 0,3.57096 7.62242,2.38624 7.99227,2.28348 7.56174,-2.10045 20.23498,-6.53391 26.26035,-12.55928 0.38071,-0.38071 -0.76116,0.76116 -1.14174,1.14174 -2.99163,2.99163 -10.2758,8.50572 -10.2758,13.70107 0,2.69115 5.43924,-0.2907 7.99228,-1.14179 4.56705,-1.52232 9.18384,-2.90274 13.70106,-4.567 2.71975,-1.00199 5.21607,-2.5924 7.99228,-3.42527 12.61053,-3.78315 -10.26637,14.84048 3.42527,11.41754 7.77392,-1.94347 16.25699,-7.8474 23.97682,-9.13402 2.45597,-0.40956 0.3876,5.33162 1.14179,5.70875 4.91145,2.45575 21.79399,-3.72957 26.26035,-4.567 12.798,-2.39964 2.72082,5.34599 17.12629,3.42526 4.98489,-0.66465 18.6428,-6.30768 22.83509,-5.70875 1.35845,0.19423 2.12349,1.84955 3.42526,2.28349 1.08317,0.36089 2.29498,-0.1615 3.42527,0 1.55342,0.22179 2.99783,1.14178 4.56701,1.14178 3.06837,0 6.22314,-0.17141 9.13406,-1.14178 1.39756,-0.46586 0.61292,-1.80997 2.28348,-1.14175 5.07593,2.03038 3.74064,2.7511 9.13406,3.42527 3.66601,0.45823 8.6173,-0.51671 11.41754,2.28348"
         id="path5" /><path
         style="fill:none;fill-opacity:1;stroke:#000000;stroke-width:8.13857;stroke-dasharray:none"
         d="m 367.50726,506.4631 c 7.61669,-2.53418 10.93666,-7.19076 14.84281,-13.70103 3.71291,-6.18821 6.19519,-9.95155 -1.14174,-14.84281 -5.646,-3.76403 -15.69605,16.1082 -7.99228,19.40982 6.29709,2.69873 23.42975,-5.70879 29.68562,-5.70879 1.6147,0 -2.19933,2.37444 -3.42526,3.42527 -0.94161,0.80711 -9.34742,6.56534 -2.28353,9.13406 7.57763,2.75549 31.99175,-5.44415 39.96142,-6.85054 6.67163,-1.17736 2.23882,6.24868 11.41754,5.70875 19.79436,-1.16435 8.80469,-1.76091 22.83509,-4.56701 5.06076,-1.01215 4.31386,3.42527 9.13406,3.42527 7.42418,0 14.51881,-3.13211 21.6933,-4.56701 1.84984,-0.36994 3.84848,0.42938 5.70879,0 8.10067,-1.86939 15.82809,-4.07902 23.97682,-5.70879 2.31178,-0.46232 0.0879,0.86366 3.42527,1.14178 8.34396,0.69531 16.74576,0 25.11861,0"
         id="path6" /><path
         style="fill:none;fill-opacity:1;stroke:#000000;stroke-width:8.13857;stroke-dasharray:none"
         d="m 288.72621,182.20486 c 1.11185,-6.16581 8.44146,-6.10927 11.41754,-10.2758 0.76499,-1.07094 1.57783,-6.55983 1.14178,-6.85053 -8.79224,-5.86151 -15.22937,0.8491 -23.97687,5.70879 -1.59906,0.88838 -5.93131,4.41864 -2.28348,6.85053 1.61466,1.07646 3.86774,0.52809 5.70875,1.14175 14.81818,4.9394 1.64282,5.59746 21.69334,-3.42527 4.06227,-1.82801 8.57497,-2.57483 12.55929,-4.56701 1.60919,-0.80462 0.0629,-4.16554 -1.14174,-4.56701 -2.97199,-0.99066 -10.67981,9.05323 -4.56701,10.27576 7.76561,1.55316 26.24433,-22.83509 34.25263,-22.83509 0.3807,0 -0.12059,0.78072 0,1.14179 0.64811,1.94433 1.22903,3.95133 2.28352,5.70875 3.46734,5.7789 14.09702,3.32626 18.26808,2.28352 4.72975,-1.18248 12.5166,-6.85053 18.26803,-6.85053 1.90295,0 2.73732,2.90248 4.56705,3.42527 8.17148,2.33469 21.59274,-2.28353 29.68562,-2.28353 0.87606,0 2.27259,3.41709 2.28348,3.42527 1.56987,1.1774 10.03157,2.28352 10.2758,2.28352 18.09065,0 0.17615,-2.64942 18.26808,-1.14178 8.40852,0.70074 3.79146,3.80227 6.85053,4.56705 5.09566,1.27391 12.9853,0.75466 18.26804,0 0.11197,-0.0172 2.55592,-1.72133 3.42526,-1.14178 5.05151,3.36768 5.29872,4.00852 12.55933,4.56701 3.47324,0.26701 21.6489,-1.38787 25.11857,0 0.99949,0.39965 1.52236,1.52236 2.28352,2.28352"
         id="path7" /><path
         style="fill:none;fill-opacity:1;stroke:#000000;stroke-width:8.13857;stroke-dasharray:none"
         d="m 273.8834,727.96345 c 16.45169,-5.11236 32.95399,-10.98808 50.23722,-12.55928 1.51607,-0.13781 3.49055,-1.07645 4.56701,0 1.50647,1.50647 -0.18648,3.42527 4.567,3.42527 11.70118,0 8.86735,-1.34343 18.26808,-2.28353 4.71356,-0.47136 8.9074,1.14179 13.70107,1.14179 8.64508,0 17.75115,-2.89133 26.26035,-2.28353 11.79364,0.84238 -0.41947,5.15952 11.41754,6.85053 3.4117,0.48739 6.85837,-0.696 10.2758,-1.14178 5.33704,-0.69613 10.65634,-1.52232 15.98455,-2.28348"
         id="path8" /><path
         style="fill:none;fill-opacity:1;stroke:#e40000;stroke-width:8.13857;stroke-dasharray:none;stroke-opacity:1"
         d="m 584.44061,135.39291 c -5.77658,-10.12447 -16.73034,-18.11002 -2.28348,-28.54384 8.49533,-6.13554 27.11574,-10.454308 37.67789,-9.134055 2.83568,0.354439 9.85861,0.636525 9.13402,5.708795 -0.49833,3.48823 -6.63314,9.7866 -7.99228,11.41754 -3.80585,4.56701 -7.56734,9.17136 -11.41754,13.70107 -7.78909,9.1636 -20.92491,20.32451 -17.12634,34.25262 1.16733,4.2801 3.72239,3.87088 5.7088,6.8505 0.9441,1.4162 1.52232,3.04468 2.28352,4.56705"
         id="path11" /><path
         style="fill:none;fill-opacity:1;stroke:#e40000;stroke-width:8.13857;stroke-dasharray:none;stroke-opacity:1"
         d="m 586.72413,208.46521 c 1.94076,7.65274 -2.52327,3.42527 13.70107,3.42527"
         id="path12" /><path
         style="fill:none;fill-opacity:1;stroke:#e40000;stroke-width:8.13857;stroke-dasharray:none;stroke-opacity:1"
         d="m 222.50448,243.85958 c -7.67595,-4.718 -15.16564,-6.34015 -23.97687,-7.99227 -2.27534,-0.42679 -4.54065,-1.29575 -6.85049,-1.14174 -15.50341,1.03355 -35.54696,11.12477 -47.9537,18.26807 -10.44893,6.01603 -25.03433,19.68566 -28.54387,31.9691 -5.51616,19.30659 7.12069,33.61154 23.97687,41.10316 23.15761,10.2923 49.47855,9.13406 74.214,9.13406 13.32049,0 26.66488,0.79777 39.96142,0 27.7024,-1.66216 34.65215,-3.75726 59.37124,-5.70879 20.34514,-1.60621 24.14439,-1.14174 45.67016,-1.14174 9.69148,0 17.86399,0.44794 27.4021,-1.14178 5.00857,-0.83472 9.88609,-2.32375 14.84281,-3.42523 11.60781,-2.57952 29.64513,-4.13251 37.67789,-14.84281 4.6304,-6.17391 -1.89093,-12.36303 -6.85053,-14.84281 -22.04774,-11.02391 -38.52054,-13.92729 -62.79646,-15.98459 -11.76212,-0.99678 -23.59151,-1.32056 -35.39442,-1.14174 -30.92146,0.46852 -61.35342,3.92083 -91.34033,11.41754"
         id="path13" /><path
         style="fill:none;fill-opacity:1;stroke:#e40000;stroke-width:8.13857;stroke-dasharray:none;stroke-opacity:1"
         d="m 464.55639,319.21537 c 34.94217,7.09924 74.84588,13.82299 92.48213,49.09544 4.36743,8.73491 -3.42527,13.82014 -3.42527,21.69334"
         id="path15" /><path
         style="fill:none;fill-opacity:1;stroke:#e40000;stroke-width:8.13857;stroke-dasharray:none;stroke-opacity:1"
         d="m 523.92763,400.27995 c 1.52236,2.28353 3.33969,4.39582 4.56701,6.85053 1.67047,3.3409 0.24591,12.80537 2.28352,14.84281 1.10957,1.10957 3.21157,-0.35099 4.56701,-1.14178 9.57028,-5.58265 17.48052,-12.58103 26.26035,-19.40982 2.21923,-1.72603 4.78902,-5.48678 6.85054,-3.42527"
         id="path16" /><path
         style="fill:none;fill-opacity:1;stroke:#e40000;stroke-width:8.13857;stroke-dasharray:none;stroke-opacity:1"
         d="m 534.20343,404.84696 c -1.52236,0.76116 -5.32821,0.76116 -4.56701,2.28352 0.76116,1.52233 2.86497,-2.28352 4.56701,-2.28352 4.25508,0 8.31894,1.93016 12.55928,2.28352 0.5364,0.0448 1.52237,-0.76116 1.14179,-1.14178 -0.53825,-0.5382 -1.52499,0.0633 -2.28353,0 -3.81162,-0.31783 -8.71299,-3.84629 -11.41754,-1.14174 -8.02746,8.02746 23.65714,1.14174 15.98455,1.14174"
         id="path17" /><path
         style="fill:none;fill-opacity:1;stroke:#e40000;stroke-width:8.13857;stroke-dasharray:none;stroke-opacity:1"
         d="m 531.9199,413.98102 c 7.56458,-1.28072 14.47123,-4.44319 21.69335,-6.85054 0.38057,-3.04469 4.18641,-8.75349 1.14172,-9.13406 -3.04469,-0.38057 1.7072,7.99449 -1.14172,9.13406 -3.48025,1.3921 -6.65956,-3.58078 -10.27583,-4.56704 -1.25508,-0.3423 -4.83573,2.28351 -6.85052,2.28351"
         id="path18" /><path
         style="fill:none;fill-opacity:1;stroke:#e40000;stroke-width:8.13857;stroke-dasharray:none;stroke-opacity:1"
         d="m 439.43782,464.2182 c -10.79079,-10.69739 -24.59457,-9.13402 -38.81967,-9.13402 -6.98168,0 -14.7581,-0.57796 -21.69335,0 -16.31651,1.3597 -31.82956,14.61214 -43.38664,25.11857 -6.48249,5.89316 -16.99115,15.05293 -15.98455,25.11861 0.2037,2.03933 1.36694,3.87561 2.28348,5.70875 5.40367,10.80733 9.87343,16.10027 21.69335,19.40986 6.40044,1.79213 12.81785,3.71644 19.40981,4.56701 5.28437,0.68183 10.65638,0 15.98455,0 6.85054,0 13.71162,0.37984 20.55161,0 14.89767,-0.82766 29.63682,-3.6363 44.52842,-4.56701 14.78704,-0.92421 29.7345,0.82188 44.52843,0 14.91322,-0.82852 29.66486,-1.67663 44.52843,-3.42527 3.42273,-0.40267 6.91513,-0.37813 10.27576,-1.14178 16.02637,-3.64233 30.46047,-10.13463 45.67017,-15.98456 10.92335,-4.20128 21.28868,-9.17118 30.8274,-15.98455 2.23322,-1.59519 5.13609,-2.42396 6.85053,-4.567 7.56277,-9.45349 -8.45873,-18.68906 -14.84281,-21.69335 -16.07968,-7.5669 -33.00321,-7.90304 -50.23722,-9.13406 -7.5961,-0.54255 -15.12123,-1.84299 -22.83508,-1.14174 -4.83553,0.43958 -12.89064,2.57815 -17.12629,3.42527 -11.28292,2.25656 -22.86196,3.42794 -34.25267,4.56701 -10.91582,1.09161 -22.19503,0.0504 -33.11085,1.14178 -1.93098,0.19294 -3.79073,1.43684 -5.70879,1.14174 -3.21389,-0.49445 -6.09906,-4.59254 -9.13402,-3.42526 -3.35114,1.2889 -3.80584,6.08937 -5.70879,9.13401"
         id="path19" /><path
         style="fill:none;fill-opacity:1;stroke:#e40000;stroke-width:8.13857;stroke-dasharray:none;stroke-opacity:1"
         d="m 305.85254,535.00698 c -14.99496,-0.34497 -30.06297,1.8513 -44.52843,5.70874 -10.45526,2.7881 -20.84729,4.69845 -30.82736,9.13406 -16.196,7.19822 -48.77441,34.38756 -58.22949,49.09544 -8.03685,12.50179 -15.40694,29.17524 -13.70103,44.52843 0.65815,5.92339 5.8588,11.39924 9.13402,15.98455 1.59519,2.23322 2.62642,4.9099 4.56701,6.85053 4.36433,4.3643 11.75092,7.5881 17.12633,10.2758 3.71352,1.85674 2.71587,0.28812 5.70875,2.28349 5.30362,3.53573 21.0147,11.41754 27.40214,11.41754"
         id="path20" /><path
         style="fill:none;fill-opacity:1;stroke:#e40000;stroke-width:8.13857;stroke-dasharray:none;stroke-opacity:1"
         d="m 211.08694,667.45047 c -4.09681,6.10471 -1.87547,9.21641 0,14.84281 0.55969,1.67917 -1.42177,1.50264 1.14174,3.42527 0.9628,0.7221 2.46247,0.41947 3.42526,1.14174 0.6808,0.51064 0.54002,1.68176 1.14175,2.28353 1.91978,1.91978 3.87212,2.11815 5.70879,4.56701 1.88774,2.51703 1.94433,6.85053 4.56701,6.85053"
         id="path21" /><path
         style="fill:none;fill-opacity:1;stroke:#e40000;stroke-width:8.13857;stroke-dasharray:none;stroke-opacity:1"
         d="m 191.67712,714.26243 c 0.38071,-1.52237 2.66406,-4.18643 1.14174,-4.56705 -1.52237,-0.38071 -2.25136,5.67662 -1.14174,4.56705 2.53878,-2.53883 3.50442,-6.29993 5.70875,-9.13406 0.22093,-0.28424 13.7996,-6.64188 14.84281,-6.85054 3.58569,-0.7171 7.01599,-1.19691 10.2758,-2.28348 2.07883,-0.69294 3.62992,-1.59058 5.70875,-2.28352 0.72214,-0.24075 1.74528,0.53824 2.28352,0 1.52233,-1.52233 -1.90294,-1.14175 1.14174,-1.14175"
         id="path22" /><path
         style="fill:none;fill-opacity:1;stroke:#e40000;stroke-width:8.13857;stroke-dasharray:none;stroke-opacity:1"
         d="m 313.84482,692.56908 c 1.90294,-1.52236 7.23111,-2.6641 5.70879,-4.567 -1.52237,-1.90295 -3.27725,4.4049 -5.70879,4.567 -3.96464,0.26443 -7.44413,-3.42526 -11.41755,-3.42526 -5.85543,0 -18.22983,6.73946 -23.97682,9.13401 -8.97937,3.74142 -11.97961,4.81292 -19.40982,11.41755 -1.82142,1.619 -4.07859,2.75566 -5.70879,4.56705 -13.92558,15.47283 -23.66731,45.71526 -1.14174,58.22945 8.00011,4.44453 18.70744,5.54635 27.40209,6.85053 14.28449,2.14266 32.63552,3.95133 46.81191,2.28353 3.11691,-0.3665 6.04342,-1.73813 9.13406,-2.28353 3.39391,-0.59892 6.88189,-0.54281 10.2758,-1.14174 6.18124,-1.09083 12.07668,-3.53513 18.26808,-4.56705 7.92543,-1.3209 16.01478,-1.71478 23.97682,-2.28348 5.85617,0.36951 11.39067,-1.76207 17.1263,-2.28353 1.89515,-0.17226 3.83655,0.34023 5.70879,0 8.35024,-1.51823 17.34541,-6.21909 25.11861,-9.13401 5.03605,-1.88852 14.431,-6.43873 18.26807,-10.2758 2.31501,-2.31501 3.63561,-5.45841 5.70875,-7.99228 1.36332,-1.66625 3.37282,-2.77569 4.56701,-4.56701 2.29645,-3.44464 4.85297,-15.40685 4.56705,-19.40981 -1.80062,-25.20815 -20.19931,-29.0267 -41.10316,-34.25267 -9.03298,-2.25825 -17.94977,-4.56701 -27.40213,-4.56701 -2.69111,0 -5.30797,0.95001 -7.99228,1.14178 -2.6573,0.18993 -5.33497,-0.18992 -7.99227,0 -9.2245,0.65888 -18.21377,3.41846 -27.4021,4.56701 -5.61361,0.70169 -21.0333,1.62348 -25.11861,5.70875 -1.10957,1.10961 -0.76116,3.04469 -1.14174,4.56701"
         id="path23" /></g></g></svg>
